<?xml version="1.0" standalone="no"?>
<!DOCTYPE svg PUBLIC "-//W3C//DTD SVG 20010904//EN"
 "http://www.w3.org/TR/2001/REC-SVG-20010904/DTD/svg10.dtd">
<svg version="1.0" xmlns="http://www.w3.org/2000/svg"
 width="606.000000pt" height="259.000000pt" viewBox="0 0 606.000000 259.000000"
 preserveAspectRatio="xMidYMid meet">

<g transform="translate(0.000000,259.000000) scale(0.100000,-0.100000)"
fill="#000000" stroke="none">
<path d="M4175 1590 c-101 -27 -240 -100 -319 -167 -208 -174 -330 -472 -300
-728 l9 -80 35 -3 35 -3 1 148 c0 139 2 154 32 243 45 134 92 211 197 315 148
148 272 206 456 213 187 7 313 -41 444 -173 86 -86 132 -163 160 -271 67 -259
-108 -532 -372 -577 -200 -35 -399 115 -420 316 -17 167 120 315 283 305 191
-12 275 -244 125 -345 -60 -41 -160 -21 -191 37 -27 50 -8 118 37 139 35 16
54 14 79 -10 18 -17 30 -20 58 -15 41 8 41 7 21 45 -20 40 -95 75 -142 68
-179 -29 -194 -279 -21 -352 103 -42 222 5 286 113 36 62 38 165 4 229 -33 64
-79 111 -136 141 -44 23 -63 27 -136 27 -104 0 -156 -21 -234 -95 -195 -184
-128 -508 132 -639 182 -92 396 -49 558 113 81 81 126 163 149 271 28 133 12
243 -56 384 -54 112 -176 237 -286 294 -146 76 -335 98 -488 57z"/>
</g>
</svg>
