<?xml version="1.0" standalone="no"?>
<!DOCTYPE svg PUBLIC "-//W3C//DTD SVG 20010904//EN"
 "http://www.w3.org/TR/2001/REC-SVG-20010904/DTD/svg10.dtd">
<svg version="1.0" xmlns="http://www.w3.org/2000/svg"
 width="1200.000000pt" height="1196.000000pt" viewBox="0 0 1200.000000 1196.000000"
 preserveAspectRatio="xMidYMid meet">

<g transform="translate(0.000000,1196.000000) scale(0.100000,-0.100000)"
fill="#000000" stroke="none">
<path d="M7793 4165 c-28 -12 -33 -19 -33 -48 0 -37 15 -54 73 -80 68 -31 41
-84 -38 -74 -51 7 -61 -7 -17 -24 56 -21 122 11 122 61 0 30 -18 48 -72 73
-29 13 -38 23 -38 41 0 29 26 41 70 31 23 -5 30 -3 30 9 0 9 -6 16 -12 16 -7
0 -22 2 -33 5 -11 3 -35 -2 -52 -10z"/>
<path d="M9210 4160 c0 -13 5 -20 13 -17 6 2 12 10 12 17 0 7 -6 15 -12 18 -8
2 -13 -5 -13 -18z"/>
<path d="M8400 4055 c0 -94 3 -115 14 -115 11 0 16 14 18 48 l3 47 48 3 c26 2
47 7 47 12 0 5 -21 10 -47 12 l-48 3 0 40 0 40 48 3 c71 5 57 22 -18 22 l-65
0 0 -115z"/>
<path d="M7977 4112 c-28 -12 -16 -25 23 -26 28 -1 36 -5 38 -23 3 -20 -1 -23
-30 -23 -75 0 -105 -67 -45 -100 25 -14 30 -13 57 2 17 9 30 13 30 8 0 -6 5
-10 10 -10 15 0 13 145 -3 158 -18 15 -59 22 -80 14z m63 -110 c0 -25 -19 -42
-47 -42 -28 0 -40 24 -23 45 18 22 70 20 70 -3z"/>
<path d="M8172 4104 c-12 -8 -22 -10 -22 -5 0 6 -7 11 -15 11 -12 0 -15 -16
-15 -85 0 -69 3 -85 15 -85 12 0 15 13 15 56 0 66 13 94 43 94 37 0 47 -19 47
-87 0 -49 3 -63 15 -63 12 0 15 14 15 70 0 57 -4 74 -20 90 -24 24 -48 25 -78
4z"/>
<path d="M8612 4104 c-12 -8 -22 -10 -22 -5 0 6 -7 11 -15 11 -12 0 -15 -16
-15 -85 0 -69 3 -85 15 -85 11 0 15 13 15 53 0 59 20 97 51 97 10 0 19 7 19
15 0 19 -20 19 -48 -1z"/>
<path d="M8717 4112 c-33 -14 -23 -27 19 -24 31 3 43 -1 48 -13 9 -25 -2 -35
-40 -35 -36 0 -74 -28 -74 -55 0 -21 36 -55 58 -55 10 0 28 7 40 16 12 8 22
10 22 5 0 -6 7 -11 16 -11 14 0 16 11 12 75 -2 41 -8 79 -13 84 -15 15 -66 22
-88 13z m73 -103 c0 -27 -22 -49 -50 -49 -31 0 -42 16 -28 43 10 19 78 25 78
6z"/>
<path d="M8926 4113 c-4 -4 -19 -7 -34 -8 -27 0 -27 0 -30 -82 -2 -69 0 -83
13 -83 11 0 15 11 15 48 0 66 18 97 55 97 30 0 30 0 35 -69 3 -43 10 -71 18
-74 9 -3 12 16 12 72 0 66 -3 77 -22 90 -24 17 -50 21 -62 9z"/>
<path d="M9093 4110 c-12 -5 -26 -18 -32 -29 -16 -28 -13 -93 4 -118 16 -23
57 -37 86 -28 30 10 22 25 -14 25 -43 0 -57 15 -57 61 0 45 21 69 61 69 31 0
39 14 13 24 -20 8 -34 7 -61 -4z"/>
<path d="M9310 4107 c-41 -21 -33 -56 20 -87 60 -35 59 -55 -3 -55 -54 0 -65
-20 -16 -30 39 -9 85 10 93 38 7 26 -7 43 -56 68 -49 25 -44 43 10 47 46 3 55
16 20 26 -32 8 -40 7 -68 -7z"/>
<path d="M9480 4107 c-33 -17 -52 -55 -46 -95 8 -56 52 -89 102 -76 35 9 29
24 -10 24 -37 0 -51 12 -61 53 -11 42 17 77 60 77 39 0 47 14 13 24 -30 8 -29
8 -58 -7z"/>
<path d="M9635 4111 c-92 -39 -46 -199 50 -175 39 10 60 41 60 90 0 65 -55
108 -110 85z m71 -46 c27 -41 2 -105 -41 -105 -30 0 -49 25 -49 65 0 64 58 89
90 40z"/>
<path d="M9210 4025 c0 -69 3 -85 15 -85 12 0 15 16 15 85 0 69 -3 85 -15 85
-12 0 -15 -16 -15 -85z"/>
</g>
</svg>
