<?xml version="1.0" standalone="no"?>
<!DOCTYPE svg PUBLIC "-//W3C//DTD SVG 20010904//EN"
 "http://www.w3.org/TR/2001/REC-SVG-20010904/DTD/svg10.dtd">
<svg version="1.0" xmlns="http://www.w3.org/2000/svg"
 width="1202.000000pt" height="1204.000000pt" viewBox="0 0 1202.000000 1204.000000"
 preserveAspectRatio="xMidYMid meet">

<g transform="translate(0.000000,1204.000000) scale(0.100000,-0.100000)"
fill="#000000" stroke="none">
<path d="M3335 9537 c-19 -35 -35 -67 -35 -70 0 -4 34 -7 75 -7 41 0 75 3 75
7 0 8 -70 133 -75 133 -2 0 -20 -29 -40 -63z"/>
<path d="M3536 9379 c-6 -18 -26 -141 -26 -159 0 -9 3 -10 9 -4 10 11 35 164
27 171 -3 3 -8 0 -10 -8z"/>
<path d="M3586 9369 c-28 -130 -31 -163 -17 -155 10 7 36 164 28 173 -3 3 -8
-5 -11 -18z"/>
<path d="M3075 9300 c-21 -44 -36 -82 -33 -86 4 -3 11 4 18 15 15 29 63 28 79
-1 9 -19 10 -11 6 42 -7 76 -14 110 -24 110 -4 0 -24 -36 -46 -80z m54 -12 c1
-13 -7 -18 -24 -18 l-25 0 17 36 c15 30 18 32 24 17 4 -10 8 -26 8 -35z"/>
<path d="M3480 9370 c0 -5 5 -10 10 -10 6 0 10 5 10 10 0 6 -4 10 -10 10 -5 0
-10 -4 -10 -10z"/>
<path d="M3257 9325 c-19 -19 -31 -68 -22 -95 4 -13 15 -20 31 -20 13 0 24 -4
24 -9 0 -16 -27 -31 -44 -25 -9 3 -16 1 -16 -5 0 -19 58 -13 69 7 10 18 35
142 29 147 -16 12 -59 13 -71 0z m45 -45 c-5 -60 -52 -82 -52 -24 0 36 19 66
38 62 13 -3 16 -13 14 -38z"/>
<path d="M3644 9325 c-25 -17 -38 -69 -24 -96 11 -20 54 -26 65 -10 3 6 -7 9
-22 8 -22 -2 -29 3 -31 21 -3 19 1 22 32 22 33 0 36 2 36 29 0 17 -6 31 -16
35 -20 8 -16 8 -40 -9z m44 -28 c3 -13 -3 -17 -28 -17 -28 0 -30 2 -20 21 13
24 43 22 48 -4z"/>
<path d="M3197 9313 c-14 -46 -19 -105 -9 -99 11 7 27 104 19 112 -3 3 -8 -3
-10 -13z"/>
<path d="M3356 9308 c-3 -13 -6 -40 -6 -60 0 -37 1 -38 34 -38 37 0 40 3 51
78 4 25 3 42 -3 42 -5 0 -12 -22 -16 -49 -4 -32 -12 -51 -23 -55 -17 -7 -33 9
-28 28 2 6 6 26 9 44 6 36 -8 44 -18 10z"/>
<path d="M3470 9316 c0 -7 -3 -35 -6 -62 -7 -63 11 -38 20 29 5 31 4 47 -3 47
-6 0 -11 -6 -11 -14z"/>
<path d="M9660 9200 c-9 -6 -10 -10 -3 -10 6 0 15 5 18 10 8 12 4 12 -15 0z"/>
<path d="M9610 9173 c-14 -7 -24 -18 -22 -24 1 -6 -2 -8 -7 -5 -17 11 -91 -35
-97 -60 -3 -13 -12 -25 -20 -25 -38 -4 -35 0 -33 -41 1 -23 1 -23 8 1 4 15 15
25 31 28 14 2 27 8 28 13 2 6 10 10 18 10 8 0 13 5 12 11 -2 6 3 14 11 17 9 3
11 0 6 -7 -5 -9 -1 -9 14 1 12 7 21 18 21 25 0 7 3 13 8 14 4 0 16 3 27 5 11
3 25 6 32 6 7 1 10 5 7 9 -2 5 -11 6 -19 2 -8 -3 -15 -1 -15 5 0 6 6 12 13 15
6 2 10 6 7 9 -3 3 -16 -1 -30 -9z m-40 -37 c0 -2 -15 -15 -33 -29 -23 -17 -34
-21 -34 -12 0 8 3 12 6 10 4 -2 18 5 31 16 26 19 30 21 30 15z"/>
<path d="M10153 9155 c0 -8 4 -12 8 -9 4 2 12 -4 18 -13 6 -10 11 -13 11 -7 0
6 -8 18 -18 27 -15 14 -19 15 -19 2z"/>
<path d="M10216 9117 c-14 -11 -13 -12 9 -13 14 -1 25 2 25 6 0 16 -17 19 -34
7z"/>
<path d="M3025 9061 c-5 -23 -10 -27 -29 -24 -30 6 -56 -29 -56 -73 0 -37 15
-52 51 -52 25 0 27 5 38 72 7 39 15 79 17 89 3 9 1 17 -5 17 -5 0 -12 -13 -16
-29z m-14 -88 c-5 -29 -11 -39 -29 -41 -19 -3 -22 1 -22 32 0 40 25 72 44 56
9 -6 11 -23 7 -47z"/>
<path d="M3256 9067 c-32 -32 -43 -100 -22 -132 20 -30 49 -32 76 -5 27 27 27
70 1 70 -11 0 -23 -4 -26 -10 -3 -5 1 -10 9 -10 9 0 16 -6 16 -12 0 -25 -18
-40 -41 -36 -22 3 -24 7 -23 56 1 29 7 59 14 67 16 19 49 19 56 0 7 -16 24
-21 24 -6 0 15 -30 41 -46 41 -8 0 -25 -11 -38 -23z"/>
<path d="M3516 9082 c-2 -4 4 -8 14 -8 10 0 16 4 14 8 -3 4 -9 8 -14 8 -5 0
-11 -4 -14 -8z"/>
<path d="M10283 9074 c8 -14 -20 -27 -35 -17 -7 3 -8 1 -4 -5 9 -15 43 -15 52
-1 3 6 1 16 -6 22 -9 9 -11 9 -7 1z"/>
<path d="M3600 9055 c0 -8 -3 -15 -7 -15 -12 0 -9 -123 2 -127 6 -2 10 19 11
47 0 28 5 55 11 61 12 12 6 49 -8 49 -5 0 -9 -7 -9 -15z"/>
<path d="M3065 9015 c-3 -14 -7 -36 -10 -48 -7 -36 15 -60 47 -52 19 5 28 15
32 36 3 16 9 43 12 59 3 17 1 30 -4 30 -5 0 -13 -24 -18 -52 -8 -44 -13 -54
-32 -56 -22 -3 -22 -1 -16 52 7 56 -1 78 -11 31z"/>
<path d="M3371 9026 c-7 -8 -14 -29 -17 -48 -12 -77 64 -94 87 -19 8 29 8 43
0 60 -13 24 -53 28 -70 7z m59 -40 c0 -30 -27 -66 -45 -60 -20 8 -19 68 1 89
20 19 44 4 44 -29z"/>
<path d="M3474 9017 c-3 -13 -4 -41 -2 -63 3 -36 5 -39 35 -39 28 -1 32 3 38
35 3 19 8 47 11 63 3 15 1 27 -4 27 -5 0 -13 -24 -18 -52 -8 -44 -13 -54 -32
-56 -22 -3 -22 -1 -16 52 7 56 -1 76 -12 33z"/>
<path d="M3670 9025 c-6 -8 -14 -31 -17 -53 -6 -48 13 -68 54 -56 l28 8 -32 4
c-25 2 -33 8 -33 23 0 15 7 19 35 19 36 0 44 15 29 54 -8 20 -48 21 -64 1z
m48 -18 c3 -12 -4 -17 -22 -17 -28 0 -33 9 -14 28 15 15 32 10 36 -11z"/>
<path d="M3775 9030 c-2 -3 -6 -32 -10 -65 -5 -43 -3 -56 4 -45 6 8 11 27 11
43 0 15 9 36 20 47 11 11 20 22 20 24 0 7 -41 3 -45 -4z"/>
<path d="M10288 9028 c-9 -5 -6 -7 9 -5 12 2 25 6 28 8 8 9 -23 6 -37 -3z"/>
<path d="M9383 8983 c4 -3 1 -13 -6 -22 -11 -14 -10 -14 5 -2 16 12 16 31 1
31 -4 0 -3 -3 0 -7z"/>
<path d="M9137 8878 l-34 -63 39 -3 c21 -2 56 -2 77 0 l39 3 -36 62 c-21 35
-40 63 -44 63 -3 0 -22 -28 -41 -62z"/>
<path d="M9286 8928 c3 -5 10 -6 15 -3 13 9 11 12 -6 12 -8 0 -12 -4 -9 -9z"/>
<path d="M9309 8903 c-13 -16 -12 -17 4 -4 9 7 17 15 17 17 0 8 -8 3 -21 -13z"/>
<path d="M3070 8771 c-13 -25 -3 -27 22 -4 13 12 22 13 29 6 16 -16 7 -47 -17
-57 l-22 -10 21 -16 c13 -11 18 -23 14 -34 -10 -26 -36 -31 -52 -10 -13 17
-14 17 -15 2 0 -28 33 -40 59 -21 16 11 22 24 20 47 -1 17 1 39 5 48 4 9 6 27
4 40 -4 32 -52 38 -68 9z"/>
<path d="M3189 8769 c-6 -12 -8 -30 -6 -41 3 -11 -1 -31 -9 -44 -23 -33 -10
-64 26 -64 35 0 55 30 45 67 -3 14 -1 31 6 39 6 8 8 25 5 39 -8 32 -50 35 -67
4z m51 -24 c0 -22 -22 -40 -34 -28 -11 11 -6 51 7 56 19 7 27 -2 27 -28z m-15
-81 c0 -22 -5 -29 -20 -29 -23 0 -32 30 -14 51 18 22 34 11 34 -22z"/>
<path d="M3315 8766 c-45 -45 -46 -146 -1 -146 30 0 47 21 48 58 1 39 -10 55
-34 49 -27 -8 -20 25 10 38 12 5 22 13 22 17 0 15 -21 8 -45 -16z m33 -81 c4
-26 -21 -60 -36 -51 -13 8 -16 58 -5 70 13 13 38 1 41 -19z"/>
<path d="M3410 8771 c-13 -25 -5 -27 17 -5 14 13 18 14 30 1 18 -18 2 -57 -23
-57 -12 0 -11 -4 6 -18 19 -16 21 -22 11 -40 -14 -27 -29 -28 -48 -4 -13 16
-14 16 -11 -3 4 -24 42 -32 64 -14 9 7 14 26 13 43 -1 17 1 39 5 48 4 9 6 27
4 40 -4 32 -52 38 -68 9z"/>
<path d="M4956 8696 c-20 -35 -36 -67 -36 -70 0 -3 34 -6 75 -6 41 0 75 3 75
7 0 8 -70 133 -75 133 -2 0 -19 -29 -39 -64z"/>
<path d="M3584 8740 c-17 -7 -24 -21 -29 -60 -8 -56 0 -80 10 -34 14 62 22 79
40 83 16 3 17 -2 11 -53 -8 -70 9 -75 19 -5 4 30 13 53 22 56 25 10 34 -10 24
-60 -4 -26 -5 -47 -1 -47 12 0 20 28 20 75 0 44 -15 61 -40 45 -8 -5 -22 -4
-31 1 -20 10 -17 10 -45 -1z"/>
<path d="M8985 8720 c-10 -17 -33 -160 -25 -160 11 0 20 27 20 58 0 57 18 56
25 -1 4 -32 11 -57 16 -57 5 0 18 17 28 38 38 70 42 71 35 7 -4 -33 -3 -57 1
-53 7 7 33 132 34 166 2 31 -22 7 -51 -53 -18 -36 -35 -65 -39 -65 -4 0 -10
27 -14 60 -7 59 -17 80 -30 60z"/>
<path d="M9380 8695 c0 -8 -3 -15 -7 -15 -12 0 -9 -123 2 -127 6 -2 10 18 11
47 0 28 5 55 11 61 12 12 6 49 -8 49 -5 0 -9 -7 -9 -15z"/>
<path d="M9146 8658 c-31 -43 -16 -108 24 -108 37 0 70 73 50 110 -14 27 -55
26 -74 -2z m60 -14 c9 -34 -10 -74 -36 -74 -16 0 -20 7 -20 31 0 62 43 95 56
43z"/>
<path d="M9256 8663 c-3 -7 -8 -36 -11 -65 -7 -59 8 -48 19 13 14 80 54 69 43
-11 -3 -22 -1 -40 3 -40 11 0 24 85 16 105 -7 19 -63 17 -70 -2z"/>
<path d="M4735 8528 c-6 -18 -25 -129 -25 -145 0 -28 19 -11 22 20 3 27 7 32
33 35 57 7 83 53 49 86 -18 19 -73 21 -79 4z m73 -31 c5 -25 -16 -47 -44 -47
-25 0 -28 9 -18 48 5 18 13 22 33 20 15 -2 27 -10 29 -21z"/>
<path d="M4980 8530 c0 -5 5 -10 10 -10 6 0 10 5 10 10 0 6 -4 10 -10 10 -5 0
-10 -4 -10 -10z"/>
<path d="M5151 8523 c0 -6 -8 -19 -17 -27 -8 -9 -11 -16 -5 -16 6 0 7 -21 4
-55 -5 -49 -4 -55 13 -55 13 0 15 3 7 11 -15 15 -5 81 15 97 9 6 11 12 5 12
-7 0 -14 10 -16 23 -2 12 -5 17 -6 10z"/>
<path d="M4873 8485 c-45 -32 -37 -115 12 -115 46 0 74 80 39 114 -19 20 -24
20 -51 1z m45 -46 c2 -23 -2 -40 -12 -48 -22 -19 -46 -6 -46 24 0 68 53 89 58
24z"/>
<path d="M5043 8493 c-16 -3 -23 -14 -28 -46 -4 -23 -9 -50 -11 -59 -3 -10 -1
-18 5 -18 5 0 13 20 16 45 13 85 60 87 49 2 -8 -61 5 -57 16 5 8 40 -2 80 -18
77 -4 -1 -17 -4 -29 -6z"/>
<path d="M5223 8485 c-27 -19 -41 -79 -23 -100 14 -17 56 -20 65 -6 3 6 -7 9
-22 8 -22 -2 -29 3 -31 21 -3 19 1 22 32 22 31 0 36 3 36 23 0 21 -16 47 -30
47 -3 0 -15 -7 -27 -15z m42 -25 c0 -9 -11 -16 -28 -18 -26 -3 -28 -2 -17 18
13 23 45 23 45 0z"/>
<path d="M4965 8448 c-3 -24 -9 -51 -11 -60 -3 -10 -1 -18 5 -18 5 0 12 14 15
30 3 17 9 44 12 60 3 17 1 30 -4 30 -6 0 -13 -19 -17 -42z"/>
<path d="M9358 8413 c-2 -20 -9 -28 -23 -29 -11 -1 -25 -2 -32 -3 -16 -2 -36
-67 -29 -97 5 -20 13 -24 40 -24 34 0 35 1 45 53 21 109 23 127 13 127 -6 0
-12 -12 -14 -27z m-16 -83 c-5 -60 -52 -82 -52 -24 0 36 19 66 38 62 13 -3 16
-13 14 -38z"/>
<path d="M8895 8408 c-13 -64 -24 -142 -20 -146 10 -10 16 6 22 56 7 63 19 59
28 -8 4 -28 10 -50 14 -50 3 0 21 26 39 58 l33 57 -6 -40 c-3 -22 -8 -48 -11
-57 -3 -10 -1 -18 5 -18 6 0 11 2 11 4 0 2 7 40 15 83 8 43 15 79 15 81 0 1
-6 2 -13 2 -7 0 -28 -30 -47 -67 l-34 -68 -9 55 c-5 30 -11 61 -13 68 -6 20
-23 14 -29 -10z"/>
<path d="M9410 8420 c0 -5 5 -10 10 -10 6 0 10 5 10 10 0 6 -4 10 -10 10 -5 0
-10 -4 -10 -10z"/>
<path d="M9456 8398 c-11 -12 -15 -23 -9 -25 7 -3 7 -20 2 -49 -5 -26 -6 -50
-3 -55 12 -20 19 -6 21 42 0 29 6 55 12 59 7 4 9 15 4 28 l-8 22 -19 -22z"/>
<path d="M9074 8376 c-10 -8 -15 -18 -11 -22 4 -5 12 -2 17 5 10 17 44 7 38
-11 -3 -7 -19 -16 -36 -20 -27 -7 -32 -13 -32 -38 0 -28 2 -30 35 -27 37 2 36
0 50 71 5 24 -11 56 -28 56 -7 0 -22 -6 -33 -14z m36 -70 c0 -22 -29 -41 -42
-28 -8 8 -8 15 2 27 16 19 40 20 40 1z"/>
<path d="M9175 8378 c-3 -7 -6 -35 -7 -63 l-3 -50 36 -1 c37 -2 37 -2 43 47 4
27 9 57 12 67 5 14 3 14 -10 -2 -9 -11 -16 -32 -16 -47 0 -30 -26 -63 -42 -53
-6 4 -7 27 -3 60 6 50 1 71 -10 42z"/>
<path d="M9395 8338 c-3 -24 -9 -51 -11 -60 -3 -10 -1 -18 4 -18 5 0 13 17 17
38 3 20 9 47 12 60 3 12 1 22 -5 22 -6 0 -13 -19 -17 -42z"/>
<path d="M4692 8170 c-17 -99 -17 -100 18 -100 40 0 74 34 66 66 -4 13 -2 33
4 45 19 35 3 59 -39 59 l-37 0 -12 -70z m73 30 c0 -20 -6 -26 -27 -28 -30 -4
-31 -1 -22 36 9 33 49 27 49 -8z m-7 -77 c-2 -22 -9 -29 -30 -31 -24 -3 -28 0
-28 21 0 30 7 37 37 37 21 0 24 -4 21 -27z"/>
<path d="M4827 8193 c-14 -14 -6 -23 12 -14 20 11 31 5 31 -15 0 -7 -14 -15
-30 -19 -20 -4 -32 -14 -36 -30 -8 -34 2 -45 40 -43 33 1 34 2 41 54 3 30 4
58 0 64 -7 11 -48 14 -58 3z m37 -86 c-8 -21 -44 -23 -44 -2 0 17 32 37 43 26
4 -4 5 -15 1 -24z"/>
<path d="M4927 8129 c5 -63 4 -74 -12 -85 -19 -14 -15 -31 5 -19 16 10 82 156
76 169 -2 6 -12 -8 -22 -31 -11 -24 -22 -43 -26 -43 -5 0 -8 18 -8 40 0 22 -5
40 -10 40 -7 0 -8 -26 -3 -71z"/>
<path d="M5025 8176 c-9 -14 -15 -39 -13 -57 4 -41 28 -57 60 -41 20 10 21 12
3 11 -38 -2 -45 1 -45 21 0 16 7 20 35 20 30 0 35 3 35 23 0 49 -49 63 -75 23z
m52 -1 c7 -19 2 -24 -26 -30 -23 -4 -28 14 -9 33 16 16 27 15 35 -3z"/>
<path d="M5137 8193 c-10 -18 -18 -85 -12 -104 5 -16 14 -19 38 -16 31 3 32 6
43 65 6 34 8 62 3 62 -4 0 -11 -17 -14 -37 -11 -64 -16 -73 -37 -73 -19 0 -20
4 -14 55 6 51 4 66 -7 48z"/>
<path d="M5255 8167 c5 -29 1 -43 -15 -64 -11 -14 -17 -29 -14 -32 3 -3 13 4
21 17 9 12 19 22 23 22 4 0 11 -10 15 -22 3 -13 8 -18 11 -12 2 6 1 22 -4 35
-7 18 -5 31 10 52 11 16 17 31 14 34 -4 4 -14 -4 -23 -16 l-16 -24 -14 24
c-13 23 -14 22 -8 -14z"/>
<path d="M8861 8051 c-23 -44 -41 -86 -40 -93 0 -7 20 27 45 76 25 48 43 90
40 93 -2 3 -23 -31 -45 -76z"/>
<path d="M8985 8098 c-3 -18 -9 -54 -14 -81 -5 -26 -5 -50 0 -52 4 -3 11 11
14 32 14 87 18 91 29 30 6 -32 15 -59 20 -59 6 0 22 24 38 54 l27 53 -6 -60
c-8 -80 6 -64 23 27 17 89 17 88 1 88 -7 0 -26 -27 -42 -60 -16 -33 -32 -60
-36 -60 -4 0 -10 27 -14 60 -8 67 -30 82 -40 28z"/>
<path d="M9390 8105 c0 -8 -3 -15 -7 -15 -12 0 -9 -123 2 -127 6 -2 10 18 11
47 0 28 5 55 11 61 12 12 6 49 -8 49 -5 0 -9 -7 -9 -15z"/>
<path d="M9156 8068 c-19 -27 -21 -79 -4 -96 40 -40 101 33 78 94 -12 31 -53
32 -74 2z m64 -32 c0 -30 -27 -66 -45 -60 -20 8 -19 68 1 89 20 19 44 4 44
-29z"/>
<path d="M9266 8070 c-12 -41 -18 -112 -9 -107 6 4 13 25 16 47 11 87 53 89
44 2 -4 -38 -3 -52 5 -44 5 5 11 34 12 64 l1 53 -33 0 c-20 1 -34 -5 -36 -15z"/>
<path d="M9455 8066 c-33 -50 -3 -121 41 -101 17 8 16 9 -8 13 -20 2 -28 9
-28 23 0 15 7 19 35 19 30 0 35 3 35 23 0 49 -49 63 -75 23z m53 -9 c3 -12 -4
-17 -22 -17 -28 0 -33 9 -14 28 15 15 32 10 36 -11z"/>
<path d="M4703 7887 l-42 -62 29 -3 c22 -2 30 -9 30 -23 0 -10 5 -19 10 -19 6
0 10 9 10 20 0 11 3 20 8 20 4 0 8 29 9 65 2 36 -1 65 -5 65 -4 -1 -26 -29
-49 -63z m32 -21 c-5 -26 -12 -36 -26 -36 -24 0 -24 5 2 47 26 41 33 38 24
-11z"/>
<path d="M4806 7928 c-21 -30 -11 -36 12 -8 11 13 24 20 30 16 22 -14 12 -48
-28 -96 -22 -26 -40 -51 -40 -54 0 -3 21 -5 48 -4 36 1 39 2 15 5 -18 2 -33 7
-33 9 0 3 16 26 35 51 37 48 43 71 23 91 -19 19 -45 14 -62 -10z"/>
<path d="M4921 7913 c-15 -52 -15 -52 17 -50 24 2 27 -2 27 -27 0 -40 -29 -58
-49 -31 -14 18 -15 18 -16 3 0 -10 9 -22 20 -28 17 -9 25 -6 45 14 14 14 25
34 25 45 0 25 -28 54 -46 47 -15 -6 -18 3 -8 28 4 10 18 16 35 16 16 0 29 5
29 10 0 6 -16 10 -35 10 -31 0 -35 -3 -44 -37z"/>
<path d="M5042 7938 c-7 -7 -12 -29 -12 -49 0 -21 -4 -41 -10 -44 -16 -10 -12
-53 6 -63 38 -21 71 13 63 64 -2 11 2 29 9 42 24 42 -23 83 -56 50z m48 -27
c0 -17 -18 -41 -31 -41 -13 0 -19 32 -9 50 12 23 40 16 40 -9z m-15 -71 c7
-23 -10 -50 -31 -50 -14 0 -20 51 -7 63 13 13 32 7 38 -13z"/>
<path d="M5210 7901 c-20 -6 -26 -15 -32 -51 -9 -49 -6 -88 4 -60 3 8 10 33
14 55 6 27 15 41 28 43 17 4 19 -1 13 -52 -7 -70 9 -74 18 -5 4 30 13 53 22
56 25 10 34 -10 24 -60 -8 -47 1 -67 13 -24 18 67 0 118 -34 97 -8 -5 -21 -5
-29 -1 -9 4 -27 5 -41 2z"/>
<path d="M9358 7823 c-2 -21 -9 -28 -24 -28 -42 0 -74 -57 -59 -105 10 -30 73
-29 80 3 7 33 25 139 25 149 0 21 -19 5 -22 -19z m-16 -88 c-5 -58 -44 -75
-50 -22 -4 35 15 69 36 65 13 -3 16 -13 14 -43z"/>
<path d="M8895 7818 c-13 -64 -24 -142 -20 -146 10 -10 16 6 22 56 7 63 19 59
28 -8 4 -28 11 -50 16 -50 5 0 22 26 39 58 l31 57 -6 -40 c-3 -22 -8 -48 -11
-57 -3 -10 -1 -18 5 -18 5 0 15 26 21 58 6 31 13 69 16 85 10 51 -21 29 -56
-40 l-34 -68 -9 55 c-5 30 -11 61 -13 68 -6 20 -23 14 -29 -10z"/>
<path d="M9410 7830 c0 -5 5 -10 10 -10 6 0 10 5 10 10 0 6 -4 10 -10 10 -5 0
-10 -4 -10 -10z"/>
<path d="M9457 7807 c-10 -15 -13 -27 -9 -27 6 0 6 -19 1 -46 -5 -25 -6 -50
-3 -55 12 -20 19 -6 22 43 1 29 6 54 10 57 5 3 6 17 2 30 l-6 24 -17 -26z"/>
<path d="M9074 7786 c-10 -8 -15 -18 -11 -22 4 -5 12 -2 17 5 10 17 43 6 38
-12 -3 -6 -13 -14 -24 -16 -29 -5 -44 -21 -44 -48 0 -21 4 -23 35 -21 28 2 37
7 40 25 3 13 7 34 10 47 3 15 -1 31 -11 40 -19 20 -25 20 -50 2z m36 -76 c0
-24 -26 -38 -42 -22 -8 8 -8 15 2 27 18 21 40 19 40 -5z"/>
<path d="M9166 7740 c-8 -62 -4 -70 38 -68 32 1 33 2 42 60 10 57 0 84 -11 31
-12 -59 -21 -78 -39 -81 -17 -4 -18 1 -12 52 3 31 2 56 -3 56 -4 0 -11 -23
-15 -50z"/>
<path d="M9395 7748 c-3 -24 -9 -51 -11 -60 -3 -10 -1 -18 4 -18 5 0 13 17 17
38 3 20 9 47 12 60 3 12 1 22 -5 22 -6 0 -13 -19 -17 -42z"/>
<path d="M8888 7485 c-21 -29 -38 -59 -38 -64 0 -6 14 -11 31 -11 26 0 29 -3
24 -20 -4 -11 -2 -20 4 -20 6 0 11 9 11 20 0 11 3 20 8 20 4 0 8 18 8 39 1 22
4 51 8 65 11 44 -16 30 -56 -29z m28 -30 c-4 -17 -13 -25 -27 -25 -20 0 -20 2
-7 23 8 12 18 29 23 37 12 20 19 -3 11 -35z"/>
<path d="M9001 7483 c-23 -31 -41 -60 -41 -65 0 -4 14 -8 30 -8 24 0 30 -4 30
-22 0 -21 2 -21 19 7 10 17 15 32 10 35 -4 3 -3 25 1 50 12 58 12 60 1 60 -6
0 -28 -25 -50 -57z m30 -15 c-4 -20 -14 -34 -24 -36 -23 -5 -21 10 4 42 26 33
28 33 20 -6z"/>
<path d="M9118 7523 c-27 -31 -43 -99 -29 -129 24 -54 92 -1 77 60 -6 23 -11
27 -31 23 -14 -2 -25 -1 -25 2 0 12 24 38 45 49 20 11 20 11 -1 12 -11 0 -28
-8 -36 -17z m27 -94 c0 -27 -4 -34 -20 -34 -24 0 -33 38 -14 61 19 23 34 11
34 -27z"/>
<path d="M9216 7509 c-9 -47 -8 -52 14 -46 31 8 46 -27 25 -60 -16 -24 -17
-24 -37 -6 -20 18 -20 17 -17 -2 5 -26 42 -31 63 -9 11 11 16 29 14 53 -2 29
-8 37 -25 39 -39 6 -26 47 17 55 19 3 16 5 -11 6 -33 1 -37 -2 -43 -30z"/>
<path d="M9366 7471 c-17 -84 -18 -104 -8 -97 6 3 14 27 18 52 6 44 26 66 44
48 5 -5 5 -28 1 -52 -5 -23 -5 -45 -1 -47 9 -5 20 29 20 62 0 25 27 56 42 47
6 -4 7 -27 3 -61 -4 -34 -3 -53 3 -49 11 7 24 90 16 110 -4 10 -23 14 -69 13
-61 0 -64 -2 -69 -26z"/>
<path d="M8323 7405 c-34 -15 -42 -35 -20 -53 8 -7 18 -7 27 -2 8 6 29 9 45 9
27 0 28 -1 8 -9 -31 -12 -70 -90 -51 -101 23 -15 37 -10 53 21 9 18 26 32 43
36 54 12 62 16 62 29 0 8 -4 16 -10 20 -5 3 -7 12 -3 20 16 42 -83 61 -154 30z"/>
<path d="M8557 7413 c-12 -12 -7 -50 7 -63 12 -9 32 -9 90 1 77 12 103 27 92
54 -4 12 -24 15 -94 15 -49 0 -92 -3 -95 -7z"/>
<path d="M8210 7285 c-19 -50 -41 -146 -35 -155 3 -6 15 -10 25 -10 14 0 22
11 30 43 6 23 16 59 22 79 8 29 8 41 -2 53 -18 21 -29 19 -40 -10z"/>
<path d="M8330 7157 c0 -23 84 -157 99 -157 5 0 14 7 21 15 10 12 5 26 -30 80
-53 82 -90 107 -90 62z"/>
<path d="M8121 6968 c-22 -78 -22 -83 -5 -95 24 -18 31 -8 55 77 22 79 20 100
-9 100 -15 0 -23 -16 -41 -82z"/>
<path d="M8522 6988 c-17 -17 -15 -36 6 -42 9 -3 30 -26 45 -51 29 -45 62 -60
73 -32 7 19 -56 114 -84 126 -28 13 -26 13 -40 -1z"/>
<path d="M3603 6935 c0 -8 5 -11 10 -8 7 4 8 -1 3 -12 -7 -18 -6 -18 14 0 21
19 27 30 10 20 -6 -4 -17 -2 -24 4 -9 8 -13 7 -13 -4z"/>
<path d="M8701 6829 c-14 -6 -21 -15 -18 -23 3 -8 0 -20 -8 -26 -17 -14 -30
-90 -20 -119 3 -12 12 -21 20 -21 13 0 35 49 35 81 0 9 11 31 25 47 37 44 17
79 -34 61z"/>
<path d="M1734 6808 c-15 -19 -64 -105 -64 -112 0 -3 34 -6 75 -6 l75 0 -24
48 c-37 72 -50 87 -62 70z"/>
<path d="M8035 6730 c-19 -38 -35 -76 -35 -84 0 -11 20 -26 36 -26 9 0 81 156
77 168 -3 6 -13 12 -24 12 -13 0 -29 -20 -54 -70z"/>
<path d="M8589 6613 c-19 -5 -65 -143 -55 -168 13 -36 39 -10 64 63 25 76 22
111 -9 105z"/>
<path d="M1715 6600 c-3 -5 -1 -10 4 -10 6 0 11 5 11 10 0 6 -2 10 -4 10 -3 0
-8 -4 -11 -10z"/>
<path d="M1766 6599 c-8 -26 -26 -132 -26 -153 0 -12 4 -16 9 -10 10 11 35
164 27 171 -3 3 -7 0 -10 -8z"/>
<path d="M1816 6593 c-7 -26 -26 -134 -26 -152 0 -9 3 -11 9 -5 10 11 36 162
28 170 -3 3 -8 -3 -11 -13z"/>
<path d="M2095 6583 c-6 -28 -11 -32 -30 -27 -36 9 -57 -20 -53 -75 3 -45 3
-46 38 -46 l34 1 13 69 c14 75 13 137 -2 78z m-19 -48 c4 -8 3 -31 0 -51 -6
-29 -11 -35 -29 -32 -18 2 -22 9 -20 36 2 50 36 82 49 47z"/>
<path d="M1305 6520 c-21 -44 -36 -82 -32 -86 3 -4 12 5 18 20 17 37 63 37 78
-1 9 -23 10 -13 5 46 -6 76 -11 101 -23 101 -4 0 -24 -36 -46 -80z m54 -7 c1
-17 -5 -23 -19 -23 -23 0 -25 17 -8 55 11 24 13 25 19 8 4 -10 8 -28 8 -40z"/>
<path d="M1421 6510 c-13 -62 -14 -83 -2 -75 11 6 26 113 18 121 -3 3 -10 -18
-16 -46z"/>
<path d="M1482 6547 c-33 -41 -19 -124 19 -114 15 4 19 1 17 -11 -2 -10 -15
-18 -31 -20 -15 -2 -25 -8 -22 -13 8 -11 36 -12 53 0 12 7 41 112 42 151 0 19
-63 25 -78 7z m53 -46 c-8 -43 -18 -56 -39 -48 -21 8 -21 55 0 78 26 29 47 13
39 -30z"/>
<path d="M1585 6516 c-10 -67 -5 -81 33 -81 35 -1 37 2 48 80 8 61 -7 52 -21
-13 -7 -33 -16 -48 -29 -50 -17 -4 -18 1 -14 52 5 66 -8 75 -17 12z"/>
<path d="M1707 6553 c-3 -5 -8 -35 -12 -68 -8 -74 9 -54 20 23 6 48 3 64 -8
45z"/>
<path d="M1872 6552 c-17 -11 -32 -66 -25 -92 6 -22 44 -37 65 -24 9 6 4 10
-17 14 -18 3 -31 12 -33 23 -3 14 4 17 33 17 35 0 36 1 33 33 -3 33 -29 47
-56 29z m48 -33 c0 -5 -11 -9 -25 -9 -27 0 -32 9 -13 28 12 12 38 -1 38 -19z"/>
<path d="M2140 6545 c-7 -9 -14 -34 -14 -57 -1 -49 20 -68 56 -50 20 10 21 12
3 11 -38 -2 -45 1 -45 21 0 16 7 20 36 20 34 0 35 1 32 33 -2 26 -8 33 -29 35
-15 2 -31 -4 -39 -13z m48 -18 c3 -12 -4 -17 -23 -17 -23 0 -25 2 -15 21 13
23 33 21 38 -4z"/>
<path d="M7917 6485 c-37 -75 -39 -105 -8 -105 20 0 98 151 87 169 -18 29 -43
9 -79 -64z"/>
<path d="M6886 6384 c-6 -16 67 -134 83 -134 5 0 14 6 20 14 10 11 10 20 1 37
-10 19 -10 21 3 16 66 -25 99 -30 108 -16 16 25 4 33 -87 66 -103 37 -120 39
-128 17z"/>
<path d="M8420 6329 c-44 -37 -60 -57 -58 -72 5 -33 20 -30 73 13 89 72 97 81
84 96 -19 23 -34 17 -99 -37z"/>
<path d="M7776 6294 c-21 -24 -46 -44 -56 -44 -24 0 -31 -10 -19 -31 12 -23
45 -25 53 -4 3 8 12 15 21 15 20 0 84 70 85 93 0 32 -43 17 -84 -29z"/>
<path d="M1252 6241 c-17 -101 -17 -101 23 -101 40 0 71 35 60 69 -3 11 0 29
7 40 18 30 0 55 -44 59 l-35 3 -11 -70z m78 29 c0 -23 -37 -47 -52 -32 -6 6
-7 19 -3 31 9 28 55 30 55 1z m-12 -74 c4 -20 -21 -46 -45 -46 -14 0 -19 51
-6 64 13 13 48 1 51 -18z"/>
<path d="M1380 6300 c0 -5 5 -10 10 -10 6 0 10 5 10 10 0 6 -4 10 -10 10 -5 0
-10 -4 -10 -10z"/>
<path d="M7176 6295 c-11 -29 6 -42 78 -60 79 -20 106 -16 106 14 0 21 -18 31
-60 31 -15 0 -47 7 -70 15 -23 8 -44 15 -45 15 -2 0 -5 -7 -9 -15z"/>
<path d="M1443 6255 c-27 -19 -41 -79 -23 -100 16 -19 54 -19 69 -1 21 26 25
81 6 99 -20 21 -25 21 -52 2z m45 -40 c4 -37 -19 -71 -42 -62 -32 13 -12 101
22 95 11 -2 18 -15 20 -33z"/>
<path d="M1563 6262 c-17 -2 -24 -14 -32 -53 -13 -61 -14 -69 -2 -69 5 0 12
19 15 43 8 53 20 72 40 64 12 -5 14 -17 10 -59 -3 -38 -2 -47 5 -33 14 30 13
102 -1 107 -7 2 -23 2 -35 0z"/>
<path d="M1673 6263 c-17 -3 -23 -15 -31 -61 -6 -31 -8 -59 -6 -61 8 -9 16 9
21 48 6 43 25 67 43 56 8 -5 9 -24 5 -57 -5 -32 -4 -48 2 -45 16 10 25 98 12
113 -6 8 -14 13 -18 13 -3 -1 -16 -4 -28 -6z"/>
<path d="M1775 6254 c-9 -9 -13 -19 -10 -22 3 -3 11 0 17 6 18 18 38 14 38 -8
0 -14 -7 -20 -24 -20 -28 0 -49 -22 -44 -47 2 -13 13 -18 39 -19 l36 -2 6 51
c9 70 -19 99 -58 61z m36 -76 c-11 -29 -41 -37 -41 -10 0 23 8 32 31 32 15 0
17 -4 10 -22z"/>
<path d="M1884 6249 c-19 -21 -18 -21 9 -44 15 -13 27 -28 27 -34 0 -17 -20
-23 -36 -10 -17 14 -33 4 -17 -12 6 -6 23 -9 39 -7 40 4 45 40 10 64 -14 9
-26 20 -26 25 0 16 32 23 40 8 5 -7 13 -10 17 -5 7 7 -22 36 -37 36 -4 0 -15
-9 -26 -21z"/>
<path d="M1998 6259 c-25 -14 -22 -40 7 -64 18 -15 22 -24 15 -35 -8 -12 -13
-13 -30 -2 -26 16 -31 15 -23 -4 4 -10 16 -14 37 -12 43 4 47 35 10 65 -23 18
-26 25 -16 35 10 10 17 10 32 0 16 -10 20 -10 20 2 0 8 -7 17 -16 20 -19 7
-15 8 -36 -5z"/>
<path d="M2095 6254 c-9 -9 -13 -19 -10 -22 3 -4 10 0 15 7 10 17 40 7 40 -14
0 -9 -9 -15 -24 -15 -28 0 -49 -22 -44 -47 2 -13 13 -18 40 -19 36 -2 36 -2
40 45 7 73 -19 103 -57 65z m33 -76 c-4 -29 -38 -38 -38 -10 0 22 8 32 27 32
9 0 13 -8 11 -22z"/>
<path d="M7437 6250 c-8 -30 20 -40 107 -40 78 0 94 7 73 32 -8 11 -38 18 -93
23 -77 6 -82 5 -87 -15z"/>
<path d="M8245 6246 c-29 -44 -30 -92 -4 -131 15 -22 32 -35 47 -35 28 0 29
28 3 62 -19 24 -19 68 0 68 17 0 9 39 -11 50 -16 8 -22 6 -35 -14z"/>
<path d="M1377 6253 c-11 -18 -19 -115 -9 -109 6 3 13 29 17 57 7 47 3 71 -8
52z"/>
<path d="M2195 6191 c6 -64 5 -70 -17 -86 -20 -15 -21 -16 -3 -13 18 3 41 41
81 136 21 47 2 39 -23 -10 l-22 -43 0 43 c-1 23 -6 42 -12 42 -8 0 -9 -21 -4
-69z"/>
<path d="M7020 6195 c-21 -25 13 -58 83 -77 62 -18 62 -18 80 4 22 26 14 32
-52 43 -24 4 -52 16 -62 26 -23 23 -33 24 -49 4z"/>
<path d="M7737 6135 c-20 -35 -37 -67 -37 -70 0 -3 34 -5 75 -5 41 0 75 3 75
7 0 7 -69 133 -73 133 -2 0 -19 -29 -40 -65z"/>
<path d="M7269 6120 c-10 -6 -14 -29 -14 -90 0 -69 3 -85 18 -94 27 -17 37 8
37 100 0 84 -9 102 -41 84z"/>
<path d="M8340 6025 c-18 -21 2 -63 32 -70 83 -19 118 -22 129 -9 20 25 2 42
-51 49 -30 4 -60 15 -71 26 -23 23 -23 23 -39 4z"/>
<path d="M1574 6012 c-17 -11 -31 -43 -38 -90 -7 -49 6 -82 34 -82 27 0 47 35
55 96 5 40 3 55 -10 68 -18 18 -25 19 -41 8z m30 -75 c-1 -65 -18 -95 -41 -75
-11 9 -13 24 -8 62 12 94 51 103 49 13z"/>
<path d="M1788 6001 c-12 -11 -19 -23 -15 -28 5 -4 13 0 18 10 11 20 38 23 40
5 3 -29 -5 -45 -42 -89 -21 -26 -39 -50 -39 -53 0 -3 20 -6 45 -6 25 0 45 5
45 10 0 6 -14 10 -30 10 l-31 0 36 46 c39 52 45 88 16 104 -15 7 -25 5 -43 -9z"/>
<path d="M1450 5951 c-22 -33 -40 -62 -40 -65 0 -4 13 -6 29 -6 23 0 31 -5 34
-22 l4 -23 8 23 c4 12 10 22 14 22 3 0 7 29 8 65 0 36 -3 65 -8 65 -4 0 -26
-27 -49 -59z m33 -18 c-4 -24 -11 -33 -24 -33 -24 0 -24 5 2 42 25 35 28 33
22 -9z"/>
<path d="M1677 6003 c-3 -5 -8 -23 -12 -41 -6 -29 -4 -33 12 -31 41 7 58 -34
27 -66 -15 -15 -18 -15 -35 1 -17 16 -19 16 -19 1 0 -21 45 -33 64 -18 32 27
22 101 -14 101 -41 0 -19 46 25 53 28 4 27 4 -7 6 -20 0 -39 -2 -41 -6z"/>
<path d="M7576 5963 c-6 -21 -26 -133 -26 -145 0 -4 4 -8 9 -8 5 0 13 25 16
55 9 66 20 64 29 -5 4 -27 10 -50 14 -50 4 0 20 25 35 56 16 31 30 54 32 52 3
-3 1 -27 -4 -54 -9 -46 -7 -64 4 -52 3 2 10 31 15 64 6 32 13 69 15 82 11 47
-22 20 -55 -45 l-34 -68 -9 45 c-5 25 -11 55 -13 68 -5 26 -21 29 -28 5z"/>
<path d="M1934 5959 c-7 -11 -17 -119 -11 -119 3 0 11 24 17 54 10 51 32 77
46 55 3 -5 3 -33 -1 -61 -5 -33 -4 -48 3 -44 5 3 13 26 16 50 8 50 27 74 44
54 6 -8 7 -29 2 -58 -5 -25 -6 -47 -4 -49 10 -11 17 13 18 66 l1 58 -63 0
c-35 0 -65 -2 -68 -6z"/>
<path d="M7981 5961 c-1 -8 -9 -20 -18 -27 -11 -8 -13 -13 -5 -14 9 0 11 -14
6 -55 -6 -49 -5 -55 12 -55 13 0 15 3 7 11 -13 13 0 88 18 100 10 6 11 11 3
17 -6 4 -14 14 -17 22 -4 12 -6 12 -6 1z"/>
<path d="M7749 5919 c-15 -15 -19 -30 -17 -62 3 -37 6 -42 30 -45 32 -4 58 29
58 73 0 54 -34 71 -71 34z m52 -16 c2 -35 -3 -58 -16 -72 -23 -23 -48 4 -39
43 9 42 12 46 35 46 11 0 19 -7 20 -17z"/>
<path d="M7854 5925 c-10 -32 -20 -115 -13 -115 4 0 11 17 14 38 8 48 18 66
40 70 16 4 17 -2 11 -52 -5 -33 -4 -56 2 -56 14 0 24 102 11 115 -13 13 -60
14 -65 0z"/>
<path d="M8567 5927 c-7 -19 3 -32 39 -50 16 -8 39 -32 49 -51 14 -25 26 -36
42 -36 29 0 30 21 1 72 -32 56 -118 99 -131 65z"/>
<path d="M7190 5851 c-15 -29 -5 -43 54 -79 61 -36 65 -37 91 -18 18 13 16 16
-33 46 -40 24 -50 35 -42 45 8 9 6 14 -6 19 -29 11 -53 6 -64 -13z"/>
<path d="M8668 5718 c-9 -7 -21 -39 -28 -70 -6 -31 -17 -62 -25 -68 -19 -16
-7 -40 20 -40 32 0 43 17 59 96 12 55 12 72 2 82 -9 10 -15 10 -28 0z"/>
<path d="M7374 5708 c-4 -6 0 -16 9 -23 22 -16 21 -23 -2 -76 -21 -46 -15 -61
19 -52 39 10 68 144 34 157 -25 10 -52 7 -60 -6z"/>
<path d="M7515 5680 c-3 -5 -12 -44 -19 -86 -15 -86 -10 -94 47 -77 29 8 32
13 33 49 0 22 5 48 11 58 6 11 8 27 6 36 -7 26 -65 40 -78 20z m61 -25 c8 -20
-13 -45 -37 -45 -13 0 -19 7 -19 23 0 13 3 27 7 30 12 13 44 7 49 -8z m-17
-69 c17 -20 -3 -56 -29 -56 -15 0 -20 7 -20 28 0 43 25 57 49 28z"/>
<path d="M7621 5621 c-12 -78 -14 -118 -5 -108 6 6 32 135 33 165 1 6 -3 12
-8 12 -4 0 -13 -31 -20 -69z"/>
<path d="M7680 5625 c-14 -17 0 -21 17 -4 6 6 16 8 22 5 21 -13 11 -32 -21
-41 -28 -8 -33 -15 -33 -40 0 -28 3 -30 35 -30 34 1 35 3 42 45 3 25 4 53 1
63 -5 21 -46 23 -63 2z m40 -70 c0 -18 -5 -25 -20 -25 -35 0 -24 45 13 49 4 1
7 -10 7 -24z"/>
<path d="M7786 5623 c-3 -7 -8 -36 -11 -65 -7 -59 8 -48 19 13 14 80 54 69 43
-11 -3 -22 -1 -40 3 -40 11 0 24 85 16 105 -7 19 -63 17 -70 -2z"/>
<path d="M7900 5619 c-37 -68 7 -141 55 -93 19 20 12 32 -10 14 -40 -33 -62
28 -25 71 20 24 20 24 36 4 l16 -20 -4 20 c-5 30 -53 33 -68 4z"/>
<path d="M8048 5583 c6 -2 18 -2 25 0 6 3 1 5 -13 5 -14 0 -19 -2 -12 -5z"/>
<path d="M8522 5517 c-6 -7 -20 -37 -31 -67 -18 -47 -27 -57 -61 -72 -22 -9
-43 -24 -47 -33 -10 -28 10 -70 35 -73 18 -3 22 1 22 25 0 23 7 31 36 43 32
13 40 24 64 88 25 64 27 74 13 87 -18 18 -18 18 -31 2z"/>
<path d="M7342 5493 c-17 -6 -52 -77 -52 -103 0 -15 12 -26 44 -40 64 -29 90
-30 94 -3 3 18 -5 26 -37 39 -23 9 -41 18 -41 21 0 2 7 18 16 34 22 43 11 66
-24 52z"/>
<path d="M7575 5441 c-7 -12 12 -24 25 -16 11 7 4 25 -10 25 -5 0 -11 -4 -15
-9z"/>
<path d="M7510 5318 c-6 -40 -13 -79 -15 -85 -3 -7 0 -13 5 -13 5 0 12 17 15
38 12 73 22 82 30 24 4 -29 11 -55 16 -58 5 -2 22 22 39 56 17 33 32 60 34 60
2 0 0 -17 -5 -37 -11 -49 -11 -90 0 -77 10 11 34 154 27 161 -10 11 -26 -11
-52 -67 -15 -33 -30 -60 -34 -60 -4 0 -11 29 -15 65 -9 91 -30 87 -45 -7z"/>
<path d="M7920 5363 c-10 -12 -15 -39 -15 -77 0 -73 20 -87 21 -15 1 28 5 54
11 58 5 3 7 16 4 29 -6 22 -7 22 -21 5z"/>
<path d="M7696 5335 c-21 -21 -30 -58 -22 -90 5 -20 13 -25 37 -25 25 0 32 6
46 37 13 33 13 41 1 63 -17 31 -40 36 -62 15z m48 -49 c-2 -42 -15 -61 -38
-53 -19 8 -22 67 -4 85 24 24 43 9 42 -32z"/>
<path d="M7818 5343 c-20 -5 -24 -16 -33 -79 -9 -61 6 -50 20 14 7 33 16 48
29 50 17 4 18 -1 14 -52 -5 -66 8 -75 17 -12 11 74 1 92 -47 79z"/>
<path d="M7995 5336 c-14 -10 -19 -27 -19 -62 -1 -47 0 -49 28 -52 16 -2 33 1
39 7 7 7 1 10 -19 8 -23 -2 -30 2 -32 21 -3 19 1 22 32 22 31 0 36 3 36 23 0
42 -31 58 -65 33z m45 -26 c0 -15 -7 -20 -25 -20 -27 0 -32 9 -13 28 18 18 38
14 38 -8z"/>
<path d="M8393 5198 c-15 -19 -53 -125 -53 -147 0 -11 7 -21 15 -25 20 -7 47
4 42 18 -2 6 7 41 20 79 13 37 21 72 18 77 -9 14 -31 12 -42 -2z"/>
<path d="M7665 5170 c3 -5 12 -10 20 -10 8 0 17 5 20 10 4 6 -5 10 -20 10 -15
0 -24 -4 -20 -10z"/>
<path d="M7497 5048 c-3 -24 -9 -62 -13 -85 -6 -42 -6 -43 22 -43 47 0 74 25
74 68 0 20 1 51 2 67 3 29 1 30 -38 33 l-41 3 -6 -43z m68 2 c0 -20 -6 -26
-29 -28 -23 -3 -28 0 -22 13 3 9 6 23 6 32 0 9 8 13 23 11 16 -2 22 -10 22
-28z m-7 -77 c-2 -22 -9 -29 -30 -31 -20 -2 -28 1 -28 12 0 30 13 46 37 46 21
0 24 -4 21 -27z"/>
<path d="M7616 5023 c-17 -84 -18 -106 -8 -99 6 3 13 25 17 49 3 23 9 50 11
60 3 9 1 17 -5 17 -5 0 -12 -12 -15 -27z"/>
<path d="M7680 5040 c-8 -5 -11 -12 -7 -16 3 -4 13 -2 20 5 11 9 17 8 26 -3
11 -13 7 -18 -23 -30 -20 -8 -39 -22 -42 -31 -9 -23 14 -44 46 -42 27 2 30 6
36 54 3 28 3 56 -1 62 -8 13 -35 14 -55 1z m38 -72 c-2 -15 -11 -24 -25 -26
-28 -4 -31 22 -5 37 26 16 34 13 30 -11z"/>
<path d="M7772 4991 c-5 -31 -6 -60 -2 -65 5 -4 12 13 15 38 14 92 60 99 49 8
-8 -66 4 -64 17 3 11 60 4 75 -36 73 -31 -1 -33 -3 -43 -57z"/>
<path d="M7896 5028 c-31 -43 -16 -108 25 -108 20 0 45 28 34 38 -4 4 -10 1
-12 -5 -3 -7 -13 -13 -24 -13 -15 0 -19 7 -19 33 0 18 6 42 14 52 14 19 15 19
37 0 21 -18 22 -19 16 -2 -4 10 -7 21 -7 23 0 15 -52 0 -64 -18z"/>
<path d="M8007 5035 c-22 -21 -30 -70 -17 -94 26 -49 90 -5 90 61 0 44 -43 64
-73 33z m51 -37 c4 -43 -22 -76 -44 -57 -19 16 -18 64 2 84 24 23 39 14 42
-27z"/>
<path d="M8378 4954 c-3 -3 2 -31 12 -64 16 -52 16 -60 3 -73 -9 -8 -12 -20
-9 -26 11 -17 41 -13 61 9 17 18 17 26 8 63 -21 75 -32 97 -51 97 -10 0 -21
-3 -24 -6z"/>
<path d="M7887 4883 c-18 -5 -17 -6 2 -20 12 -8 19 -19 16 -24 -3 -5 1 -6 9
-3 11 4 16 0 16 -15 0 -25 22 -27 44 -5 22 21 20 29 -10 53 -26 21 -41 23 -77
14z"/>
<path d="M7482 4737 l-43 -62 31 -3 c22 -2 30 -8 30 -23 0 -10 5 -19 10 -19 6
0 10 9 10 20 0 11 3 20 8 20 4 0 8 29 9 65 2 36 -1 65 -5 65 -4 0 -26 -29 -50
-63z m33 -21 c-5 -26 -12 -36 -26 -36 -24 0 -24 5 2 47 26 41 33 38 24 -11z"/>
<path d="M7590 4780 c-7 -12 -9 -31 -7 -42 3 -11 -1 -31 -9 -44 -20 -30 -4
-64 31 -64 30 0 49 32 40 67 -3 14 -1 31 5 38 6 8 10 24 8 37 -4 32 -52 38
-68 8z m50 -25 c0 -22 -22 -40 -34 -28 -11 11 -6 51 7 56 19 7 27 -2 27 -28z
m-15 -81 c0 -22 -5 -29 -20 -29 -23 0 -32 30 -14 51 18 22 34 11 34 -22z"/>
<path d="M7707 4785 c-17 -16 -31 -87 -25 -126 2 -19 9 -24 33 -24 39 0 56 33
53 105 -3 47 -6 55 -24 58 -12 2 -29 -4 -37 -13z m47 -64 c-8 -56 -20 -81 -39
-81 -11 0 -15 13 -15 53 0 62 23 105 46 86 11 -9 13 -24 8 -58z"/>
<path d="M7800 4790 c0 -5 16 -10 35 -10 19 0 35 -3 35 -7 0 -3 -16 -35 -35
-71 -20 -35 -33 -67 -30 -70 3 -3 7 -3 9 -1 3 3 75 140 84 162 2 4 -19 7 -47
7 -28 0 -51 -4 -51 -10z"/>
<path d="M7984 4750 c-16 -6 -23 -21 -28 -60 -4 -29 -5 -55 -2 -58 6 -5 10 4
22 63 6 27 15 41 28 43 17 4 19 -1 13 -52 -7 -66 9 -76 18 -13 8 55 19 72 39
64 12 -5 14 -17 10 -59 -6 -59 9 -48 19 14 7 47 -11 75 -39 60 -13 -7 -26 -7
-35 -1 -17 10 -18 10 -45 -1z"/>
<path d="M8261 4679 c-57 -54 -62 -62 -48 -76 22 -23 51 -8 102 51 30 35 43
59 39 70 -10 26 -25 19 -93 -45z"/>
<path d="M7848 4578 c6 -6 18 -8 28 -6 14 3 12 5 -9 10 -19 3 -25 2 -19 -4z"/>
<path d="M8080 4579 c-13 -5 -41 -7 -61 -4 -32 6 -38 4 -44 -16 -8 -25 4 -36
50 -45 42 -8 128 29 123 53 -4 21 -33 26 -68 12z"/>
<path d="M8957 4090 c-21 -34 -37 -66 -37 -71 0 -5 34 -9 75 -9 l75 0 -29 58
c-48 91 -44 90 -84 22z"/>
<path d="M8885 3918 c-4 -14 -25 -140 -25 -151 0 -4 5 -7 10 -7 6 0 10 9 10
19 0 36 12 51 40 51 53 0 83 67 41 90 -27 14 -71 13 -76 -2z m75 -31 c0 -30
-18 -47 -48 -47 -20 0 -23 4 -18 23 3 12 6 28 6 35 0 7 13 12 30 12 25 0 30
-4 30 -23z"/>
<path d="M9020 3920 c0 -5 5 -10 10 -10 6 0 10 5 10 10 0 6 -4 10 -10 10 -5 0
-10 -4 -10 -10z"/>
<path d="M9078 3879 c-24 -13 -40 -76 -27 -101 12 -22 60 -22 67 0 3 11 1 11
-17 1 -30 -19 -45 0 -37 46 8 41 33 57 51 31 8 -10 16 -13 19 -7 6 9 -19 41
-32 41 -4 0 -15 -5 -24 -11z"/>
<path d="M9006 3850 c-3 -16 -9 -43 -12 -60 -3 -17 -1 -30 4 -30 6 0 13 19 17
43 3 23 9 50 11 60 3 9 1 17 -5 17 -5 0 -12 -13 -15 -30z"/>
<path d="M9056 3629 c-8 -22 -26 -130 -26 -153 0 -12 4 -16 9 -10 10 11 35
164 27 171 -3 3 -8 0 -10 -8z"/>
<path d="M8735 3618 c-4 -14 -25 -140 -25 -151 0 -4 20 -7 45 -7 25 0 45 5 45
10 0 6 -16 10 -35 10 -37 0 -38 2 -29 38 5 16 14 22 35 22 16 0 29 5 29 10 0
6 -11 10 -25 10 -21 0 -25 5 -25 29 0 27 4 30 38 34 l37 4 -43 1 c-27 1 -44
-3 -47 -10z"/>
<path d="M8853 3584 c-20 -9 -36 -80 -23 -104 16 -29 70 -24 70 8 0 13 -2 13
-18 -1 -36 -33 -58 26 -26 71 16 23 17 23 36 5 20 -17 20 -17 17 2 -4 20 -32
29 -56 19z"/>
<path d="M8946 3568 c-9 -12 -16 -39 -16 -60 0 -32 4 -39 27 -44 19 -5 30 -2
39 11 18 24 9 32 -12 11 -13 -13 -19 -14 -31 -5 -17 14 -9 66 14 89 13 13 16
13 29 -4 7 -11 17 -17 20 -13 10 10 -16 37 -37 37 -10 0 -25 -10 -33 -22z"/>
<path d="M9107 3576 c-21 -22 -30 -71 -17 -95 11 -22 54 -29 66 -10 3 6 -1 10
-12 9 -35 -4 -44 0 -44 20 0 16 7 20 36 20 34 0 35 1 32 33 -3 37 -35 49 -61
23z m51 -32 c-3 -3 -19 -4 -34 -2 -27 3 -27 4 -9 21 16 17 19 17 33 3 9 -9 13
-18 10 -22z"/>
<path d="M9210 3570 c-9 -17 -6 -24 15 -44 14 -13 25 -28 25 -35 0 -15 -37
-14 -43 2 -2 6 -8 9 -12 5 -11 -10 14 -38 34 -38 44 0 54 49 15 75 -20 13 -23
19 -13 31 9 11 15 12 26 3 15 -13 28 -6 18 10 -11 19 -54 12 -65 -9z"/>
<path d="M8702 3280 c-23 -32 -42 -61 -42 -65 0 -3 13 -5 29 -5 23 0 31 -5 34
-22 l4 -23 8 23 c4 12 12 22 18 22 8 0 8 3 0 11 -6 6 -7 25 -2 52 17 87 8 88
-49 7z m29 -20 c-4 -21 -14 -36 -24 -38 -23 -5 -21 14 4 50 26 36 30 33 20
-12z"/>
<path d="M8806 3318 c-24 -37 -31 -121 -12 -140 34 -35 67 -1 81 84 11 68 -36
106 -69 56z m47 -53 c-2 -60 -21 -94 -43 -80 -16 10 -7 110 11 131 22 27 34 9
32 -51z"/>
<path d="M8960 3325 c-6 -8 -9 -19 -5 -25 4 -6 4 -27 1 -46 -5 -25 -12 -34
-26 -34 -25 0 -25 5 1 42 12 16 19 31 16 34 -5 6 -57 -65 -57 -78 0 -4 12 -8
28 -10 19 -2 26 -8 24 -20 -4 -26 15 -22 22 5 4 12 9 42 11 66 3 24 7 52 10
63 7 22 -8 24 -25 3z"/>
<path d="M9053 3327 c-26 -11 -32 -30 -7 -20 18 7 18 12 -2 -99 -3 -22 -2 -38
3 -38 9 0 39 158 31 165 -2 1 -13 -2 -25 -8z"/>
<path d="M9204 3293 c-18 -3 -23 -15 -31 -64 -5 -32 -6 -59 -2 -59 5 0 11 17
14 38 8 47 18 67 36 67 11 0 13 -13 11 -52 -3 -68 12 -68 24 -1 7 40 14 54 28
56 17 4 18 -1 14 -52 -5 -60 5 -76 16 -25 15 77 2 107 -38 87 -12 -7 -22 -6
-29 1 -6 6 -13 10 -16 10 -4 -1 -16 -4 -27 -6z"/>
<path d="M271 3044 c0 -11 3 -14 6 -6 3 7 2 16 -1 19 -3 4 -6 -2 -5 -13z"/>
<path d="M805 2391 c-3 -5 -2 -12 3 -15 5 -3 9 1 9 9 0 17 -3 19 -12 6z"/>
<path d="M870 2346 c0 -2 7 -9 15 -16 13 -11 14 -10 9 4 -5 14 -24 23 -24 12z"/>
<path d="M910 2316 c0 -2 7 -7 16 -10 8 -3 12 -2 9 4 -6 10 -25 14 -25 6z"/>
<path d="M1075 2230 c-3 -6 1 -7 9 -4 18 7 21 14 7 14 -6 0 -13 -4 -16 -10z"/>
<path d="M1120 2216 c0 -2 7 -7 16 -10 8 -3 12 -2 9 4 -6 10 -25 14 -25 6z"/>
<path d="M1366 2087 c3 -10 9 -15 12 -12 3 3 0 11 -7 18 -10 9 -11 8 -5 -6z"/>
<path d="M1371 1674 c0 -11 3 -14 6 -6 3 7 2 16 -1 19 -3 4 -6 -2 -5 -13z"/>
<path d="M1382 1580 c0 -14 2 -19 5 -12 2 6 2 18 0 25 -3 6 -5 1 -5 -13z"/>
<path d="M1387 1505 c3 -27 7 -52 9 -54 7 -8 2 54 -6 79 -6 17 -7 9 -3 -25z"/>
<path d="M1361 1364 c0 -11 3 -14 6 -6 3 7 2 16 -1 19 -3 4 -6 -2 -5 -13z"/>
<path d="M1322 1248 c-9 -24 -9 -35 0 -43 8 -7 9 -6 4 2 -4 7 -2 22 4 33 6 12
10 26 8 31 -2 5 -9 -5 -16 -23z"/>
<path d="M1302 1180 c0 -14 2 -19 5 -12 2 6 2 18 0 25 -3 6 -5 1 -5 -13z"/>
<path d="M1281 1123 c-1 -6 -4 -20 -7 -30 -5 -17 -5 -17 6 0 6 10 9 23 6 30
-3 9 -5 9 -5 0z"/>
<path d="M1253 1052 c-1 -22 0 -24 9 -8 6 10 6 22 2 26 -5 5 -10 -3 -11 -18z"/>
</g>
</svg>
