<?xml version="1.0" standalone="no"?>
<!DOCTYPE svg PUBLIC "-//W3C//DTD SVG 20010904//EN"
 "http://www.w3.org/TR/2001/REC-SVG-20010904/DTD/svg10.dtd">
<svg version="1.0" xmlns="http://www.w3.org/2000/svg"
 width="1200.000000pt" height="1200.000000pt" viewBox="0 0 1200.000000 1200.000000"
 preserveAspectRatio="xMidYMid meet">

<g transform="translate(0.000000,1200.000000) scale(0.100000,-0.100000)"
fill="#000000" stroke="none">
<path d="M1 9688 c0 -1707 3 -2307 11 -2290 12 25 25 25 89 -2 54 -23 77 -54
87 -121 11 -65 1 -120 -13 -76 -6 20 -11 23 -44 17 -20 -3 -42 -6 -48 -6 -7 0
-13 -6 -13 -14 0 -8 -4 -16 -8 -18 -5 -1 -12 -15 -16 -30 -5 -21 -3 -28 8 -28
10 0 16 -21 21 -77 4 -43 13 -89 20 -103 21 -40 24 -160 5 -160 -5 0 -10 11
-10 25 0 23 -24 45 -49 45 -6 0 -11 -14 -11 -31 0 -24 -4 -30 -15 -25 -13 5
-15 -128 -15 -1157 0 -891 3 -1166 12 -1175 9 -9 9 -12 0 -12 -9 0 -12 -501
-12 -2225 l0 -2225 2670 0 c1542 0 2670 4 2670 9 0 5 -7 32 -17 60 -11 35 -21
51 -32 50 -32 -3 -41 1 -41 21 0 27 15 25 56 -6 21 -16 34 -35 34 -49 0 -12 9
-30 20 -40 11 -10 20 -24 20 -32 0 -11 544 -13 3310 -13 l3310 0 0 6000 0
6000 -6000 0 -6000 0 1 -2312z m7493 2266 c9 -4 16 -18 16 -34 0 -16 5 -32 10
-35 16 -10 12 -35 -5 -35 -9 0 -18 12 -21 30 -4 16 -13 35 -20 41 -16 13 -19
39 -5 39 5 0 16 -3 25 -6z m101 -164 c3 -5 1 -10 -4 -10 -6 0 -11 5 -11 10 0
6 2 10 4 10 3 0 8 -4 11 -10z m-3117 -28 c2 -7 -7 -12 -22 -12 -27 0 -35 15
-13 23 17 7 30 3 35 -11z m3164 -29 c27 -25 23 -45 -9 -41 -22 2 -29 9 -31 31
-4 31 12 35 40 10z m-4092 -58 c-8 -9 -28 -14 -54 -14 -27 1 -33 3 -16 6 14 3
29 9 35 14 5 5 18 9 28 9 16 0 17 -3 7 -15z m3425 -6 c25 -12 48 -25 51 -30 3
-5 16 -9 29 -9 24 0 55 -33 55 -58 0 -8 9 -25 20 -39 11 -14 20 -34 20 -44 0
-11 3 -19 8 -19 4 0 15 -15 26 -33 36 -62 119 -212 138 -250 10 -21 47 -66 81
-100 80 -80 88 -90 92 -124 2 -15 6 -50 9 -77 3 -27 11 -54 16 -61 6 -7 15
-39 21 -71 14 -85 47 -219 64 -262 27 -72 55 -283 55 -419 0 -39 6 -76 16 -95
12 -23 15 -47 11 -89 -4 -48 -2 -61 14 -75 20 -18 51 -112 42 -127 -5 -9 -13
-97 -14 -168 -1 -28 -6 -39 -25 -47 -22 -11 -23 -14 -18 -98 2 -48 7 -90 9
-94 7 -11 -13 -151 -30 -220 -8 -30 -13 -82 -12 -115 1 -33 -4 -78 -10 -100
-7 -22 -15 -65 -20 -95 -7 -50 -11 -55 -35 -58 -26 -3 -26 -2 -32 65 -4 37
-11 101 -16 142 -8 54 -7 77 1 88 9 10 15 11 23 3 23 -23 33 -11 23 29 -9 33
-8 43 9 68 13 18 19 47 20 83 1 30 8 69 16 85 12 24 13 51 7 130 -4 57 -3 104
2 109 5 6 9 20 9 32 0 13 5 26 11 30 6 4 9 19 5 36 -5 24 -2 31 14 35 23 6 24
16 6 58 -11 26 -10 32 3 41 13 10 13 16 -4 55 -11 24 -35 59 -54 77 -26 26
-34 42 -33 67 1 23 -6 39 -24 56 -14 13 -33 42 -43 64 -10 22 -25 46 -34 54
-15 12 -19 9 -32 -24 -9 -20 -20 -57 -24 -82 -5 -25 -18 -58 -30 -74 -17 -23
-21 -42 -21 -114 0 -50 5 -93 12 -105 10 -16 10 -24 -1 -41 -7 -13 -14 -62
-16 -122 -3 -74 -8 -104 -20 -118 -10 -10 -14 -25 -11 -37 10 -30 -10 -104
-33 -121 -14 -11 -19 -23 -15 -38 7 -24 -33 -241 -47 -259 -5 -7 -10 -44 -10
-84 -1 -94 19 -126 77 -123 36 3 64 -10 64 -28 0 -5 -11 -9 -25 -9 -14 0 -30
-9 -37 -20 -16 -25 -33 -25 -58 0 -12 12 -25 18 -29 15 -11 -6 -2 -45 9 -45 5
0 14 -17 21 -37 6 -21 18 -44 26 -51 25 -25 13 -35 -14 -11 -43 38 -48 47 -82
143 -54 151 -81 193 -81 127 0 -17 -5 -33 -10 -36 -6 -4 -8 -11 -5 -16 9 -13
-7 -11 -27 5 -10 7 -18 21 -18 30 0 9 -8 16 -20 16 -11 0 -21 5 -21 10 -1 6
-2 14 -3 19 -3 21 -72 80 -88 75 -13 -4 -17 5 -23 46 -7 50 -29 68 -41 35 -4
-8 -14 -15 -24 -15 -10 0 -23 7 -30 15 -7 8 -19 15 -26 15 -12 0 -12 -4 1 -24
15 -23 12 -56 -6 -56 -5 0 -9 -6 -9 -14 0 -24 -21 -30 -38 -12 -14 13 -14 20
-4 36 20 32 14 57 -19 78 -17 10 -36 28 -42 39 -7 11 -20 31 -29 44 -9 13 -19
46 -23 74 -3 27 -12 56 -20 65 -8 9 -15 24 -15 32 0 32 -13 49 -47 63 -63 27
-68 18 -23 -48 17 -25 30 -49 30 -54 0 -25 -40 -88 -56 -88 -11 0 -22 -13 -30
-35 -15 -42 -17 -80 -5 -80 16 0 41 -31 41 -51 0 -10 -6 -19 -13 -19 -7 0 -18
-5 -25 -12 -9 -9 -8 -16 5 -30 22 -25 10 -33 -32 -21 -29 9 -35 9 -35 -3 0
-17 57 -54 85 -54 23 -1 50 -19 57 -39 3 -12 6 -11 11 3 5 11 -2 25 -19 41
-29 27 -27 56 4 48 11 -2 35 -20 53 -39 31 -32 32 -35 16 -51 -14 -14 -17 -15
-17 -3 -1 11 -4 11 -15 -3 -15 -21 -10 -45 14 -64 14 -11 13 -13 -6 -19 -17
-5 -23 -14 -23 -35 0 -21 6 -32 23 -39 17 -7 18 -9 5 -9 -36 -2 -18 -22 57
-68 11 -7 30 -17 42 -22 22 -10 38 -29 31 -36 -12 -12 -108 31 -149 65 -29 24
-58 40 -73 40 -14 0 -26 5 -26 10 0 16 40 51 50 45 5 -3 4 8 -2 25 -6 18 -26
42 -47 55 -20 12 -50 39 -68 58 -33 35 -73 54 -73 34 0 -6 7 -19 17 -29 13
-15 14 -18 2 -18 -8 0 -20 5 -26 11 -13 13 -33 4 -33 -17 0 -8 -4 -14 -10 -14
-5 0 -10 6 -10 14 0 7 -6 18 -13 24 -10 9 -17 6 -30 -9 -15 -16 -21 -18 -40
-8 -12 7 -26 18 -32 25 -12 17 -25 8 -48 -33 -11 -21 -15 -41 -11 -58 8 -33
157 -185 181 -185 4 0 13 -8 19 -18 6 -9 38 -31 70 -47 33 -16 70 -37 83 -47
17 -13 28 -15 42 -7 13 7 25 6 40 -1 19 -11 19 -12 4 -24 -16 -11 -14 -16 21
-44 21 -18 43 -32 48 -32 5 0 15 -8 23 -17 13 -16 14 -15 9 15 -6 34 10 45 21
15 10 -25 29 -43 38 -35 3 4 11 -1 16 -11 6 -9 14 -15 19 -12 5 3 14 -4 20
-15 6 -11 19 -20 28 -20 10 0 26 -6 37 -13 11 -8 56 -24 100 -36 74 -22 88
-22 193 -13 62 6 118 15 125 20 8 7 18 6 31 -4 10 -7 23 -11 28 -8 5 4 20 -4
33 -16 15 -14 32 -21 44 -17 16 4 22 -2 32 -32 6 -20 15 -40 20 -46 5 -5 9
-15 9 -22 0 -17 -67 23 -80 48 -11 20 -40 15 -40 -7 0 -8 9 -22 20 -32 12 -9
28 -41 36 -69 9 -29 20 -53 25 -53 5 0 9 -6 9 -14 0 -8 11 -28 25 -44 14 -17
25 -37 25 -46 0 -43 59 -15 89 42 12 22 51 31 51 11 0 -24 -42 -68 -75 -79
-19 -6 -35 -16 -35 -22 0 -7 -17 -8 -46 -3 -51 7 -94 24 -94 36 0 4 -9 5 -19
2 -12 -3 -33 5 -54 21 -26 20 -36 23 -45 14 -9 -9 -12 -9 -12 1 0 7 -5 9 -10
6 -13 -8 10 -32 35 -36 14 -3 20 -15 23 -42 2 -20 0 -37 -5 -37 -4 0 -24 14
-43 30 -31 26 -59 35 -96 31 -15 -2 -27 44 -19 70 4 12 1 21 -10 25 -9 4 -22
19 -31 35 -13 26 -19 29 -68 29 -63 0 -116 16 -116 36 0 8 5 14 10 14 6 0 10
5 10 10 0 6 -6 10 -14 10 -8 0 -16 3 -18 8 -3 8 -89 43 -165 67 -28 9 -70 33
-92 52 -29 24 -47 33 -59 28 -34 -15 -142 -3 -142 15 0 5 -15 11 -32 15 -53
10 -87 26 -90 42 -3 15 -68 43 -102 43 -13 0 -17 -5 -13 -20 3 -13 0 -20 -9
-20 -8 0 -14 4 -14 9 0 6 -15 7 -32 5 -25 -4 -43 1 -72 21 -34 23 -98 37 -111
23 -2 -2 10 -19 27 -38 24 -28 27 -36 14 -38 -20 -4 -21 -28 -2 -35 8 -3 23
-3 33 -1 13 4 36 -9 69 -36 27 -22 63 -44 79 -49 26 -7 112 -6 180 2 14 1 21
-5 23 -19 3 -18 -4 -23 -33 -28 -23 -5 -42 -3 -51 5 -7 6 -22 8 -31 4 -17 -6
-17 -7 0 -20 10 -7 26 -11 35 -9 9 2 30 -7 47 -21 25 -21 27 -25 12 -31 -9 -3
-17 -10 -17 -14 0 -15 69 -49 115 -56 26 -3 54 -14 63 -24 22 -22 56 -40 77
-40 18 0 50 -28 42 -36 -3 -4 -16 1 -29 10 -12 9 -41 16 -64 16 -56 0 -145 20
-165 37 -8 7 -19 13 -22 13 -15 0 -87 35 -87 42 0 5 -9 8 -20 8 -10 0 -24 9
-30 20 -15 29 -36 25 -50 -10 -13 -32 -2 -60 24 -60 7 0 22 -11 33 -24 21 -24
21 -24 2 -42 -11 -10 -18 -26 -16 -35 4 -14 -6 -18 -52 -23 -34 -4 -70 -2 -89
5 -18 6 -36 9 -39 5 -9 -9 16 -34 40 -39 19 -4 19 -4 -4 -6 -34 -1 -52 -20
-38 -38 7 -7 18 -13 26 -13 23 0 -2 -27 -32 -34 -30 -8 -32 -22 -5 -36 11 -6
17 -16 14 -25 -8 -19 35 -29 82 -20 28 5 41 2 58 -13 11 -11 40 -28 64 -38 48
-21 54 -34 15 -34 -19 0 -24 -3 -15 -9 11 -6 10 -12 -4 -26 -14 -14 -19 -15
-22 -4 -7 22 -31 37 -52 32 -11 -3 -20 -9 -20 -14 0 -5 -5 -9 -10 -9 -6 0 -10
8 -8 18 2 13 -5 18 -33 20 -44 4 -66 -15 -75 -65 -9 -48 5 -69 45 -65 17 2 31
-1 31 -6 0 -13 72 -13 87 0 28 23 69 -13 79 -68 4 -20 0 -24 -20 -24 -14 0
-37 5 -53 11 -15 5 -86 12 -158 13 -71 2 -139 7 -149 12 -14 5 -17 4 -12 -4 4
-7 13 -12 19 -12 7 0 30 -9 51 -21 21 -11 43 -18 49 -16 7 3 28 -2 47 -11 35
-15 129 -37 205 -49 22 -3 45 -9 50 -14 11 -8 72 -25 128 -36 15 -3 27 -9 27
-14 0 -12 -22 -11 -55 1 -23 9 -31 7 -50 -12 -27 -26 -18 -48 21 -48 22 0 64
-45 64 -69 0 -6 10 -11 23 -11 16 0 18 -3 8 -9 -11 -7 -9 -10 8 -16 28 -9 27
-20 -4 -21 -16 -1 -22 2 -18 10 4 6 -4 4 -17 -5 -14 -9 -26 -28 -28 -44 -3
-25 -1 -27 20 -21 55 16 210 27 288 20 47 -4 104 -7 127 -8 30 -2 49 -9 63
-24 12 -12 25 -22 29 -22 5 0 11 -9 14 -20 3 -11 1 -20 -3 -20 -5 0 -21 -5
-35 -10 -22 -8 -25 -13 -16 -24 17 -21 0 -79 -27 -91 -12 -5 -22 -13 -22 -17
0 -4 -18 -11 -40 -14 -40 -7 -66 -24 -36 -24 16 0 24 -20 9 -20 -5 0 -19 -3
-33 -6 -18 -4 -21 -3 -11 4 15 11 8 42 -9 42 -5 0 -10 -9 -10 -19 0 -11 -6
-26 -13 -33 -8 -7 -19 -24 -26 -36 -10 -18 -15 -21 -26 -12 -10 8 -14 8 -17
-1 -2 -7 -22 -13 -46 -13 -24 -1 -46 -6 -50 -13 -9 -15 -80 -63 -92 -63 -6 0
-10 6 -10 13 -1 8 -4 7 -9 -3 -11 -17 -54 -18 -153 -1 -53 9 -83 22 -145 62
-43 28 -90 62 -104 76 -21 19 -39 25 -90 28 l-64 3 -75 75 c-41 41 -85 79 -97
86 -27 14 -123 15 -123 1 0 -5 7 -10 16 -10 9 0 14 -7 12 -17 -4 -19 -29 -22
-60 -8 -14 5 -18 2 -18 -13 0 -12 6 -19 16 -18 22 1 39 -43 20 -50 -11 -4 -12
-12 -4 -35 5 -16 12 -29 14 -29 3 0 23 9 45 20 51 27 63 18 38 -26 -26 -47
-18 -68 31 -83 43 -13 60 -9 60 15 0 8 9 14 20 14 25 0 26 -18 3 -36 -21 -15
-23 -13 49 -47 59 -28 93 -34 103 -17 13 21 36 10 33 -16 -2 -16 3 -30 12 -34
8 -5 40 -20 70 -35 124 -61 169 -141 218 -390 5 -27 9 -111 8 -185 -1 -128 -2
-138 -31 -194 l-29 -60 -8 32 c-5 18 -12 32 -17 32 -18 0 -45 -57 -54 -110
-19 -125 -19 -156 -2 -170 13 -11 21 -11 36 -2 10 7 21 12 23 12 3 0 3 -47 0
-104 -5 -103 -18 -183 -47 -281 -15 -49 -50 -322 -62 -480 -7 -87 -39 -288
-55 -346 -6 -20 -19 -47 -29 -60 -10 -13 -21 -36 -25 -51 -8 -35 -41 -54 -70
-40 -15 7 -27 6 -37 -2 -22 -15 -41 -54 -34 -66 4 -6 -3 -23 -14 -38 -11 -16
-29 -51 -40 -78 -26 -66 -118 -244 -136 -265 -8 -8 -15 -19 -15 -24 0 -16 -51
-75 -65 -75 -8 0 -23 -21 -34 -46 -24 -53 -97 -144 -116 -144 -15 0 -25 -22
-25 -56 0 -24 -3 -26 -50 -28 -19 -1 -26 -7 -28 -28 -4 -32 -206 -260 -397
-449 -5 -5 -50 -42 -100 -81 -49 -39 -122 -100 -161 -137 -88 -83 -207 -175
-311 -244 -24 -15 -43 -34 -43 -42 0 -17 -36 -39 -50 -30 -5 3 -18 0 -29 -7
-16 -10 -25 -9 -44 1 -18 10 -30 10 -45 2 -43 -23 -122 -4 -122 30 0 24 -16
32 -32 16 -32 -32 -71 -36 -100 -10 -21 19 -35 11 -43 -28 -4 -19 -19 -38 -41
-52 -18 -12 -34 -28 -34 -34 0 -21 -43 -42 -93 -47 l-48 -4 -22 46 c-15 32
-29 48 -45 50 -18 3 -22 -1 -22 -21 0 -14 -9 -31 -23 -40 -21 -14 -21 -16 -5
-34 22 -23 10 -44 -28 -49 -15 -1 -31 -9 -35 -17 -5 -8 -23 -20 -40 -27 -25
-11 -30 -18 -26 -38 3 -17 0 -26 -12 -29 -13 -3 -16 -13 -13 -40 6 -46 -15
-83 -45 -83 -17 0 -23 -6 -23 -20 0 -27 -43 -70 -69 -70 -11 0 -25 9 -31 21
-16 28 -34 11 -50 -48 -8 -25 -29 -65 -49 -88 -20 -23 -44 -52 -53 -64 -10
-11 -27 -21 -39 -21 -12 0 -23 -8 -26 -20 -3 -11 -9 -20 -14 -20 -15 0 -10
-53 10 -96 10 -23 20 -68 22 -100 4 -51 2 -59 -13 -58 -22 2 -24 -22 -3 -30
23 -9 18 -30 -12 -44 -19 -8 -30 -9 -37 -1 -14 13 -10 299 4 313 6 6 10 18 10
27 0 9 18 57 41 106 23 48 45 97 49 108 4 11 18 43 30 70 13 28 22 62 21 78
-6 75 1 124 37 259 24 92 136 338 154 338 5 0 8 7 8 14 0 8 10 26 23 40 13 14
32 43 42 66 10 22 22 40 27 40 4 0 8 9 8 20 0 11 -4 20 -10 20 -15 0 -12 21 5
40 14 15 14 18 0 30 -8 7 -15 23 -15 37 0 31 -26 40 -51 17 -17 -16 -22 -16
-29 -4 -10 16 -13 41 -10 78 3 37 -31 23 -57 -23 -14 -25 -38 -49 -65 -63 -42
-22 -43 -23 -46 -4 -2 11 10 42 27 69 16 27 32 66 35 88 2 22 5 42 5 44 1 2 8
-2 16 -9 17 -14 31 -8 20 9 -8 13 -45 14 -64 2 -7 -5 -11 -13 -8 -18 3 -5 -4
-25 -17 -44 -13 -19 -27 -45 -31 -59 -11 -35 -55 -113 -73 -127 -13 -11 -12
-15 8 -31 l24 -19 -22 -7 c-12 -4 -30 -2 -41 3 -16 9 -21 7 -26 -9 -8 -26 -98
-105 -103 -90 -2 6 7 24 20 38 60 65 72 92 74 169 1 52 7 80 18 92 9 10 16 25
16 33 0 22 81 127 126 163 33 27 64 77 64 105 0 11 -88 -45 -102 -65 -5 -6 -8
-5 -8 3 0 20 65 82 87 82 10 0 24 -5 30 -11 18 -18 36 28 39 100 2 35 8 69 14
75 16 16 12 39 -13 70 l-24 29 -18 -31 c-10 -17 -22 -29 -26 -26 -5 3 -17 -4
-29 -16 -11 -11 -24 -20 -29 -20 -5 0 -32 -25 -60 -56 -39 -42 -55 -54 -64
-45 -8 8 -7 11 6 11 11 0 17 8 17 22 0 12 9 31 20 43 15 16 18 29 13 58 -3 20
-10 37 -14 37 -5 0 -9 -4 -9 -8 0 -4 -13 -15 -29 -25 -26 -15 -30 -15 -41 -2
-13 16 -12 20 25 85 10 17 11 28 4 37 -11 13 -40 0 -84 -38 -29 -25 -54 -5
-52 42 2 41 16 54 34 31 7 -9 13 -12 13 -6 0 5 -5 15 -11 21 -9 9 0 25 31 62
23 27 47 52 52 53 5 2 14 24 18 49 9 47 70 129 96 129 7 0 18 8 23 17 6 11 11
13 11 5 0 -7 -9 -25 -19 -40 -22 -31 -36 -108 -21 -117 18 -11 50 57 44 93 -5
25 -3 32 10 32 9 0 19 15 26 40 12 45 6 80 -15 80 -21 0 -24 23 -5 45 28 31
38 101 23 165 -23 101 -24 126 -7 171 19 46 21 42 -46 93 -8 6 -20 25 -25 41
-11 32 -17 33 -97 19 -29 -5 -42 -14 -59 -42 -20 -35 -22 -36 -35 -17 -8 10
-14 24 -14 31 0 7 -16 18 -36 24 -30 10 -38 10 -45 -1 -8 -11 -11 -11 -20 3
-13 23 -79 25 -79 3 0 -13 -4 -14 -22 -4 -28 15 -86 20 -94 8 -3 -5 -13 -9
-24 -9 -14 0 -18 7 -16 31 2 47 -21 47 -41 0 -14 -32 -22 -40 -43 -39 -14 0
-50 -1 -82 -4 -31 -3 -61 -2 -66 1 -11 6 -20 97 -11 105 2 2 24 11 49 19 37
12 46 20 51 46 4 17 3 33 -1 36 -10 6 -20 45 -11 42 13 -4 71 26 71 36 0 6 7
1 16 -11 18 -26 34 -20 34 12 0 13 7 29 15 36 18 15 20 41 2 34 -7 -2 -17 -14
-22 -26 -16 -35 -30 -31 -51 13 -10 24 -34 57 -52 75 -32 31 -33 33 -13 43 25
14 51 14 51 0 0 -14 65 -40 83 -33 8 3 17 -2 20 -10 4 -9 16 -16 27 -16 17 0
19 4 14 28 -4 15 -19 39 -32 54 -14 14 -30 41 -36 59 -13 40 -76 71 -105 51
-9 -7 -45 -26 -81 -44 -36 -17 -77 -41 -92 -53 l-27 -23 31 -6 c45 -9 23 -27
-39 -32 -26 -2 -78 -7 -115 -10 -38 -4 -68 -3 -68 2 0 5 -23 9 -50 10 -28 0
-52 3 -55 6 -6 6 33 78 51 93 6 6 14 25 18 44 5 27 2 37 -14 48 -11 8 -17 19
-14 25 4 6 8 18 9 27 3 31 17 71 25 71 8 0 109 151 122 183 4 9 12 17 19 17 6
0 20 11 31 25 10 13 37 30 60 37 25 7 44 21 51 36 11 23 11 23 19 3 9 -25 62
-28 92 -6 11 8 35 15 53 15 36 0 50 18 37 48 -4 9 -6 22 -5 29 1 6 -9 13 -21
15 -17 2 -25 13 -34 43 -8 28 -16 39 -28 37 -22 -4 -20 14 4 38 25 25 45 25
62 2 14 -19 68 -46 76 -38 6 6 -17 65 -33 86 -61 78 -82 210 -49 306 10 30 27
62 36 71 17 15 21 15 53 0 23 -11 35 -24 35 -36 0 -25 20 -71 32 -71 4 0 8 -6
8 -13 0 -8 9 -22 20 -32 11 -10 20 -24 20 -30 0 -19 24 -24 43 -10 21 15 21
28 2 91 -9 30 -32 69 -60 101 -45 52 -46 53 -43 115 3 73 19 84 63 46 23 -21
27 -32 30 -88 2 -36 10 -85 18 -110 8 -25 23 -85 32 -135 19 -97 30 -121 57
-128 15 -4 17 -16 16 -92 -2 -85 -3 -88 -38 -125 -36 -40 -132 -110 -149 -110
-5 0 -18 -11 -29 -25 -11 -14 -24 -25 -29 -25 -6 0 -35 -24 -66 -54 -30 -30
-68 -57 -84 -61 -40 -9 -124 -57 -137 -77 -15 -25 26 -52 79 -53 44 -2 121 21
146 42 8 7 20 13 26 13 6 0 16 7 24 16 17 21 76 50 117 57 30 6 37 2 92 -56
33 -34 59 -68 60 -75 0 -25 -69 -77 -149 -112 -45 -19 -81 -40 -81 -46 0 -12
30 -23 65 -24 11 -1 49 -28 84 -60 l64 -60 -46 0 c-53 0 -62 -13 -44 -68 8
-24 22 -42 42 -52 17 -8 41 -23 55 -32 13 -10 26 -14 30 -10 3 4 21 15 40 24
19 9 46 24 60 32 14 8 44 20 68 27 46 13 56 29 18 29 -14 0 -28 5 -32 11 -4 7
-21 9 -41 6 -24 -4 -44 0 -68 15 -41 24 -43 35 -10 67 14 13 25 29 25 37 0 8
10 14 22 14 12 0 35 4 52 10 121 38 179 53 231 62 98 15 155 19 155 9 0 -13
-47 -41 -70 -41 -11 0 -30 -11 -42 -25 -12 -14 -27 -25 -34 -25 -6 0 -17 -7
-24 -15 -10 -12 -10 -18 0 -30 16 -19 40 -20 40 -1 0 18 26 40 34 27 9 -14 -3
-39 -23 -44 -10 -2 -20 -16 -23 -31 -7 -33 20 -35 62 -4 16 12 33 19 36 15 3
-3 -1 -27 -9 -54 -17 -56 -16 -155 2 -177 7 -8 11 -34 10 -58 -3 -36 0 -43 16
-46 11 -2 26 -9 32 -14 13 -10 63 -18 116 -19 26 0 27 -2 21 -34 -8 -44 2 -85
20 -85 8 0 22 -8 31 -17 10 -9 31 -18 49 -20 17 -2 38 -11 46 -21 8 -10 31
-24 50 -31 19 -8 49 -22 66 -33 26 -15 37 -16 62 -7 17 6 34 19 37 30 4 11 11
17 16 14 5 -4 14 -3 20 1 8 5 7 9 -1 14 -7 5 13 6 44 4 l58 -4 -31 30 c-16 17
-43 33 -59 36 -23 5 -28 10 -25 25 3 10 1 19 -5 19 -12 0 -24 -28 -17 -40 3
-4 -2 -13 -10 -20 -12 -10 -15 -7 -20 13 -5 18 -12 23 -25 20 -20 -5 -41 18
-21 25 9 3 8 9 -5 23 -19 21 -41 15 -23 -7 8 -10 8 -14 0 -14 -6 0 -11 5 -11
10 0 16 -24 11 -41 -8 -9 -10 -19 -31 -23 -45 -9 -36 -26 -34 -26 3 0 21 -8
36 -30 51 -16 13 -32 36 -36 53 -3 17 -15 39 -25 49 -11 10 -19 22 -19 28 0 6
-8 9 -17 7 -32 -6 -72 44 -43 54 7 2 7 14 1 36 -6 20 -6 32 0 32 5 0 9 7 9 16
0 14 -3 14 -15 4 -13 -11 -15 -8 -15 19 0 17 -7 48 -15 68 -15 35 -14 37 9 62
13 14 27 36 31 49 3 12 11 22 16 22 19 0 8 48 -18 74 -14 14 -24 29 -21 32 11
11 87 -17 92 -34 3 -9 20 -23 38 -31 43 -19 78 -58 78 -87 0 -27 21 -32 40 -9
8 10 11 35 8 72 -3 36 0 70 9 90 15 38 32 44 26 9 -6 -30 9 -39 72 -41 118 -4
115 -3 115 -30 0 -18 -5 -25 -20 -25 -15 0 -20 -7 -21 -30 -1 -16 -2 -35 -3
-42 -1 -7 8 -17 20 -23 11 -5 19 -15 17 -22 -5 -14 37 -54 49 -47 4 3 8 0 8
-5 0 -6 7 -11 15 -11 8 0 15 -4 15 -10 0 -5 -4 -10 -9 -10 -9 0 -2 -50 8 -50
3 -1 25 -5 49 -9 23 -5 42 -7 42 -5 0 2 -7 19 -16 38 -18 37 -14 66 10 66 8 0
18 -9 21 -20 6 -20 39 -27 62 -12 9 6 4 18 -18 45 -32 39 -31 50 3 68 19 10
20 9 14 -16 -5 -19 -3 -25 5 -20 6 4 15 1 20 -6 8 -11 14 -8 33 14 17 22 22
24 21 10 -3 -27 -16 -53 -24 -48 -8 4 -33 -116 -26 -123 9 -9 44 43 45 65 0
32 23 33 37 1 12 -28 43 -39 43 -15 0 9 3 8 9 -2 5 -7 14 -10 21 -6 9 6 9 9
-1 16 -11 7 -9 9 6 9 11 0 31 -7 43 -16 12 -8 22 -14 23 -12 8 35 7 49 -6 54
-18 7 -20 44 -2 45 9 0 9 2 0 6 -7 2 -13 10 -13 16 0 7 -12 23 -25 36 -14 13
-25 18 -25 12 0 -6 -4 -11 -10 -11 -5 0 -10 7 -10 15 0 16 28 19 68 8 17 -4
22 -11 19 -24 -3 -12 0 -19 8 -19 23 0 25 16 6 55 -15 31 -16 43 -6 71 6 18
14 36 18 40 8 8 67 -18 67 -31 0 -5 4 -16 9 -24 12 -18 27 -3 55 52 17 33 24
37 50 35 27 -3 31 1 38 32 5 19 13 47 17 62 6 18 4 35 -5 54 -18 34 -17 104 1
128 8 11 15 32 15 48 0 17 7 31 21 38 11 6 19 19 18 28 -5 52 2 81 20 87 32
10 51 51 68 143 8 48 21 94 28 102 7 8 16 35 20 60 4 25 13 59 20 77 7 17 11
33 9 36 -2 2 -6 55 -8 118 -3 64 -1 103 3 89 11 -33 19 -12 24 60 2 33 8 56
15 56 7 1 17 2 23 3 7 1 9 35 5 104 -6 132 -9 150 -22 154 -8 3 -9 14 -4 36
16 64 27 153 25 204 -1 29 2 50 6 48 10 -7 17 16 25 75 4 27 11 50 16 50 6 0
22 -9 36 -21 l27 -21 3 37 c2 20 1 40 -2 43 -4 3 -22 -2 -42 -11 -19 -10 -33
-13 -30 -9 7 12 -70 94 -134 142 -30 22 -71 61 -91 85 -74 90 -129 288 -132
478 -1 101 10 156 48 226 7 14 16 34 19 44 3 10 10 15 16 12 6 -3 7 1 4 10 -4
8 -1 22 6 30 7 9 9 26 5 45 -4 19 -3 30 4 30 6 0 11 -16 11 -35 0 -36 8 -43
27 -24 6 6 22 17 35 23 18 9 22 19 20 43 -2 25 2 35 22 48 14 9 28 25 31 35 3
10 24 30 46 46 40 28 41 28 56 9 9 -13 11 -29 7 -45 -4 -14 -12 -54 -18 -90
-9 -50 -16 -65 -28 -64 -11 1 -19 -9 -23 -28 -4 -16 -19 -44 -33 -61 -60 -72
-69 -123 -26 -152 14 -9 30 -29 36 -45 5 -16 17 -32 26 -35 22 -7 92 -71 92
-84 0 -6 5 -11 10 -11 6 0 20 -9 32 -20 12 -11 29 -20 39 -20 9 0 22 -7 29
-15 14 -17 50 -20 50 -4 0 7 10 5 25 -5 13 -9 31 -16 40 -16 17 0 20 -16 5
-25 -18 -11 -10 -32 28 -74 28 -31 51 -45 82 -52 24 -6 66 -27 94 -47 29 -21
59 -35 70 -33 17 2 18 1 7 -12 -10 -13 -9 -17 9 -27 11 -6 30 -8 41 -5 12 4
31 0 45 -10 14 -9 32 -14 40 -11 17 7 7 36 -12 36 -8 0 -29 16 -47 35 -22 24
-41 35 -59 35 -16 0 -37 9 -48 20 -24 24 -26 34 -5 26 10 -4 15 1 15 15 0 11
-10 23 -22 28 -19 8 -20 10 -7 16 9 3 31 -3 50 -14 19 -12 41 -24 49 -28 8 -4
21 -13 28 -20 17 -16 37 -17 62 0 17 10 22 9 29 -2 5 -8 16 -11 30 -6 15 4 27
-1 43 -18 21 -22 98 -45 98 -29 0 4 -19 15 -41 25 -30 15 -38 23 -34 37 4 13
-6 27 -32 48 -50 39 -145 92 -166 92 -9 0 -17 5 -17 11 0 5 -12 9 -27 8 -16
-2 -60 12 -103 33 -41 20 -82 39 -90 43 -67 28 -190 131 -190 157 0 8 -13 29
-30 48 -36 43 -39 64 -7 57 12 -3 37 -8 56 -12 l33 -8 -18 23 c-11 13 -31 36
-46 53 -30 32 -44 65 -33 75 4 4 10 1 12 -5 9 -24 25 -13 19 12 -8 33 32 62
63 46 16 -9 22 -8 31 8 13 25 13 58 0 66 -8 5 -7 11 0 20 8 9 9 26 4 47 -9 38
-6 69 7 83 5 5 9 19 9 31 0 25 -33 42 -53 26 -7 -5 -31 -7 -54 -4 -38 4 -42 7
-38 26 3 11 -2 30 -10 41 -13 17 -19 18 -45 8 -40 -15 -46 -2 -13 27 20 17 24
25 13 28 -8 3 -20 -5 -28 -17 -8 -11 -21 -21 -30 -21 -9 0 -27 -14 -42 -32
-21 -24 -31 -30 -46 -23 -10 4 -22 7 -26 7 -11 -3 -10 16 2 39 13 23 30 25 30
3 0 -8 5 -12 11 -9 5 4 9 18 7 32 -2 20 5 29 36 47 21 11 70 51 109 89 39 37
75 67 81 67 10 0 15 4 83 70 23 22 50 40 60 40 11 0 24 5 31 12 7 7 12 8 12 3
0 -4 9 0 21 11 16 15 24 16 39 6 26 -16 88 10 100 43 5 13 17 32 27 43 70 71
91 102 86 122 -5 18 -2 20 20 15 22 -6 28 -1 51 38 14 24 26 53 26 65 0 12 6
22 13 22 15 0 77 55 77 68 0 6 19 19 42 31 41 20 42 20 55 1 8 -11 25 -20 37
-20 20 0 23 4 19 28 -4 26 -4 26 11 8 20 -25 20 -43 1 -54 -9 -5 -14 -18 -12
-33 6 -35 51 -34 55 1 2 14 10 29 18 33 8 4 14 19 14 32 0 13 4 26 10 30 5 3
8 28 7 55 -1 36 3 54 16 67 18 17 18 17 15 -22 -3 -34 0 -40 17 -40 17 0 21 9
26 65 7 68 35 160 56 181 9 9 17 4 33 -23 11 -19 31 -40 45 -46 15 -7 25 -20
25 -32 0 -24 4 -25 35 -4 20 13 23 20 15 34 -6 10 -10 27 -10 38 0 10 -9 27
-20 37 -11 10 -20 24 -20 30 0 7 9 24 20 38 11 14 20 30 20 35 0 20 45 79 73
95 15 9 27 25 27 36 0 14 5 18 19 14 19 -5 35 11 37 37 1 8 2 27 3 42 1 22 11
31 57 53 30 14 57 32 60 40 3 8 -2 28 -12 45 -16 27 -20 29 -30 15 -8 -11 -14
-12 -19 -6 -13 21 -64 12 -81 -14 -11 -18 -25 -25 -47 -25 -17 0 -38 -7 -48
-16 -14 -12 -38 -16 -108 -15 -50 1 -93 -3 -96 -9 -10 -17 -57 -11 -107 13
-41 20 -65 23 -159 25 -62 0 -116 5 -122 11 -5 5 -15 7 -23 4 -7 -2 -25 4 -41
15 -15 11 -51 34 -80 51 -28 18 -57 39 -63 47 -7 7 -20 14 -29 14 -28 0 -71
-24 -77 -43 -15 -46 -67 -37 -79 14 -6 23 -3 27 20 33 15 4 33 2 41 -4 16 -14
41 -3 26 12 -6 6 -8 16 -6 23 8 21 -63 71 -120 84 -62 14 -96 35 -96 60 0 27
21 40 74 47 37 5 50 12 56 29 9 23 40 42 40 24 0 -6 5 -7 10 -4 6 3 10 14 10
24 0 28 20 42 36 26 8 -7 14 -18 14 -24 0 -15 27 -14 32 1 6 17 28 0 28 -23 0
-11 7 -19 16 -19 9 0 29 -13 44 -30 17 -18 38 -30 53 -30 14 0 29 -4 32 -10 3
-5 19 -10 35 -10 19 0 30 -6 33 -17 3 -10 5 -1 6 20 l1 38 48 -7 c26 -4 61 -7
77 -8 17 -1 36 -5 43 -9 7 -5 19 -7 26 -4 7 3 19 1 27 -4 11 -7 11 -11 -5 -22
-12 -9 -16 -19 -11 -27 5 -9 27 -10 84 -5 59 5 86 13 121 35 70 44 99 53 132
39 25 -10 32 -9 53 11 14 13 25 33 25 44 0 12 9 35 20 51 12 18 20 47 20 72 0
23 4 44 9 48 6 3 16 18 24 33 45 87 63 118 79 134 10 10 18 24 18 31 0 7 9 20
20 30 11 9 20 27 20 40 0 12 7 32 15 43 8 12 12 23 10 26 -8 7 16 68 26 68 5
0 9 -8 10 -17 0 -11 4 -7 9 9 4 14 17 44 28 65 42 80 56 120 58 168 1 28 4 61
8 75 3 14 8 58 10 98 3 59 11 87 43 150 28 57 43 77 58 77 25 0 31 -29 14 -62
-8 -15 -9 -27 -4 -31 16 -11 35 -50 35 -70 0 -10 4 -22 10 -28 5 -5 10 -54 11
-109 2 -83 6 -108 25 -147 13 -26 24 -56 24 -66 0 -54 54 -125 113 -150 81
-35 145 -120 126 -169 -14 -37 -11 -45 11 -33 18 10 28 5 71 -31 40 -33 49
-47 45 -64 -4 -16 1 -25 17 -34 25 -14 87 -145 110 -231 8 -30 22 -100 32
-155 9 -55 19 -111 23 -125 6 -24 6 -24 10 5 2 17 9 36 14 43 8 9 7 20 -2 38
-10 17 -11 27 -3 35 7 7 8 21 3 38 -5 14 -11 58 -14 96 -5 79 -21 162 -35 179
-5 6 -18 47 -29 91 -17 72 -21 80 -41 77 -50 -8 -71 55 -27 83 12 8 33 35 45
59 19 35 21 48 12 65 -7 11 -17 21 -24 21 -18 0 -63 50 -72 78 -3 12 -19 36
-35 53 -28 31 -40 67 -40 121 0 16 -4 27 -9 23 -5 -3 -15 12 -22 32 -7 21 -34
61 -61 88 -36 37 -48 56 -45 72 3 14 -4 30 -20 45 -13 12 -29 42 -35 65 -6 24
-13 43 -16 43 -3 0 -15 -9 -27 -20 -23 -22 -55 -18 -55 6 0 8 -9 23 -21 35
-11 11 -18 27 -15 35 7 18 8 18 61 -7z m785 -108 c0 -5 8 -11 18 -14 11 -2 21
-13 24 -24 4 -17 2 -19 -15 -15 -11 3 -22 13 -24 24 -3 10 -12 18 -20 18 -8 0
-11 5 -8 10 8 12 25 13 25 1z m-3510 -15 c0 -16 -18 -31 -27 -22 -8 8 5 36 17
36 5 0 10 -6 10 -14z m-820 -62 c0 -22 28 -47 42 -38 16 10 58 12 58 2 0 -4
-7 -8 -15 -8 -8 0 -19 -8 -24 -19 -11 -20 -70 -36 -100 -26 -24 7 -32 37 -14
53 7 7 13 21 13 30 0 11 8 18 20 19 12 1 20 -4 20 -13z m800 -48 c0 -8 -13
-24 -30 -36 -26 -18 -30 -19 -30 -5 0 9 5 13 10 10 6 -3 10 2 10 13 0 10 3 22
7 25 12 12 33 7 33 -7z m-545 -36 c3 -5 1 -10 -4 -10 -6 0 -11 5 -11 10 0 6 2
10 4 10 3 0 8 -4 11 -10z m391 -70 c33 0 34 -1 19 -17 -23 -22 -82 -23 -101
-2 -22 25 -10 41 22 29 14 -6 41 -10 60 -10z m178 -56 c11 -30 7 -36 -21 -29
-47 12 -53 45 -8 45 12 0 26 -7 29 -16z m-243 -4 c27 -15 24 -33 -10 -58 -28
-20 -32 -21 -65 -7 -46 20 -46 38 2 58 47 19 49 19 73 7z m-176 -86 c-10 -24
-12 -41 -6 -47 6 -6 15 4 25 27 17 42 27 44 56 14 l21 -23 -22 -3 c-37 -6 -50
-27 -43 -70 4 -25 2 -42 -5 -46 -20 -13 -12 -56 23 -119 26 -48 31 -66 22 -79
-8 -13 -6 -21 7 -36 9 -10 17 -26 17 -35 0 -9 6 -20 13 -24 20 -12 30 -45 15
-54 -11 -7 -118 85 -118 103 0 4 -13 28 -30 54 -16 26 -34 72 -40 103 -7 36
-25 76 -51 113 -54 79 -52 103 14 138 20 11 37 18 37 16 0 -2 17 2 38 9 20 7
38 10 40 5 2 -4 -4 -25 -13 -46z m4295 -64 c7 -17 10 -33 6 -37 -3 -3 -6 0 -6
8 0 8 -9 20 -20 27 -23 14 -26 32 -6 32 7 0 19 -14 26 -30z m-4145 0 c3 -5 -1
-10 -9 -10 -9 0 -16 5 -16 10 0 6 4 10 9 10 6 0 13 -4 16 -10z m775 -20 c0
-11 -5 -29 -12 -40 -17 -26 -4 -35 48 -34 56 1 53 -16 -5 -35 -38 -12 -40 -14
-24 -26 17 -13 17 -14 1 -20 -9 -4 -14 -13 -11 -21 6 -17 -1 -18 -25 -3 -13 8
-27 7 -55 -4 -39 -17 -43 -23 -27 -47 8 -12 11 -13 19 -1 6 9 11 10 15 3 9
-15 -26 -32 -63 -32 -28 0 -55 -20 -35 -27 5 -2 16 -8 24 -13 12 -8 13 -11 1
-19 -7 -5 -21 -6 -31 -4 -11 3 -29 -2 -42 -11 -12 -9 -37 -16 -55 -16 -23 0
-33 -5 -33 -15 0 -8 5 -15 10 -15 6 0 10 -3 10 -7 0 -10 -99 -43 -126 -43 -10
0 -44 -9 -74 -21 -48 -18 -59 -19 -95 -8 -53 17 -69 29 -55 43 19 19 10 35
-22 38 -44 4 -51 34 -9 40 16 2 38 0 48 -5 9 -6 66 -12 125 -14 95 -4 107 -3
102 11 -3 9 -14 16 -24 16 -10 0 -26 3 -35 6 -14 6 -14 8 1 25 16 18 16 20 -2
33 -29 22 -8 35 73 42 59 6 78 12 107 36 20 16 36 38 36 48 0 27 56 70 91 70
21 0 32 6 37 20 4 12 28 31 52 44 57 30 60 30 60 6z m-752 -31 c20 -1 17 -3
-13 -9 -22 -4 -43 -6 -48 -3 -13 8 4 25 20 19 8 -3 27 -7 41 -7z m257 -19 c3
-5 -1 -10 -9 -10 -8 0 -18 5 -21 10 -3 6 1 10 9 10 8 0 18 -4 21 -10z m925 -4
c0 -3 -4 -8 -10 -11 -5 -3 -10 -1 -10 4 0 6 5 11 10 11 6 0 10 -2 10 -4z
m-1033 -56 c-14 -11 -31 -20 -39 -20 -8 0 -19 -5 -26 -12 -9 -9 -12 -8 -12 5
0 11 8 17 23 17 13 0 32 7 43 15 29 22 40 18 11 -5z m973 6 c0 -12 -40 -46
-55 -46 -12 0 -3 21 17 40 25 23 38 26 38 6z m-201 -12 c2 -2 -4 -13 -14 -24
-19 -21 -50 -26 -60 -10 -3 6 -2 10 4 10 5 0 13 9 16 20 5 16 12 19 28 14 12
-3 24 -8 26 -10z m100 -31 c-24 -30 -33 -39 -51 -46 -27 -10 -11 15 25 40 40
27 43 27 26 6z m-209 -3 c0 -5 -4 -10 -9 -10 -6 0 -13 5 -16 10 -3 6 1 10 9
10 9 0 16 -4 16 -10z m3445 0 c3 -5 -1 -10 -9 -10 -9 0 -16 5 -16 10 0 6 4 10
9 10 6 0 13 -4 16 -10z m-4225 -15 c-7 -8 -19 -15 -27 -15 -13 0 -13 3 -3 15
7 8 19 15 27 15 13 0 13 -3 3 -15z m245 5 c-3 -5 -11 -10 -16 -10 -6 0 -7 5
-4 10 3 6 11 10 16 10 6 0 7 -4 4 -10z m4075 -5 c0 -8 -4 -15 -10 -15 -5 0
-10 7 -10 15 0 8 5 15 10 15 6 0 10 -7 10 -15z m-2771 -42 c-9 -10 -9 -17 -2
-21 21 -14 -5 -50 -43 -61 -20 -6 -40 -8 -44 -6 -10 6 -40 -57 -33 -68 2 -4
11 -3 18 3 7 6 25 13 40 16 15 3 30 5 34 6 17 3 61 -23 61 -37 0 -19 10 -19
24 -1 8 11 20 13 46 8 33 -7 35 -10 38 -55 2 -28 -1 -47 -7 -47 -16 0 -13 -29
3 -46 13 -12 11 -19 -12 -54 -24 -37 -27 -39 -41 -24 -15 14 -14 17 7 31 22
15 31 53 12 53 -5 0 -10 9 -10 20 0 24 -8 25 -32 4 -16 -16 -18 -15 -27 7 -5
13 -7 27 -4 32 2 4 -1 7 -6 7 -6 0 -18 -16 -26 -36 -13 -31 -18 -35 -37 -30
-13 4 -40 10 -60 13 -40 6 -48 22 -23 43 14 12 14 15 0 36 -8 13 -15 30 -15
39 0 19 -14 19 -30 0 -17 -20 -30 -10 -30 23 0 36 10 47 40 47 18 0 26 6 28
23 4 25 12 28 30 10 14 -14 25 -5 27 22 1 11 17 30 36 43 36 25 58 25 38 0z
m-705 -10 c-9 -39 -21 -48 -82 -61 -48 -11 -55 -10 -74 8 l-22 20 25 0 c14 0
29 4 35 9 18 17 89 51 107 51 14 0 16 -5 11 -27z m-640 -5 c-8 -28 -3 -24 -42
-31 -29 -6 -31 -5 -20 8 7 8 19 21 26 30 20 24 45 19 36 -7z m2246 -18 c0 -5
-4 -10 -10 -10 -5 0 -10 5 -10 10 0 6 5 10 10 10 6 0 10 -4 10 -10z m-1167
-32 c31 1 20 -35 -13 -41 -16 -4 -38 -15 -48 -25 -18 -18 -19 -18 -18 24 1 44
14 57 46 46 8 -2 23 -4 33 -4z m-272 -24 c23 -21 85 -25 100 -7 13 15 49 18
49 4 0 -14 -50 -51 -69 -51 -9 0 -27 -7 -39 -16 -22 -15 -24 -15 -29 5 -6 25
-11 26 -34 5 -14 -12 -25 -14 -45 -7 -38 13 -39 26 -4 46 16 10 30 22 30 28 0
14 22 11 41 -7z m3282 -70 c-6 -17 -23 -9 -23 11 0 8 6 12 14 9 8 -3 12 -12 9
-20z m-2990 -24 c3 -11 1 -20 -4 -20 -5 0 -9 9 -9 20 0 11 2 20 4 20 2 0 6 -9
9 -20z m-447 -123 c-1 -37 5 -51 37 -90 20 -25 37 -49 37 -54 0 -4 24 -21 54
-36 36 -19 70 -49 102 -89 27 -33 60 -73 73 -89 13 -16 21 -32 18 -35 -5 -5
-23 7 -95 61 -21 16 -45 41 -67 68 -11 14 -28 26 -37 27 -9 0 -26 15 -37 34
-12 19 -28 37 -36 40 -8 3 -15 13 -15 22 0 9 -13 33 -30 54 -16 21 -30 42 -30
46 0 10 -56 69 -84 88 -22 15 -15 33 18 45 16 7 30 2 57 -20 32 -25 36 -33 35
-72z m367 86 c-7 -2 -19 -2 -25 0 -7 3 -2 5 12 5 14 0 19 -2 13 -5z m-153 -39
c0 -8 -4 -12 -10 -9 -5 3 -10 10 -10 16 0 5 5 9 10 9 6 0 10 -7 10 -16z m220
-8 c0 -3 -4 -8 -10 -11 -5 -3 -10 -1 -10 4 0 6 5 11 10 11 6 0 10 -2 10 -4z
m60 -6 c0 -5 -4 -10 -9 -10 -6 0 -13 5 -16 10 -3 6 1 10 9 10 9 0 16 -4 16
-10z m3268 -33 c5 -24 -15 -21 -21 4 -3 13 -1 19 6 16 7 -2 13 -11 15 -20z
m-3378 -48 c0 -5 -7 -9 -15 -9 -15 0 -20 12 -9 23 8 8 24 -1 24 -14z m3340 -2
c0 -8 9 -22 20 -32 21 -19 27 -69 9 -80 -15 -10 -18 -5 -39 64 -15 50 -16 61
-4 61 8 0 14 -6 14 -13z m-2990 -17 c0 -5 -5 -10 -11 -10 -5 0 -7 5 -4 10 3 6
8 10 11 10 2 0 4 -4 4 -10z m2930 -77 c0 -7 -4 -13 -8 -13 -12 0 -32 23 -32
37 0 11 4 11 20 1 11 -7 20 -18 20 -25z m290 -8 c-7 -8 -16 -15 -21 -15 -13 0
-11 24 3 38 18 18 35 -3 18 -23z m-2814 -46 c10 -17 -12 -32 -36 -24 -17 5
-19 10 -9 21 14 17 35 18 45 3z m2614 -3 c0 -25 -12 -46 -26 -46 -17 0 -18 32
-2 48 16 16 28 15 28 -2z m20 -170 c0 -31 -5 -46 -16 -50 -24 -9 -28 -1 -16
34 6 17 9 37 6 45 -4 9 0 15 10 15 12 0 16 -10 16 -44z m-3380 -56 c0 -11 -7
-20 -15 -20 -17 0 -18 2 -9 24 9 23 24 20 24 -4z m3530 -70 c0 -26 -30 -34
-46 -13 -17 22 -17 36 -2 51 15 15 48 -12 48 -38z m-210 15 c0 -8 -4 -15 -10
-15 -5 0 -10 7 -10 15 0 8 5 15 10 15 6 0 10 -7 10 -15z m130 0 c0 -8 -7 -15
-15 -15 -8 0 -15 7 -15 15 0 8 7 15 15 15 8 0 15 -7 15 -15z m-75 -65 c2 -19
-2 -30 -10 -30 -11 0 -13 23 -6 69 3 15 14 -14 16 -39z m135 0 c0 -5 -4 -10
-10 -10 -5 0 -10 5 -10 10 0 6 5 10 10 10 6 0 10 -4 10 -10z m-140 -120 c0 -5
-4 -10 -10 -10 -5 0 -10 5 -10 10 0 6 5 10 10 10 6 0 10 -4 10 -10z m-2717
-61 c-6 -30 -5 -32 21 -27 23 5 26 3 20 -16 -9 -29 -7 -28 -69 -31 -63 -3 -67
7 -17 41 26 18 29 23 16 28 -13 5 -14 9 -4 21 22 27 40 18 33 -16z m-376 4 c5
3 17 -1 27 -9 17 -12 18 -14 2 -20 -9 -4 -24 0 -34 8 -9 9 -23 13 -29 11 -7
-3 -13 -1 -13 5 0 16 13 22 26 11 7 -6 17 -8 21 -6z m3213 -3 c0 -4 -6 -13
-14 -19 -17 -14 -31 2 -22 24 5 15 36 10 36 -5z m-3100 -20 c0 -5 -4 -10 -10
-10 -5 0 -10 5 -10 10 0 6 5 10 10 10 6 0 10 -4 10 -10z m50 0 c-21 -13 3 -53
43 -68 26 -10 29 -14 17 -22 -13 -9 -13 -11 0 -20 11 -7 17 -4 23 12 5 14 3
24 -5 30 -7 4 -8 8 -3 8 20 0 35 -17 41 -47 5 -26 1 -37 -27 -66 -47 -48 -81
-55 -104 -20 -16 23 -16 33 -6 71 9 36 9 46 -4 58 -8 9 -15 29 -15 45 0 25 4
29 28 29 20 0 23 -3 12 -10z m2860 -20 c0 -5 -11 -29 -24 -52 -23 -41 -46 -61
-46 -39 0 6 5 11 10 11 6 0 10 6 10 14 0 8 8 28 18 45 17 30 32 40 32 21z
m230 -60 c38 -38 50 -60 32 -60 -4 0 -13 5 -19 11 -15 15 -44 4 -37 -15 3 -8
0 -17 -7 -22 -7 -4 -15 -2 -17 4 -2 7 -12 12 -22 12 -10 0 -22 5 -26 12 -5 8
2 9 24 5 35 -7 38 -1 21 37 -11 23 -7 56 6 56 3 0 23 -18 45 -40z m-113 -2
c-3 -8 -6 -5 -6 6 -1 11 2 17 5 13 3 -3 4 -12 1 -19z m-67 -8 c0 -11 -4 -20
-9 -20 -13 0 -32 26 -24 33 13 14 33 6 33 -13z m-105 -89 c3 -5 1 -12 -5 -16
-5 -3 -10 1 -10 9 0 18 6 21 15 7z m-15 -131 c0 -5 -4 -10 -10 -10 -5 0 -10 5
-10 10 0 6 5 10 10 10 6 0 10 -4 10 -10z m132 -36 c-6 -35 -12 -29 -12 14 0
23 3 32 9 24 4 -7 6 -24 3 -38z m-72 -29 c0 -8 -7 -15 -15 -15 -8 0 -15 7 -15
15 0 8 7 15 15 15 8 0 15 -7 15 -15z m-2735 -34 c-7 -23 -25 -29 -25 -8 0 14
21 39 28 33 2 -3 1 -14 -3 -25z m2665 -7 c0 -8 -4 -12 -10 -9 -5 3 -10 13 -10
21 0 8 5 12 10 9 6 -3 10 -13 10 -21z m160 -167 c0 -10 -52 -56 -63 -57 -9 0
-3 27 16 71 10 24 12 25 29 10 10 -8 18 -19 18 -24z m-138 -69 c-6 -6 -16 -7
-22 -3 -9 6 -9 9 1 16 17 10 34 0 21 -13z m-322 -17 c0 -6 -4 -13 -10 -16 -5
-3 -10 1 -10 9 0 9 5 16 10 16 6 0 10 -4 10 -9z m-40 -31 c18 -12 2 -12 -25 0
-13 6 -15 9 -5 9 8 0 22 -4 30 -9z m-2610 -10 c0 -5 -7 -10 -16 -10 -8 0 -12
5 -9 10 3 6 10 10 16 10 5 0 9 -4 9 -10z m1050 -15 c7 -14 10 -28 6 -32 -10
-10 -50 33 -42 46 11 17 21 13 36 -14z m1890 5 c0 -5 -4 -10 -10 -10 -5 0 -10
5 -10 10 0 6 5 10 10 10 6 0 10 -4 10 -10z m318 -2 c16 -16 15 -28 -3 -28 -7
0 -18 -8 -24 -17 -8 -15 -12 -16 -23 -5 -11 11 -10 16 5 26 9 7 17 18 17 25 0
14 13 14 28 -1z m-2218 -95 c0 -24 -16 -31 -22 -11 -3 7 -2 23 0 36 4 18 7 20
13 10 5 -7 9 -23 9 -35z m2391 -6 c-1 -12 -15 -9 -19 4 -3 6 1 10 8 8 6 -3 11
-8 11 -12z m-1204 -49 c-3 -8 -6 -5 -6 6 -1 11 2 17 5 13 3 -3 4 -12 1 -19z
m-1197 -20 c0 -5 -9 -4 -20 2 -11 6 -18 15 -14 21 6 11 34 -7 34 -23z m87 -20
c-3 -8 -6 -5 -6 6 -1 11 2 17 5 13 3 -3 4 -12 1 -19z m-1307 3 c0 -6 -4 -13
-10 -16 -5 -3 -10 1 -10 9 0 9 5 16 10 16 6 0 10 -4 10 -9z m2412 -16 c0 -5
-5 -11 -11 -13 -6 -2 -11 4 -11 13 0 9 5 15 11 13 6 -2 11 -8 11 -13z m-892
-10 c0 -8 -4 -15 -10 -15 -5 0 -7 7 -4 15 4 8 8 15 10 15 2 0 4 -7 4 -15z
m1957 -31 c-3 -3 -12 -4 -19 -1 -8 3 -5 6 6 6 11 1 17 -2 13 -5z m-2137 -59
c7 -8 8 -15 2 -15 -5 0 -15 7 -22 15 -7 8 -8 15 -2 15 5 0 15 -7 22 -15z m254
-21 c4 -11 1 -14 -11 -12 -9 2 -18 9 -21 16 -6 18 25 15 32 -4z m861 -42 c-9
-9 -25 19 -24 43 0 16 2 15 15 -8 9 -16 13 -32 9 -35z m109 -23 c-2 -4 -15 -4
-29 -1 -24 4 -33 21 -19 35 8 7 54 -25 48 -34z m74 -2 c3 -13 -3 -17 -27 -17
-33 0 -39 8 -19 28 17 17 42 11 46 -11z m-518 -42 c0 -25 0 -25 -30 -10 -34
18 -31 35 6 35 19 0 24 -5 24 -25z m-1112 -3 c2 -7 -3 -12 -12 -12 -9 0 -16 7
-16 16 0 17 22 14 28 -4z m71 -57 c29 -2 56 -38 47 -61 -6 -15 -9 -15 -27 4
-32 35 -80 57 -90 41 -6 -10 -11 -10 -25 2 -16 13 -15 14 12 20 16 4 36 4 44
1 8 -3 26 -6 39 -7z m251 -34 c0 -5 10 -12 23 -14 21 -4 21 -4 1 -6 -12 0 -27
6 -34 14 -9 10 -9 15 -1 15 6 0 11 -4 11 -9z m-129 -93 c27 -13 49 -26 49 -30
0 -5 11 -8 24 -8 27 0 75 -34 64 -45 -4 -4 -27 1 -50 12 -24 11 -55 23 -70 27
-34 8 -98 45 -98 57 0 15 30 10 81 -13z m1469 -71 c0 -18 -2 -19 -10 -7 -13
20 -13 43 0 35 6 -3 10 -16 10 -28z m100 -22 c10 -13 9 -15 -9 -15 -12 0 -21
6 -21 15 0 8 4 15 9 15 5 0 14 -7 21 -15z m-3326 -20 c-16 -24 -44 -34 -44
-16 0 11 39 41 52 41 5 0 1 -11 -8 -25z m1946 0 c19 -14 28 -25 21 -25 -20 0
-48 18 -55 35 -7 20 -6 19 34 -10z m937 -87 c-3 -8 -6 -5 -6 6 -1 11 2 17 5
13 3 -3 4 -12 1 -19z m-2967 -5 c0 -15 2 -14 14 3 21 28 32 9 12 -20 -9 -14
-16 -34 -16 -44 0 -23 -25 -46 -40 -37 -14 9 -13 25 5 58 8 15 12 34 8 42 -3
8 0 15 6 15 6 0 11 -8 11 -17z m2584 -48 c-4 -8 -12 -15 -20 -15 -17 0 -18 17
-1 23 22 9 27 7 21 -8z m70 9 c9 -3 16 -13 16 -22 0 -14 -1 -14 -12 0 -7 9
-20 18 -28 21 -8 3 -10 6 -3 6 6 1 18 -2 27 -5z m1445 -43 c6 -10 7 -21 4 -25
-9 -8 -33 14 -33 30 0 20 18 17 29 -5z m-1071 -76 c6 -14 10 -25 8 -25 -2 0
-11 11 -20 25 -9 14 -13 25 -8 25 5 0 14 -11 20 -25z m1032 -6 c0 -5 5 -7 10
-4 6 3 10 4 10 0 0 -3 -11 -10 -25 -15 -23 -9 -25 -14 -20 -44 5 -24 3 -35 -8
-39 -10 -4 -17 -28 -22 -72 -4 -44 -12 -68 -21 -72 -8 -3 -18 -3 -21 1 -12 11
-4 70 11 81 9 7 15 32 17 71 3 71 7 84 25 84 8 0 14 5 14 10 0 6 7 10 15 10 8
0 15 -5 15 -11z m-996 -35 c19 -7 22 -58 4 -52 -7 3 -19 -1 -26 -9 -20 -19
-41 -16 -37 6 3 15 34 61 41 61 1 0 9 -3 18 -6z m-318 -31 c-7 -7 -26 7 -26
19 0 6 6 6 15 -2 9 -7 13 -15 11 -17z m-956 -3 c0 -5 -4 -10 -10 -10 -5 0 -10
5 -10 10 0 6 5 10 10 10 6 0 10 -4 10 -10z m2405 -20 c8 -13 -5 -13 -25 0 -13
8 -13 10 2 10 9 0 20 -4 23 -10z m-81 -9 c3 -5 -1 -14 -9 -21 -11 -9 -12 -17
-4 -32 9 -16 7 -24 -9 -38 -11 -11 -22 -25 -25 -32 -3 -10 -8 -10 -16 -2 -10
9 -7 22 9 56 11 25 20 49 19 54 -4 24 23 35 35 15z m-2374 -21 c0 -5 -9 -10
-19 -10 -11 0 -23 5 -26 10 -4 6 5 10 19 10 14 0 26 -4 26 -10z m1259 -50 c-6
-5 -9 -17 -7 -28 7 -24 -17 -62 -38 -62 -8 0 -14 -5 -14 -11 0 -5 -4 -7 -10
-4 -18 11 -11 45 9 45 12 0 23 12 31 33 7 17 17 43 24 56 l11 24 3 -23 c2 -12
-2 -26 -9 -30z m-251 -2 c-3 -7 -11 -13 -18 -13 -7 0 -15 6 -17 13 -3 7 4 12
17 12 13 0 20 -5 18 -12z m1197 -38 c-3 -6 -10 -10 -16 -10 -10 0 -12 33 -2
44 9 9 26 -22 18 -34z m-1051 -24 c-21 -15 -30 -14 -19 3 3 6 14 11 23 11 13
0 13 -2 -4 -14z m-851 -26 c5 -4 -25 -7 -67 -7 -70 1 -94 9 -63 20 18 6 121
-4 130 -13z m1923 -35 c2 -26 -10 -33 -21 -15 -4 6 -1 17 5 25 16 19 15 19 16
-10z m46 -10 c0 -5 -5 -11 -11 -13 -6 -2 -11 4 -11 13 0 9 5 15 11 13 6 -2 11
-8 11 -13z m-402 -57 c0 -16 -3 -19 -11 -11 -6 6 -8 16 -5 22 11 17 16 13 16
-11z m463 7 c1 -5 -6 -11 -15 -13 -11 -2 -18 3 -18 13 0 17 30 18 33 0z m-33
-92 c-1 -18 -18 -35 -24 -24 -4 6 -4 16 -1 21 7 12 25 13 25 3z m-3558 -23 c0
-11 1 -25 2 -32 1 -15 -15 -20 -32 -9 -9 5 -11 17 -6 34 7 31 33 36 36 7z
m1163 10 c7 -12 -22 -12 -50 0 -17 7 -15 9 12 9 17 1 35 -3 38 -9z m2506 -20
c10 0 19 5 21 12 5 14 28 2 28 -15 0 -13 -69 -39 -82 -31 -5 3 -8 17 -8 32 0
20 3 23 12 14 7 -7 20 -12 29 -12z m-461 -15 c7 -8 10 -26 8 -40 -4 -17 -1
-25 9 -25 19 0 11 -24 -9 -28 -9 -2 -19 6 -23 17 -3 12 -12 27 -20 35 -16 16
-9 56 10 56 7 0 18 -7 25 -15z m-3080 -25 c0 -5 -5 -10 -11 -10 -5 0 -7 5 -4
10 3 6 8 10 11 10 2 0 4 -4 4 -10z m125 -40 c3 -5 -1 -10 -9 -10 -8 0 -18 5
-21 10 -3 6 1 10 9 10 8 0 18 -4 21 -10z m-128 -16 c-3 -3 -12 -4 -19 -1 -8 3
-5 6 6 6 11 1 17 -2 13 -5z m168 -24 c10 -11 14 -20 8 -20 -5 0 -18 9 -28 20
-10 11 -14 20 -8 20 5 0 18 -9 28 -20z m-173 -12 c20 5 38 -12 38 -35 0 -7
-11 -13 -25 -13 -14 0 -25 4 -25 10 0 5 -11 12 -25 16 -14 3 -25 9 -25 13 0
15 13 20 28 12 8 -5 24 -6 34 -3z m238 -33 c21 -25 2 -31 -20 -7 -15 16 -17
22 -7 22 8 0 20 -7 27 -15z m2817 -167 c-3 -8 -6 -5 -6 6 -1 11 2 17 5 13 3
-3 4 -12 1 -19z m253 -9 c0 -8 -32 -29 -44 -29 -10 0 -6 26 5 37 12 12 39 7
39 -8z m-260 -35 c0 -8 -7 -14 -15 -14 -17 0 -18 2 -9 24 7 18 24 12 24 -10z
m-7256 -101 c-8 -44 -23 -68 -36 -55 -9 9 22 92 35 92 4 0 5 -17 1 -37z m7366
-17 c0 -14 -4 -28 -10 -31 -6 -4 -10 7 -10 24 0 17 5 31 10 31 6 0 10 -11 10
-24z m-8335 -6 c-3 -5 -11 -10 -16 -10 -6 0 -7 5 -4 10 3 6 11 10 16 10 6 0 7
-4 4 -10z m205 -70 c0 -5 -4 -10 -10 -10 -5 0 -10 5 -10 10 0 6 5 10 10 10 6
0 10 -4 10 -10z m725 -38 c-8 -8 -25 17 -25 38 0 9 6 6 16 -8 9 -13 13 -26 9
-30z m6179 -5 c-6 -16 -61 -40 -74 -32 -15 9 -2 25 34 40 33 14 48 11 40 -8z
m-6805 -84 c14 -48 14 -69 0 -94 -13 -26 -22 -19 -48 36 -12 25 -25 45 -30 45
-16 0 -23 -38 -11 -60 7 -13 7 -20 0 -20 -5 0 -10 6 -10 14 0 8 -6 16 -14 19
-7 3 -18 19 -24 36 -10 29 -9 31 14 31 18 0 24 5 24 23 0 12 7 33 17 46 l16
24 28 -31 c15 -17 33 -48 38 -69z m7998 75 c-3 -8 -6 -5 -6 6 -1 11 2 17 5 13
3 -3 4 -12 1 -19z m-1367 -54 c0 -8 -4 -14 -9 -14 -11 0 -22 26 -14 34 9 9 23
-3 23 -20z m1505 -44 c-3 -5 -10 -10 -16 -10 -5 0 -9 5 -9 10 0 6 7 10 16 10
8 0 12 -4 9 -10z m-1395 -61 c122 -38 170 -85 215 -209 23 -64 26 -84 20 -140
-13 -124 -85 -381 -133 -477 -11 -21 -27 -65 -36 -97 -10 -32 -25 -71 -34 -85
-40 -62 -76 -83 -47 -27 19 36 19 42 0 26 -8 -7 -15 -18 -15 -25 0 -7 -10 -25
-21 -40 -18 -22 -20 -29 -8 -36 11 -7 11 -9 -3 -9 -10 0 -18 -5 -18 -11 0 -7
-8 -17 -17 -24 -19 -14 -35 -120 -22 -146 12 -23 -27 -72 -52 -66 -26 7 -24
-15 6 -63 14 -22 25 -44 25 -50 0 -23 -64 -108 -77 -103 -11 5 -18 -14 -14
-39 2 -12 -47 -40 -59 -33 -5 3 -10 1 -10 -4 0 -6 4 -11 10 -11 6 0 6 -9 -1
-26 -12 -33 -5 -42 17 -23 10 8 15 9 13 4 -34 -85 -45 -104 -60 -100 -12 4
-19 -10 -32 -67 -10 -40 -17 -89 -17 -109 0 -26 -8 -43 -30 -64 -16 -16 -30
-34 -30 -40 0 -7 -11 -29 -25 -49 -14 -20 -25 -45 -25 -55 0 -25 -55 -124 -90
-161 -36 -38 -64 -128 -61 -188 2 -28 -3 -50 -13 -61 -21 -24 -48 -91 -42
-106 2 -7 -3 -15 -12 -18 -26 -7 -95 -167 -109 -253 -4 -21 -19 -52 -35 -70
-36 -40 -118 -200 -118 -231 0 -13 -6 -23 -14 -23 -17 0 -29 -27 -16 -35 6 -4
10 -11 10 -18 0 -6 -6 -3 -13 8 -9 11 -19 15 -26 10 -9 -5 -10 -10 -2 -18 16
-16 14 -24 -9 -30 -18 -5 -19 -8 -9 -31 14 -30 26 -33 31 -9 2 11 9 5 23 -20
19 -35 19 -38 3 -69 -10 -18 -22 -45 -27 -60 -11 -29 -25 -36 -36 -18 -3 5
-15 10 -26 10 -14 0 -19 -7 -19 -25 0 -14 5 -25 10 -25 6 0 10 -4 10 -10 0
-20 -19 -9 -37 20 -18 32 -43 40 -43 15 0 -9 -9 -15 -22 -15 -13 0 -18 -4 -13
-8 14 -10 35 -49 35 -65 0 -7 9 -23 20 -35 21 -22 12 -39 -15 -28 -8 3 -48 0
-88 -6 -70 -11 -73 -13 -102 -57 -17 -25 -36 -55 -43 -68 -7 -13 -18 -23 -23
-23 -16 0 -57 -49 -80 -96 -12 -23 -41 -66 -64 -94 -27 -33 -45 -66 -49 -91
-3 -21 -20 -61 -36 -89 -17 -28 -28 -55 -25 -60 2 -4 0 -22 -6 -40 -11 -30
-14 -32 -50 -27 -34 4 -41 1 -72 -32 -18 -20 -42 -49 -52 -64 -10 -16 -31 -42
-47 -59 -16 -17 -27 -37 -24 -43 2 -7 -6 -23 -19 -35 -20 -19 -27 -21 -39 -11
-13 11 -17 7 -29 -21 -8 -19 -22 -42 -32 -51 -9 -10 -18 -25 -20 -35 -1 -9 -9
-16 -18 -16 -8 1 -13 -4 -11 -10 7 -18 -42 -60 -61 -52 -10 4 -19 -2 -24 -17
-5 -12 -28 -33 -52 -47 -23 -14 -63 -44 -87 -67 -25 -24 -51 -43 -59 -43 -7 0
-13 -6 -13 -13 0 -17 -52 -67 -70 -67 -7 0 -26 -14 -42 -32 -15 -17 -28 -26
-28 -19 0 11 -3 11 -14 1 -8 -6 -13 -17 -11 -23 3 -7 -3 -21 -13 -32 -20 -23
-101 -65 -126 -65 -10 0 -14 -5 -10 -12 5 -7 3 -8 -5 -4 -16 10 -51 -21 -51
-45 0 -10 -20 -32 -45 -49 -25 -17 -45 -26 -45 -21 0 7 -9 7 -25 -1 -22 -10
-25 -16 -20 -40 4 -16 2 -28 -3 -28 -5 0 -13 -11 -16 -24 -3 -14 -29 -48 -57
-77 -49 -51 -52 -52 -66 -33 -14 18 -15 18 -34 -9 -23 -30 -39 -35 -39 -13 0
8 9 18 20 21 11 3 20 14 20 23 0 9 9 25 19 37 10 11 37 39 59 63 27 28 42 54
44 75 2 23 9 33 23 36 26 4 36 21 30 47 -4 18 1 23 29 28 48 9 90 32 133 72
19 19 39 34 44 34 20 0 80 44 85 64 6 23 74 70 117 81 15 4 27 10 27 14 0 4
18 26 40 49 33 34 40 48 40 82 0 41 14 52 38 28 9 -9 15 -9 24 0 7 7 20 12 29
12 10 0 21 9 24 20 3 11 12 20 19 20 7 0 29 15 49 32 20 18 57 50 82 72 28 23
48 49 52 67 3 16 12 29 19 29 8 0 16 16 20 40 6 37 9 40 37 37 23 -1 32 3 35
15 2 11 -3 18 -12 18 -9 0 -16 5 -16 11 0 7 10 9 26 5 23 -6 24 -5 14 14 -9
17 -8 21 7 26 35 11 48 21 61 47 7 15 21 31 31 37 32 16 32 39 1 94 -17 29
-30 56 -30 60 0 11 45 2 46 -9 3 -38 18 -63 40 -68 15 -3 24 0 24 9 0 7 14 14
33 16 32 3 32 3 33 61 0 52 4 61 36 95 20 20 43 51 51 67 8 17 24 39 36 49 12
11 21 24 21 31 0 12 9 23 75 101 19 23 35 47 35 53 0 7 9 21 20 33 24 26 26
46 5 54 -21 8 -19 24 3 24 23 0 42 19 42 41 0 9 7 19 15 23 8 3 20 17 25 31 5
14 16 25 23 25 8 0 22 9 31 19 17 18 17 21 1 45 -17 25 -17 26 3 26 38 0 72
22 72 46 0 14 20 46 50 79 55 61 54 59 40 86 -8 15 -7 21 4 25 11 4 14 14 10
30 -5 18 -2 24 9 24 9 0 19 -4 22 -10 9 -14 35 -12 35 3 0 7 -10 18 -22 26
l-21 13 23 18 c14 10 29 33 36 52 7 22 18 34 32 36 13 2 22 11 22 21 0 10 7
24 15 31 8 7 15 18 15 25 0 8 11 36 25 63 14 28 25 56 25 64 0 7 7 23 15 36 9
12 15 27 14 34 -2 7 1 23 5 36 5 14 3 28 -4 37 -17 20 4 71 32 78 15 4 19 10
13 24 -18 42 -16 61 7 86 13 14 35 27 48 29 22 3 26 10 34 56 5 28 12 52 17
52 4 0 5 21 3 48 -6 50 -6 56 -1 117 2 22 -1 43 -7 47 -8 5 -7 8 2 8 17 0 54
-39 47 -50 -3 -5 -1 -12 5 -15 15 -9 42 15 36 31 -3 7 2 18 9 24 9 8 13 21 9
36 -4 15 1 34 16 54 12 16 20 38 18 48 -1 10 7 29 20 42 12 13 22 30 22 37 0
14 -30 48 -49 54 -7 3 -8 14 -3 32 l7 28 24 -20 c12 -11 29 -17 38 -14 8 3 19
0 24 -8 6 -10 10 -5 15 19 7 36 7 36 34 20 14 -9 23 -9 30 -2 8 8 0 22 -26 48
-30 30 -34 39 -24 51 10 12 10 18 0 30 -17 20 -4 129 14 122 9 -4 11 3 8 20
-4 24 -3 25 24 20 70 -14 69 -14 70 18 0 17 3 42 7 57 5 19 0 41 -18 76 -14
28 -25 53 -25 56 0 12 28 6 40 -9 16 -20 36 -4 43 33 2 15 10 41 17 58 12 28
10 34 -24 87 -49 77 -48 92 4 62 14 -8 36 -14 49 -15 20 0 21 2 11 15 -10 12
-10 15 4 15 9 0 16 -4 16 -10 0 -5 4 -10 9 -10 12 0 43 68 36 80 -3 5 1 23 10
39 8 17 15 38 15 48 0 10 9 26 20 36 11 9 20 25 20 36 0 10 9 21 20 24 20 5
28 27 10 27 -5 0 -10 7 -10 16 0 12 6 15 25 10 21 -5 25 -2 31 29 4 25 2 41
-8 53 -29 34 -32 45 -9 33 11 -7 21 -17 21 -23 0 -7 5 -6 15 2 8 7 15 22 15
34 0 24 18 76 41 121 10 19 13 39 8 55 -13 45 -11 52 11 40 31 -16 35 10 10
59 -21 43 -17 51 16 26 28 -21 33 -19 32 18 0 17 4 49 10 69 9 33 7 39 -14 59
-13 12 -24 31 -24 41 0 23 -76 98 -100 98 -18 0 -80 -54 -80 -70 0 -6 -7 -10
-17 -10 -9 0 -31 -11 -49 -25 l-33 -25 -40 21 c-54 28 -62 40 -39 62 10 9 18
13 18 7 0 -5 5 -10 10 -10 6 0 10 16 10 36 0 28 -3 35 -15 30 -10 -3 -15 1
-15 14 0 10 -7 25 -15 34 -20 19 -19 26 3 26 10 0 28 -13 40 -29 27 -37 90
-51 109 -25 7 9 10 28 7 40 -6 23 1 44 14 44 4 0 36 -9 72 -21z m-6740 -106
c40 -38 45 -66 17 -101 -14 -17 -37 4 -37 34 0 13 -9 33 -20 44 -20 20 -25 41
-13 53 10 10 10 10 53 -30z m6474 -22 c-21 -23 -34 -5 -22 30 l10 30 13 -23
c9 -18 9 -26 -1 -37z m-6186 29 c6 0 12 -11 12 -25 0 -17 -5 -25 -18 -25 -32
0 -40 -18 -30 -63 5 -23 14 -48 21 -56 10 -12 9 -13 -3 -6 -42 23 -47 34 -44
107 1 40 3 75 3 77 1 2 11 1 24 -3 12 -3 28 -6 35 -6z m7459 -42 c-3 -8 -6 -5
-6 6 -1 11 2 17 5 13 3 -3 4 -12 1 -19z m353 -32 c0 -3 -4 -8 -10 -11 -5 -3
-10 -1 -10 4 0 6 5 11 10 11 6 0 10 -2 10 -4z m-2795 -32 c27 -18 29 -22 17
-42 -7 -10 -15 -9 -40 4 -30 15 -40 33 -25 47 10 11 22 8 48 -9z m2719 -19 c3
-8 1 -15 -4 -15 -6 0 -10 7 -10 15 0 8 2 15 4 15 2 0 6 -7 10 -15z m-8334 -15
c9 -6 17 -5 22 3 6 9 8 8 8 -3 0 -13 1 -13 10 0 9 13 11 13 20 0 6 -10 10 -11
10 -2 0 20 14 14 27 -13 10 -23 9 -24 -12 -19 -29 7 -65 -40 -65 -88 0 -28 -6
-36 -42 -56 -45 -24 -59 -22 -40 8 19 31 14 67 -10 85 -15 10 -19 18 -12 23 6
4 19 22 29 40 20 34 30 38 55 22z m5540 0 c0 -5 -7 -7 -15 -4 -8 4 -15 8 -15
10 0 2 7 4 15 4 8 0 15 -4 15 -10z m2970 -29 c0 -14 -18 -23 -31 -15 -8 4 -7
9 2 15 18 11 29 11 29 0z m-209 -44 c-8 -8 -11 -5 -11 9 0 27 14 41 18 19 2
-9 -1 -22 -7 -28z m-7764 -99 c-3 -8 -6 -5 -6 6 -1 11 2 17 5 13 3 -3 4 -12 1
-19z m7789 -65 c-10 -10 -19 5 -10 18 6 11 8 11 12 0 2 -7 1 -15 -2 -18z
m-6925 -22 c27 -22 18 -42 -10 -24 -21 13 -33 7 -50 -24 -8 -15 -22 -23 -48
-25 -20 -2 -39 -9 -41 -17 -3 -10 1 -12 16 -9 13 4 27 -1 38 -13 9 -10 25 -19
34 -19 27 0 98 67 105 99 3 16 12 34 19 40 24 20 73 1 106 -40 24 -30 35 -37
48 -30 9 4 23 6 31 3 7 -2 16 0 20 6 4 7 12 8 21 2 11 -7 10 -12 -10 -28 -26
-21 -20 -42 11 -42 11 0 22 -7 25 -15 4 -8 13 -15 21 -15 25 0 8 -25 -20 -28
-23 -3 -26 -7 -20 -33 6 -30 -18 -79 -38 -79 -6 0 -24 14 -41 31 l-31 31 -23
-25 c-16 -18 -30 -23 -48 -20 -19 4 -26 1 -26 -11 0 -17 -43 -40 -92 -50 -40
-9 -48 -59 -15 -90 19 -17 27 -40 35 -99 7 -42 9 -83 6 -92 -4 -8 0 -25 8 -38
8 -13 15 -52 16 -97 l2 -75 -30 59 c-17 33 -33 77 -36 98 -7 43 -11 46 -30 21
-12 -17 -14 -16 -38 6 -20 19 -29 22 -38 13 -32 -32 -80 9 -71 61 8 51 -19 97
-57 97 -34 0 -34 1 -21 115 5 39 19 93 31 120 13 28 22 56 21 64 -1 7 7 22 18
32 12 11 24 38 27 60 4 24 14 43 23 47 9 3 19 9 22 14 3 5 16 11 29 13 13 2
28 9 34 15 15 15 41 12 67 -9z m5559 -161 c0 -22 -61 -53 -84 -44 -39 15 -15
51 25 39 12 -4 23 1 31 14 14 23 28 18 28 -9z m70 5 c0 -8 -4 -15 -9 -15 -13
0 -22 16 -14 24 11 11 23 6 23 -9z m1215 -95 c-11 -17 -23 -1 -18 21 5 19 7
19 15 5 5 -9 6 -21 3 -26z m-6478 8 c-3 -8 -6 -5 -6 6 -1 11 2 17 5 13 3 -3 4
-12 1 -19z m6591 -30 c-3 -7 -11 -13 -18 -13 -7 0 -15 6 -17 13 -3 7 4 12 17
12 13 0 20 -5 18 -12z m-141 -40 c-3 -8 -6 -5 -6 6 -1 11 2 17 5 13 3 -3 4
-12 1 -19z m-5797 -59 c0 -17 -3 -18 -20 -9 -14 7 -20 21 -20 43 l1 32 19 -24
c11 -13 20 -32 20 -42z m5940 -31 c0 -5 -6 -8 -12 -8 -7 0 -23 -3 -35 -6 -28
-8 -30 11 -7 45 l17 24 18 -24 c10 -13 19 -27 19 -31z m-6843 -20 c-3 -8 -6
-5 -6 6 -1 11 2 17 5 13 3 -3 4 -12 1 -19z m6780 -44 c2 -6 -9 -11 -26 -11
-21 0 -28 4 -24 14 6 16 45 14 50 -3z m-6803 -31 c3 -16 8 -38 12 -50 9 -33
-20 -30 -35 3 -8 19 -9 30 0 40 6 7 8 18 4 24 -3 5 -2 10 3 10 5 0 12 -12 16
-27z m6896 -3 c9 -17 8 -20 -10 -20 -11 0 -20 2 -20 4 0 2 -3 11 -6 20 -9 24
23 20 36 -4z m-1752 -11 c23 -18 27 -19 30 -5 5 22 22 20 22 -3 0 -10 -7 -21
-15 -25 -8 -3 -15 -1 -15 5 0 6 -4 8 -9 5 -4 -3 -23 6 -41 19 -25 18 -29 25
-16 25 10 0 30 -9 44 -21z m-5093 -89 c-8 -13 -35 -1 -35 15 0 7 6 15 13 18
14 5 31 -19 22 -33z m250 20 c3 -5 18 -10 32 -10 22 0 24 -3 18 -27 -9 -38 -9
-38 -50 -19 -35 17 -60 48 -48 60 10 10 41 7 48 -4z m-205 -54 c0 -18 -27 -39
-40 -31 -16 10 -12 33 8 38 29 8 32 7 32 -7z m-105 -6 c3 -5 1 -10 -4 -10 -6
0 -11 5 -11 10 0 6 2 10 4 10 3 0 8 -4 11 -10z m6570 -10 c3 -5 1 -10 -4 -10
-6 0 -11 5 -11 10 0 6 2 10 4 10 3 0 8 -4 11 -10z m-6530 -52 c1 -15 9 -34 19
-41 13 -10 15 -16 8 -21 -7 -4 -12 -19 -12 -32 0 -16 -5 -24 -12 -21 -8 2 -12
17 -10 35 2 24 -3 35 -22 48 -29 18 -32 34 -14 52 20 20 43 9 43 -20z m85 7
c0 -25 -23 -35 -35 -15 -10 16 2 40 20 40 9 0 15 -9 15 -25z m6564 -44 c-16
-15 -16 -15 -9 4 4 11 10 29 13 40 6 18 7 18 10 -4 2 -13 -4 -31 -14 -40z
m-1589 28 c4 -13 1 -27 -9 -38 -9 -10 -16 -29 -16 -44 0 -14 -4 -29 -10 -32
-5 -3 -10 -15 -10 -26 0 -14 -6 -19 -17 -17 -24 4 -27 25 -5 32 23 8 32 34 32
92 0 55 22 76 35 33z m1679 -48 c32 -48 28 -63 -12 -39 -31 19 -53 55 -45 75
8 21 25 11 57 -36z m-6174 9 c0 -19 -11 -26 -23 -14 -8 8 3 34 14 34 5 0 9 -9
9 -20z m4543 -31 c5 -39 3 -48 -11 -53 -9 -3 -23 -9 -31 -12 -11 -5 -12 0 -7
22 8 31 37 97 41 92 1 -2 5 -24 8 -49z m-253 1 c-19 -13 -30 -13 -30 0 0 6 10
10 23 10 18 0 19 -2 7 -10z m1991 -161 c29 -21 38 -52 18 -65 -14 -8 -69 45
-69 68 0 24 15 23 51 -3z m-5741 -13 c0 -3 -4 -8 -10 -11 -5 -3 -10 -1 -10 4
0 6 5 11 10 11 6 0 10 -2 10 -4z m5335 -16 c3 -5 -3 -10 -14 -10 -11 0 -23 5
-26 10 -3 6 3 10 14 10 11 0 23 -4 26 -10z m169 -9 c3 -5 -1 -14 -8 -20 -16
-13 -32 2 -21 19 8 12 22 13 29 1z m-3744 -21 c0 -5 -7 -10 -15 -10 -8 0 -15
5 -15 10 0 6 7 10 15 10 8 0 15 -4 15 -10z m3514 -19 c3 -5 -1 -14 -9 -21 -8
-7 -15 -10 -15 -7 0 3 -3 12 -6 21 -7 17 20 23 30 7z m-3574 -21 c0 -5 7 -10
16 -10 13 0 14 -3 4 -15 -10 -12 -14 -12 -26 0 -16 16 -18 35 -4 35 6 0 10 -4
10 -10z m-3203 -22 c-3 -8 -6 -5 -6 6 -1 11 2 17 5 13 3 -3 4 -12 1 -19z
m6954 -45 c-8 -15 -10 -15 -11 -2 0 17 10 32 18 25 2 -3 -1 -13 -7 -23z
m-3711 8 c0 -16 -47 -30 -59 -18 -18 18 -13 24 24 25 19 1 35 -2 35 -7z m-231
-25 c9 -11 9 -16 0 -21 -10 -7 -28 10 -29 28 0 12 17 8 29 -7z m3763 -1 c0 -5
-5 -11 -11 -13 -6 -2 -11 4 -11 13 0 9 5 15 11 13 6 -2 11 -8 11 -13z m-6752
-37 c11 -18 20 -41 20 -51 0 -29 -24 -14 -31 19 -4 16 -10 37 -14 47 -12 29 4
19 25 -15z m3158 -25 c2 -13 -3 -32 -11 -44 -14 -19 -15 -18 -19 26 -2 36 0
45 12 43 8 -2 16 -13 18 -25z m1987 -3 c8 -13 2 -13 -29 1 -14 7 -23 16 -20
20 6 10 39 -5 49 -21z m1523 -5 c-1 -14 -6 -25 -10 -25 -10 0 -10 13 -2 34 9
23 14 19 12 -9z m242 11 c0 -7 -7 -19 -15 -26 -16 -13 -20 -3 -9 24 8 20 24
21 24 2z m-136 -14 c-7 -4 -14 -18 -15 -31 -5 -30 -27 -39 -36 -16 -6 17 29
54 52 55 6 0 5 -4 -1 -8z m-4494 -49 c0 -46 -1 -48 -27 -48 -57 0 -68 26 -28
69 38 41 55 35 55 -21z m4620 3 c0 -3 -4 -8 -10 -11 -5 -3 -10 -1 -10 4 0 6 5
11 10 11 6 0 10 -2 10 -4z m-130 -119 c0 -10 -6 -20 -14 -23 -8 -3 -20 -19
-26 -35 -7 -16 -21 -34 -32 -40 -11 -6 -17 -16 -15 -24 6 -15 -11 -35 -32 -35
-12 0 -11 3 2 18 18 20 23 52 8 52 -5 0 -14 -6 -21 -14 -16 -21 -40 -9 -40 20
0 24 14 32 25 14 11 -17 23 -11 33 18 6 15 11 21 11 15 1 -19 19 -16 42 6 16
15 19 26 14 50 -3 17 -3 40 0 52 7 20 9 19 26 -17 10 -21 18 -47 19 -57z m187
68 c-15 -16 -22 -11 -13 10 3 9 10 13 16 10 6 -4 5 -11 -3 -20z m-2082 -15
c11 -36 -5 -150 -22 -150 -12 0 -14 14 -9 83 3 45 5 83 5 85 3 11 21 -2 26
-18z m-1935 -120 c0 -5 -5 -10 -11 -10 -5 0 -7 5 -4 10 3 6 8 10 11 10 2 0 4
-4 4 -10z m2649 -34 c0 -7 -2 -6 -6 2 -2 6 -11 12 -19 12 -9 0 -12 5 -9 10 8
13 35 -6 34 -24z m685 9 c39 -16 40 -35 2 -35 -25 0 -46 17 -46 37 0 16 0 16
44 -2z m-3354 -5 c0 -5 -5 -10 -11 -10 -5 0 -7 5 -4 10 3 6 8 10 11 10 2 0 4
-4 4 -10z m2398 -15 c9 -20 9 -25 -1 -25 -17 0 -37 20 -37 37 0 22 26 14 38
-12z m1110 -3 c2 -15 -2 -22 -12 -22 -9 0 -16 -5 -16 -10 0 -6 -12 -16 -26
-22 -21 -10 -27 -9 -35 3 -5 8 -9 19 -9 25 0 17 31 26 46 13 19 -15 36 -1 28
23 -4 15 -2 19 7 16 8 -3 15 -14 17 -26z m107 -12 c3 -13 0 -29 -6 -37 -14
-16 -51 -17 -67 -1 -16 16 -15 28 3 28 8 0 24 9 36 21 23 23 28 22 34 -11z
m-1687 -28 c2 -7 -3 -12 -12 -12 -9 0 -16 7 -16 16 0 17 22 14 28 -4z m462
-23 c0 -11 -4 -17 -10 -14 -5 3 -10 13 -10 21 0 8 5 14 10 14 6 0 10 -9 10
-21z m-4366 5 c19 -7 21 -30 4 -40 -6 -4 -17 1 -25 11 -23 32 -15 43 21 29z
m5516 -38 c0 -8 3 -21 6 -30 8 -21 -10 -20 -42 0 -23 16 -23 17 -7 30 24 18
43 18 43 0z m-1620 -21 c0 -8 -4 -15 -9 -15 -5 0 -11 7 -15 15 -3 9 0 15 9 15
8 0 15 -7 15 -15z m48 -25 c1 -24 -4 -50 -12 -62 -14 -19 -15 -18 -21 25 -5
32 -3 50 6 61 21 23 24 20 27 -24z m-3998 4 c0 -17 -5 -17 -31 -4 -27 15 -24
28 6 22 14 -2 25 -11 25 -18z m-191 -33 c9 -6 10 -10 2 -16 -15 -8 -41 1 -41
15 0 12 20 13 39 1z m1320 -60 c-2 -34 -14 -60 -25 -53 -13 9 -24 50 -18 67 7
18 44 6 43 -14z m3139 10 c3 -8 -1 -12 -9 -9 -7 2 -15 10 -17 17 -3 8 1 12 9
9 7 -2 15 -10 17 -17z m12 -83 c0 -5 -7 -8 -15 -8 -19 0 -29 24 -20 48 6 15 8
14 20 -8 8 -14 14 -28 15 -32z m-366 -28 c-4 -16 -10 -27 -15 -24 -11 6 -12
78 -2 88 12 11 23 -32 17 -64z m-4006 -17 c2 -8 -5 -13 -17 -13 -12 0 -21 6
-21 16 0 18 31 15 38 -3z m4352 -18 c13 -14 32 -25 42 -25 27 0 22 -19 -8 -30
-14 -6 -29 -10 -34 -10 -9 0 -50 66 -50 81 0 17 26 9 50 -16z m-356 -46 c-2
-61 -5 -79 -13 -79 -9 0 -19 81 -13 100 7 20 27 4 26 -21z m1424 -1 c30 -30
-3 -68 -42 -46 -16 9 -22 39 -9 51 10 11 38 8 51 -5z m-3758 -88 c0 -17 -2
-19 -14 -8 -10 9 -11 15 -2 20 16 11 16 10 16 -12z m4180 6 c0 -2 -7 -7 -16
-10 -8 -3 -12 -2 -9 4 6 10 25 14 25 6z m50 -36 c0 -5 -2 -10 -4 -10 -3 0 -8
5 -11 10 -3 6 -1 10 4 10 6 0 11 -4 11 -10z m-402 -18 c2 -7 -3 -12 -12 -12
-9 0 -16 7 -16 16 0 17 22 14 28 -4z m-4790 -43 c-2 -35 1 -53 10 -56 8 -3 12
6 12 29 1 27 8 37 36 56 56 35 67 28 39 -24 -17 -34 -20 -80 -4 -90 8 -4 7
-10 -1 -18 -9 -8 -14 -8 -17 2 -7 19 -24 14 -21 -5 2 -13 -5 -19 -25 -21 -23
-3 -28 -8 -24 -23 3 -10 1 -22 -4 -25 -5 -3 -9 -14 -9 -25 0 -16 3 -18 19 -9
12 6 17 17 14 29 -4 15 0 18 21 14 26 -5 37 -33 14 -33 -7 0 -5 -5 5 -11 18
-11 24 -49 7 -49 -5 0 -10 5 -10 10 0 6 -12 10 -26 10 -17 0 -28 -6 -31 -20
-7 -25 -38 -26 -48 -2 -15 33 -13 136 3 160 10 16 13 38 10 75 -6 60 -2 77 18
77 11 0 14 -12 12 -51z m3552 47 c0 -2 -7 -9 -15 -16 -12 -10 -15 -10 -15 4 0
9 7 16 15 16 8 0 15 -2 15 -4z m1580 -27 c0 -4 -7 -6 -15 -3 -8 4 -15 10 -15
15 0 4 7 6 15 3 8 -4 15 -10 15 -15z m-1903 -36 c-3 -10 -5 -4 -5 12 0 17 2
24 5 18 2 -7 2 -21 0 -30z m-8 -74 c-19 -12 -24 -2 -8 17 9 11 14 13 17 4 3
-7 -2 -16 -9 -21z m1991 11 c0 -5 -4 -10 -9 -10 -6 0 -13 5 -16 10 -3 6 1 10
9 10 9 0 16 -4 16 -10z m-6140 -20 c0 -22 -44 -101 -61 -111 -30 -16 -24 17
11 61 17 21 30 43 30 49 0 6 5 11 10 11 6 0 10 -5 10 -10z m1085 -9 c8 -14
-13 -24 -33 -16 -14 5 -14 7 -2 15 19 12 27 12 35 1z m3320 -1 c3 -5 1 -10 -4
-10 -6 0 -11 5 -11 10 0 6 2 10 4 10 3 0 8 -4 11 -10z m-3272 -201 c3 -13 1
-19 -6 -16 -15 5 -22 37 -9 37 5 0 12 -9 15 -21z m3214 -11 c-3 -8 -6 -5 -6 6
-1 11 2 17 5 13 3 -3 4 -12 1 -19z m1648 -18 c3 -5 1 -10 -4 -10 -6 0 -11 5
-11 10 0 6 2 10 4 10 3 0 8 -4 11 -10z m-608 -22 c-3 -8 -6 -5 -6 6 -1 11 2
17 5 13 3 -3 4 -12 1 -19z m-4358 -101 c-7 -22 -22 -50 -32 -61 -10 -12 -31
-37 -47 -56 l-29 -35 -1 31 c0 17 -3 44 -6 60 -5 25 -2 30 25 41 21 7 31 18
31 32 0 11 9 25 20 31 11 6 20 18 20 28 0 13 4 11 16 -7 15 -20 15 -28 3 -64z
m4471 58 c0 -8 -7 -15 -15 -15 -9 0 -12 6 -9 15 4 8 10 15 15 15 5 0 9 -7 9
-15z m140 -69 c-15 -15 -33 4 -19 20 10 12 14 12 20 2 5 -7 4 -17 -1 -22z
m-1344 -13 c-10 -10 -19 5 -10 18 6 11 8 11 12 0 2 -7 1 -15 -2 -18z m264 18
c0 -17 -18 -21 -24 -6 -3 9 0 15 9 15 8 0 15 -4 15 -9z m780 -21 c0 -5 -2 -10
-4 -10 -3 0 -8 5 -11 10 -3 6 -1 10 4 10 6 0 11 -4 11 -10z m-4480 -29 c0 -12
-29 -35 -36 -28 -11 10 5 37 21 37 8 0 15 -4 15 -9z m4540 0 c0 -21 -13 -41
-26 -41 -17 0 -18 22 -2 38 14 14 28 16 28 3z m647 -37 c-3 -3 -12 -4 -19 -1
-8 3 -5 6 6 6 11 1 17 -2 13 -5z m-637 -66 c0 -18 -2 -20 -9 -8 -6 8 -7 18 -5
22 9 14 14 9 14 -14z m-1203 -4 c-3 -3 -12 -4 -19 -1 -8 3 -5 6 6 6 11 1 17
-2 13 -5z m1103 -94 c0 -5 -4 -10 -10 -10 -5 0 -10 5 -10 10 0 6 5 10 10 10 6
0 10 -4 10 -10z m-40 -60 c0 -11 -7 -20 -15 -20 -15 0 -21 21 -8 33 12 13 23
7 23 -13z m130 -31 c0 -5 -4 -9 -10 -9 -5 0 -10 7 -10 16 0 8 5 12 10 9 6 -3
10 -10 10 -16z m-85 -19 c3 -5 -1 -10 -9 -10 -9 0 -16 5 -16 10 0 6 4 10 9 10
6 0 13 -4 16 -10z m-1237 -23 c2 -11 -2 -14 -17 -10 -22 5 -26 14 -14 27 10
10 28 1 31 -17z m1164 -38 c9 -45 -5 -58 -39 -37 -35 21 -41 38 -14 38 15 0
21 6 21 21 0 33 24 17 32 -22z m107 19 c-7 -13 -17 -26 -23 -30 -7 -4 -5 -9 6
-13 14 -6 14 -10 1 -45 -15 -38 -57 -68 -68 -50 -11 18 7 80 26 91 11 5 19 18
19 29 0 10 8 24 18 29 27 16 34 13 21 -11z m-4792 -83 c-4 -8 -14 -15 -23 -15
-16 0 -16 2 1 20 20 22 31 20 22 -5z m4883 5 c-20 -13 -43 -13 -35 0 3 6 16
10 28 10 18 0 19 -2 7 -10z m175 -20 c3 -5 -1 -10 -9 -10 -9 0 -16 5 -16 10 0
6 4 10 9 10 6 0 13 -4 16 -10z m-4653 -32 c-15 -15 -26 -4 -18 18 5 13 9 15
18 6 9 -9 9 -15 0 -24z m243 -34 c-22 -37 -24 -48 -14 -55 7 -4 10 -11 6 -15
-4 -4 -12 -3 -18 3 -17 17 -38 5 -32 -18 4 -13 0 -19 -11 -19 -11 0 -16 7 -15
18 1 9 -1 25 -6 35 -8 19 9 47 29 47 7 0 23 11 36 25 41 43 55 31 25 -21z
m4015 7 c0 -5 9 -11 19 -14 49 -12 65 -98 21 -110 -21 -5 -40 -44 -40 -81 0
-13 -7 -29 -15 -36 -9 -8 -15 -29 -15 -55 0 -29 5 -45 15 -49 10 -3 15 -19 15
-46 0 -37 -13 -55 -22 -28 -2 6 -10 8 -17 4 -9 -6 -9 -11 -1 -21 7 -8 9 -23 5
-35 -5 -16 -2 -20 14 -20 24 0 25 -4 11 -30 -10 -19 -11 -19 -45 0 -37 21 -39
20 -49 -22 -8 -36 8 -44 35 -17 20 20 22 20 31 5 9 -16 11 -16 21 -2 11 14 13
13 24 -9 12 -27 13 -26 -46 -78 -17 -15 -31 -23 -31 -17 0 5 -4 10 -10 10 -5
0 -10 -16 -10 -36 0 -27 -5 -37 -20 -41 -11 -3 -20 -12 -20 -20 0 -8 -14 -33
-31 -54 -17 -21 -25 -37 -17 -34 22 9 51 -20 55 -55 4 -39 -10 -60 -37 -53
-11 3 -20 0 -20 -6 0 -6 -11 -8 -31 -4 -25 5 -31 2 -36 -16 -3 -11 -9 -21 -13
-21 -5 0 -21 -20 -36 -44 -16 -25 -32 -42 -37 -39 -5 3 -13 -1 -18 -8 -8 -12
-11 -12 -18 1 -9 12 -11 12 -17 -3 -8 -21 12 -48 30 -41 9 4 14 -4 14 -21 0
-24 -3 -26 -29 -21 -16 3 -29 2 -29 -2 0 -8 -24 -43 -50 -71 -32 -35 -55 -77
-55 -101 0 -17 -9 -29 -30 -39 -16 -8 -38 -25 -48 -38 -10 -13 -25 -23 -34
-23 -9 0 -13 -6 -10 -14 3 -7 -1 -26 -9 -41 -18 -35 -18 -35 9 -35 19 -1 20
-2 5 -10 -10 -6 -14 -18 -11 -30 7 -27 -4 -65 -24 -85 -14 -14 -14 -20 -4 -37
8 -14 9 -24 3 -30 -13 -13 -33 -1 -30 17 2 8 -1 14 -7 14 -5 1 -10 -8 -10 -19
0 -11 -6 -25 -13 -32 -7 -7 -12 -19 -12 -27 0 -8 -8 -23 -17 -33 -15 -17 -15
-19 1 -31 16 -12 15 -15 -18 -32 -29 -16 -34 -23 -30 -42 5 -20 2 -23 -21 -23
-24 0 -26 3 -20 23 4 12 8 36 9 53 1 16 6 36 10 42 4 7 3 12 -2 12 -13 0 -24
-28 -27 -65 -4 -53 -5 -56 -13 -51 -4 2 -16 -2 -26 -9 -15 -11 -17 -22 -13
-50 8 -51 -7 -85 -37 -85 -14 0 -28 5 -31 10 -11 18 -45 11 -45 -9 0 -11 -8
-22 -19 -26 -24 -7 -38 -130 -17 -154 19 -23 27 -51 21 -72 -7 -20 -40 -26
-50 -9 -13 20 -27 10 -21 -15 5 -18 2 -27 -9 -31 -21 -9 -65 23 -65 46 0 31
-31 24 -65 -14 -44 -49 -63 -56 -113 -43 -37 10 -44 9 -65 -11 -13 -12 -30
-22 -37 -22 -11 0 -11 -3 -2 -12 25 -25 14 -40 -25 -36 -34 4 -37 2 -51 -34
-9 -24 -22 -38 -32 -38 -22 0 -44 26 -37 43 3 8 -1 14 -9 14 -7 0 -16 -8 -19
-18 -3 -9 -32 -30 -65 -45 -40 -20 -61 -36 -65 -51 -3 -14 -13 -23 -24 -23
-10 0 -21 -6 -24 -13 -3 -7 -19 -12 -41 -11 -24 1 -39 -3 -45 -15 -9 -14 -10
-14 -17 3 -5 12 -2 22 9 28 10 5 17 15 17 22 0 7 8 20 18 30 26 23 132 76 153
76 12 0 16 6 12 21 -4 16 -11 19 -29 15 -17 -5 -24 -2 -24 8 0 19 17 30 22 15
2 -7 19 5 38 25 26 27 41 36 58 33 25 -5 52 15 52 38 0 17 52 55 74 55 10 0
16 -8 16 -21 l0 -20 29 20 c16 12 33 21 38 21 4 0 14 9 21 21 11 17 11 23 -2
32 -10 8 -13 21 -9 39 6 29 21 36 39 18 8 -8 15 -6 24 6 12 14 11 18 -9 34
-14 9 -21 22 -17 29 9 14 46 15 46 1 0 -16 27 -12 34 5 3 8 -2 22 -11 30 -15
15 -14 18 6 38 l21 21 0 -22 c0 -13 6 -22 15 -22 11 0 14 7 9 26 -5 18 -1 29
11 38 16 12 17 16 4 44 -8 18 -17 32 -20 32 -11 0 -18 40 -9 45 11 7 60 -5 58
-14 -2 -19 3 -32 11 -27 11 7 3 43 -17 73 -18 28 -7 45 26 41 16 -2 27 2 28
10 1 6 2 17 3 22 0 6 7 10 15 10 18 0 27 23 16 40 -11 18 52 41 92 33 21 -4
28 -2 28 11 0 9 -7 16 -15 16 -8 0 -15 9 -15 20 0 11 7 20 16 20 8 0 12 5 9
10 -4 6 -4 28 0 50 6 34 10 38 33 37 22 -2 26 2 24 18 -8 50 -6 60 11 63 11 2
31 -8 47 -23 31 -29 56 -28 67 2 3 10 13 34 21 53 9 19 14 50 13 68 -2 23 2
32 13 32 18 0 27 13 31 46 1 13 10 33 20 44 14 16 16 23 7 32 -21 21 -13 30
23 26 29 -3 35 -1 35 14 0 10 -5 18 -11 18 -6 0 -4 9 5 22 12 16 13 25 4 35
-9 11 -7 15 10 20 26 6 31 57 7 67 -15 5 -45 -18 -45 -35 0 -6 -5 -7 -11 -3
-8 4 -8 9 0 17 6 6 11 21 11 32 0 34 11 37 37 9 15 -16 30 -23 42 -19 19 6 85
-18 95 -34 3 -5 3 -17 0 -26 -6 -14 -15 -16 -45 -11 -31 5 -40 3 -48 -13 -8
-15 -7 -20 6 -25 9 -4 21 -2 26 3 6 6 19 6 33 1 13 -5 24 -6 24 -2 0 4 5 0 10
-8 9 -13 15 -10 38 17 42 48 74 104 68 119 -3 8 -16 14 -29 14 -29 0 -80 60
-75 87 2 12 -9 24 -31 35 -19 9 -37 21 -40 26 -3 5 -13 12 -21 15 -8 3 -1 6
16 6 18 1 45 -6 60 -14 50 -26 70 -19 65 23 -1 6 3 12 9 12 6 0 22 7 35 16 20
13 22 19 12 35 -9 14 -9 21 1 31 17 17 15 45 -3 52 -9 3 -12 12 -8 22 5 14 7
14 15 1 5 -9 21 -15 38 -15 25 1 29 4 25 19 -5 14 -2 17 9 13 11 -4 16 0 16
14 0 12 5 24 10 27 6 3 10 1 10 -5 0 -7 6 -10 13 -7 6 2 17 -3 24 -12 11 -14
12 -14 13 5 0 11 -4 24 -9 30 -4 5 -11 24 -14 42 -5 24 -2 37 12 51 14 14 16
22 8 31 -9 8 -7 15 10 28 15 12 21 24 17 38 -4 15 4 29 30 52 20 17 36 41 36
52 0 17 4 20 21 15 18 -6 19 -5 8 12 -9 15 -8 26 5 51 18 35 22 92 5 92 -5 0
-7 5 -4 10 3 6 19 10 34 10 15 0 31 3 35 7 3 4 14 8 23 9 12 2 13 0 4 -9 -6
-6 -11 -20 -11 -31 0 -24 15 -11 25 22 5 16 2 24 -12 29 -24 9 -34 26 -21 35
13 7 48 -8 48 -21z m-1033 -63 c-3 -8 -6 -5 -6 6 -1 11 2 17 5 13 3 -3 4 -12
1 -19z m-3245 -20 c-14 -15 -22 -18 -22 -9 0 15 32 43 39 35 3 -3 -5 -14 -17
-26z m3348 -18 c0 -5 -2 -10 -4 -10 -3 0 -8 5 -11 10 -3 6 -1 10 4 10 6 0 11
-4 11 -10z m-3314 -55 c-9 -14 -21 -25 -26 -25 -5 0 -16 -12 -24 -27 -18 -35
-82 -88 -118 -97 -39 -9 -35 5 11 40 22 16 42 38 45 49 3 11 22 31 42 45 82
56 99 59 70 15z m2854 5 c-19 -13 -30 -13 -30 0 0 6 10 10 23 10 18 0 19 -2 7
-10z m1680 -25 c0 -14 -4 -25 -10 -25 -5 0 -10 11 -10 25 0 14 5 25 10 25 6 0
10 -11 10 -25z m-4657 -22 c-7 -2 -19 -2 -25 0 -7 3 -2 5 12 5 14 0 19 -2 13
-5z m4758 -33 c22 -12 26 -40 6 -40 -18 0 -49 34 -40 43 8 9 11 9 34 -3z
m-1865 -75 c-3 -8 -10 -15 -15 -15 -5 0 -4 11 2 25 12 25 23 16 13 -10z m1009
25 c3 -5 -1 -10 -9 -10 -9 0 -16 5 -16 10 0 6 4 10 9 10 6 0 13 -4 16 -10z
m-3900 -60 c-3 -5 -10 -10 -16 -10 -5 0 -9 5 -9 10 0 6 7 10 16 10 8 0 12 -4
9 -10z m3855 -6 c0 -14 -3 -14 -15 -4 -8 7 -15 14 -15 16 0 2 7 4 15 4 8 0 15
-7 15 -16z m-700 2 c0 -3 -4 -8 -10 -11 -5 -3 -10 -1 -10 4 0 6 5 11 10 11 6
0 10 -2 10 -4z m874 -31 c-4 -8 -8 -15 -10 -15 -2 0 -4 7 -4 15 0 8 4 15 10
15 5 0 7 -7 4 -15z m-935 -17 c-1 -13 0 -30 3 -38 3 -8 3 -12 1 -7 -3 4 -11 7
-19 7 -17 0 -19 31 -2 48 16 16 18 15 17 -10z m-3019 -12 c0 -2 -7 -6 -15 -10
-8 -3 -15 -1 -15 4 0 6 7 10 15 10 8 0 15 -2 15 -4z m3700 -42 c0 -2 -7 -4
-15 -4 -8 0 -15 4 -15 10 0 5 7 7 15 4 8 -4 15 -8 15 -10z m850 -19 c0 -16 -6
-25 -15 -25 -18 0 -20 21 -3 38 17 17 18 16 18 -13z m-4828 -7 c-7 -7 -12 -8
-12 -2 0 14 12 26 19 19 2 -3 -1 -11 -7 -17z m4003 12 c3 -5 1 -10 -4 -10 -6
0 -11 5 -11 10 0 6 2 10 4 10 3 0 8 -4 11 -10z m285 -55 c0 -2 -7 -2 -16 -1
-23 4 -40 36 -23 46 8 6 17 0 26 -17 7 -14 13 -27 13 -28z m-4020 32 c0 -28
-114 -108 -151 -106 -20 1 -21 2 -4 6 11 3 38 24 60 47 56 59 95 81 95 53z
m4420 -37 c0 -5 -7 -10 -15 -10 -8 0 -15 5 -15 10 0 6 7 10 15 10 8 0 15 -4
15 -10z m-4787 -50 c-9 -16 -21 -30 -26 -30 -9 0 -1 17 21 43 23 26 25 21 5
-13z m4694 -52 c-3 -8 -6 -5 -6 6 -1 11 2 17 5 13 3 -3 4 -12 1 -19z m-4670
-30 c-3 -8 -6 -5 -6 6 -1 11 2 17 5 13 3 -3 4 -12 1 -19z m3963 1 c0 -5 -4 -9
-10 -9 -5 0 -10 7 -10 16 0 8 5 12 10 9 6 -3 10 -10 10 -16z m725 1 c3 -5 1
-10 -4 -10 -6 0 -11 5 -11 10 0 6 2 10 4 10 3 0 8 -4 11 -10z m-3947 -27 c-2
-22 -9 -29 -31 -31 -18 -2 -29 2 -33 12 -9 22 14 46 43 46 21 0 24 -4 21 -27z
m3412 -18 c10 -12 10 -15 -3 -15 -8 0 -17 7 -21 15 -3 8 -2 15 3 15 5 0 14 -7
21 -15z m-1300 -34 c0 -17 -18 -21 -24 -6 -3 9 0 15 9 15 8 0 15 -4 15 -9z
m1305 -31 c-3 -5 -10 -10 -16 -10 -5 0 -9 5 -9 10 0 6 7 10 16 10 8 0 12 -4 9
-10z m-3871 -49 c-15 -22 -30 -39 -32 -36 -7 7 27 73 41 78 20 7 19 2 -9 -42z
m299 -35 c-4 -25 -8 -34 -14 -25 -4 7 -5 25 -2 40 3 15 0 30 -6 33 -6 4 -11
12 -11 19 0 6 8 3 19 -8 14 -15 17 -30 14 -59z m-507 -4 c-20 -20 -38 -33 -41
-31 -7 8 58 77 68 72 4 -3 -8 -21 -27 -41z m2729 38 c3 -5 -1 -10 -9 -10 -9 0
-16 5 -16 10 0 6 4 10 9 10 6 0 13 -4 16 -10z m-41 -26 c13 -5 14 -9 5 -20
-20 -25 -60 -10 -44 16 7 12 17 12 39 4z m1206 -9 c0 -8 -4 -15 -9 -15 -13 0
-22 16 -14 24 11 11 23 6 23 -9z m-3457 -27 c3 -12 2 -29 -3 -39 -5 -9 -12
-59 -15 -110 -9 -144 -23 -228 -51 -297 -24 -61 -25 -65 -8 -83 21 -23 42 -25
50 -4 6 16 34 21 34 7 0 -14 -30 -71 -41 -77 -5 -4 -9 -15 -9 -26 0 -11 -8
-23 -17 -26 -22 -8 -50 -39 -58 -62 -4 -13 -17 -17 -63 -16 l-59 0 8 30 c4 17
12 45 18 63 12 40 5 68 -14 52 -9 -8 -14 -4 -17 15 -3 14 -1 28 3 31 5 3 9 -2
9 -10 0 -17 15 -21 24 -7 14 21 4 104 -14 126 -11 13 -10 21 6 50 14 26 15 38
7 46 -17 17 -31 3 -26 -24 4 -20 1 -23 -19 -22 -25 2 -37 30 -19 48 6 6 11 22
11 34 0 24 26 73 39 73 3 0 13 -5 21 -10 13 -8 12 -11 -5 -24 -18 -14 -18 -15
-2 -16 12 0 17 -8 17 -29 0 -16 6 -31 15 -35 11 -4 15 1 15 18 0 13 11 44 25
69 26 45 25 83 -1 73 -23 -9 -16 22 9 39 20 14 22 14 25 -1 5 -23 38 51 47
107 4 24 13 47 19 51 20 13 34 9 39 -14z m4032 2 c3 -5 1 -10 -4 -10 -6 0 -11
5 -11 10 0 6 2 10 4 10 3 0 8 -4 11 -10z m-4165 -49 c0 -5 -9 -11 -20 -14 -22
-6 -28 8 -7 16 19 8 27 8 27 -2z m2330 -8 c-1 -20 -44 -73 -60 -73 -5 0 -10
10 -10 21 0 16 5 20 19 16 22 -5 34 14 25 38 -4 9 0 15 10 15 9 0 16 -8 16
-17z m-2370 -87 c0 -8 -7 -16 -15 -20 -13 -4 -14 -2 -5 14 13 23 20 26 20 6z
m1567 -41 c3 -9 3 -19 -1 -22 -8 -9 -37 18 -30 28 8 14 24 11 31 -6z m2028 4
c10 -15 -1 -23 -20 -15 -9 3 -13 10 -10 16 8 13 22 13 30 -1z m-111 -104 c-4
-8 -8 -15 -10 -15 -2 0 -4 7 -4 15 0 8 4 15 10 15 5 0 7 -7 4 -15z m-49 -105
c0 -22 -39 -19 -43 3 -3 15 1 18 20 15 12 -2 23 -10 23 -18z m-1425 -70 c0 -5
-4 -10 -10 -10 -5 0 -10 5 -10 10 0 6 5 10 10 10 6 0 10 -4 10 -10z m-40 -40
c0 -5 -12 -10 -27 -9 -25 0 -26 1 -8 9 27 12 35 12 35 0z m1510 6 c0 -2 -3
-11 -6 -20 -9 -23 -24 -20 -24 4 0 11 7 20 15 20 8 0 15 -2 15 -4z m-190 -26
c0 -5 -4 -10 -10 -10 -5 0 -10 5 -10 10 0 6 5 10 10 10 6 0 10 -4 10 -10z
m-1450 -85 c0 -15 -48 -41 -57 -31 -3 2 0 14 7 25 12 24 50 28 50 6z m1378
-120 c-3 -3 -9 2 -12 12 -6 14 -5 15 5 6 7 -7 10 -15 7 -18z m-205 -359 c20
-16 22 -32 5 -42 -7 -4 -10 -4 -6 0 3 4 -3 17 -15 29 -13 13 -22 17 -25 9 -2
-7 -8 -12 -14 -12 -6 0 -6 6 2 15 15 18 29 19 53 1z m587 -36 c-6 -11 -13 -20
-15 -20 -3 0 -5 9 -5 20 0 11 7 20 15 20 13 0 14 -4 5 -20z m-743 -35 c-2 -5
-11 -11 -20 -13 -12 -3 -17 4 -17 21 0 13 3 27 7 31 9 9 35 -24 30 -39z
m-1582 5 c25 -9 25 -11 10 -34 -14 -20 -28 -26 -83 -32 -42 -4 -88 -17 -124
-35 -32 -16 -58 -27 -58 -24 0 4 -10 -1 -21 -9 -12 -8 -27 -12 -33 -10 -7 3
-25 -2 -42 -10 -27 -15 -30 -14 -54 9 -21 22 -23 27 -10 35 8 6 26 13 40 16
14 3 33 9 42 15 10 5 25 9 34 9 10 0 37 12 62 26 24 14 60 27 80 29 21 1 44 5
52 8 8 3 26 8 40 10 14 2 28 5 32 6 4 0 18 -3 33 -9z m1609 -46 c3 -9 6 -25 5
-37 0 -12 -3 -16 -6 -9 -2 6 -11 12 -18 12 -18 0 -28 17 -21 35 7 20 32 19 40
-1z m-2648 -21 c14 -9 30 -26 34 -37 6 -13 9 -15 9 -6 1 11 13 15 44 15 28 0
41 -4 40 -12 -2 -7 2 -13 7 -13 6 0 10 6 10 14 0 15 27 29 40 21 5 -3 11 -1
15 5 10 16 39 11 58 -10 16 -20 57 -28 57 -12 0 12 92 52 118 52 14 0 30 -13
47 -40 27 -42 31 -60 15 -60 -5 0 -10 5 -10 11 0 6 -9 8 -22 3 -24 -7 -83 -14
-152 -18 -43 -2 -59 -20 -26 -29 12 -3 19 -13 18 -24 -3 -43 2 -54 24 -51 15
2 24 -3 26 -14 2 -12 -3 -18 -16 -18 -11 0 -22 -5 -24 -11 -2 -6 -14 -8 -30
-4 -22 6 -26 12 -25 42 1 19 -4 37 -9 41 -6 4 -13 15 -17 25 -7 18 -23 21 -98
17 -31 -1 -60 5 -87 19 -44 22 -72 26 -87 12 -15 -13 -75 -22 -75 -10 0 20 31
84 47 97 22 16 39 15 69 -5z m2562 -15 c-6 -18 -28 -21 -28 -4 0 9 7 16 16 16
9 0 14 -5 12 -12z m-1998 -58 c0 -13 -11 -13 -30 0 -12 8 -11 10 8 10 12 0 22
-4 22 -10z m-120 -38 c0 -13 -12 -22 -22 -16 -10 6 -1 24 13 24 5 0 9 -4 9 -8z
m2030 -18 c0 -8 -4 -12 -10 -9 -5 3 -10 13 -10 21 0 8 5 12 10 9 6 -3 10 -13
10 -21z m-2100 -146 c0 -12 11 -36 25 -54 14 -18 25 -38 25 -43 0 -18 -36 9
-54 40 -18 30 -22 94 -6 84 6 -3 10 -16 10 -27z m-1820 2 c0 -5 -2 -10 -4 -10
-3 0 -8 5 -11 10 -3 6 -1 10 4 10 6 0 11 -4 11 -10z m-664 -8 c7 -4 14 -18 15
-32 4 -22 10 -26 62 -32 32 -4 75 -12 95 -18 20 -5 60 -10 87 -10 28 0 59 -6
70 -14 11 -7 38 -16 59 -20 22 -4 49 -14 59 -21 18 -13 18 -14 0 -23 -32 -17
-81 -24 -88 -12 -9 15 -25 2 -19 -15 8 -19 -77 -16 -92 3 -8 12 -15 12 -33 3
-12 -7 -30 -9 -41 -6 -23 7 -63 -12 -57 -28 2 -7 20 -10 45 -8 49 3 55 -11 12
-29 -22 -9 -33 -10 -44 -1 -10 9 -16 8 -26 -4 -7 -8 -16 -12 -21 -9 -14 8 -10
24 6 24 8 0 15 4 15 9 0 13 -26 32 -34 24 -4 -4 -20 8 -36 26 -23 28 -26 37
-17 53 15 22 23 23 31 1 5 -11 10 -13 17 -6 19 19 -1 38 -44 40 -68 2 -87 12
-87 42 0 15 9 37 20 49 22 24 29 26 46 14z m4984 -1 c0 -13 -40 -61 -51 -61
-16 0 -10 23 13 47 22 24 38 30 38 14z m-2350 -96 c7 -8 22 -15 33 -15 20 0
20 -1 2 -20 l-19 -21 -22 28 c-13 15 -23 31 -24 36 0 12 17 8 30 -8z m2225
-32 c19 -21 38 -48 41 -60 3 -11 15 -24 27 -28 17 -5 18 -8 7 -12 -8 -3 -21
-13 -28 -22 -12 -15 -14 -15 -23 1 -5 9 -16 24 -25 32 -8 9 -13 20 -9 25 3 6
-5 17 -19 26 -28 18 -39 48 -23 64 14 14 11 16 52 -26z m-2117 6 c-2 -6 -8
-10 -13 -10 -5 0 -11 4 -13 10 -2 6 4 11 13 11 9 0 15 -5 13 -11z m1982 -55
c0 -14 -3 -14 -15 -4 -8 7 -15 14 -15 16 0 2 7 4 15 4 8 0 15 -7 15 -16z m277
1 c8 -23 0 -25 -21 -4 -18 17 -18 19 -2 19 9 0 19 -7 23 -15z m-4267 -23 c0
-9 -9 -23 -19 -29 -17 -11 -21 -9 -26 7 -8 26 1 40 26 40 11 0 19 -7 19 -18z
m94 2 c25 -25 19 -33 -20 -24 -41 10 -48 15 -39 29 9 16 41 13 59 -5z m229
-25 c-7 -25 -32 -37 -43 -19 -13 20 0 40 25 40 19 0 22 -4 18 -21z m-1143 1
c0 -5 -4 -10 -10 -10 -5 0 -10 5 -10 10 0 6 5 10 10 10 6 0 10 -4 10 -10z
m530 -11 c-37 -8 -45 -6 -36 9 3 5 20 6 38 4 l33 -6 -35 -7z m130 12 c0 -6 -5
-13 -10 -16 -15 -9 -43 3 -35 15 8 13 45 13 45 1z m-820 -32 c0 -11 -4 -18
-10 -14 -5 3 -7 12 -3 20 7 21 13 19 13 -6z m581 3 c8 2 15 -7 17 -19 3 -21 2
-22 -27 -7 -20 10 -28 20 -24 30 4 11 8 12 13 4 4 -6 13 -10 21 -8z m629 8 c0
-5 -2 -10 -4 -10 -3 0 -8 5 -11 10 -3 6 -1 10 4 10 6 0 11 -4 11 -10z m-996
-42 c15 -59 -2 -94 -32 -64 -13 12 -13 19 -4 28 7 7 12 22 12 35 0 30 16 30
24 1z m5326 12 c0 -5 -5 -10 -11 -10 -5 0 -7 5 -4 10 3 6 8 10 11 10 2 0 4 -4
4 -10z m-3898 -32 c-6 -6 -16 -7 -22 -3 -9 6 -9 9 1 16 17 10 34 0 21 -13z
m3247 -59 c-13 -7 -47 -1 -54 11 -3 4 5 20 17 35 l21 27 14 -33 c10 -24 10
-34 2 -40z m-4159 47 c0 -3 -4 -8 -10 -11 -5 -3 -10 -1 -10 4 0 6 5 11 10 11
6 0 10 -2 10 -4z m740 -18 c5 -13 9 -17 9 -10 1 14 10 15 30 3 19 -12 -14 -62
-36 -54 -9 4 -22 -1 -29 -12 -13 -18 -14 -18 -14 3 0 12 5 22 11 22 23 0 1 25
-23 26 -57 2 -65 31 -10 37 20 2 41 4 45 5 4 1 12 -8 17 -20z m3070 1 c0 -5
-4 -9 -10 -9 -5 0 -10 7 -10 16 0 8 5 12 10 9 6 -3 10 -10 10 -16z m-3222 -37
c2 -7 -2 -10 -12 -6 -9 3 -16 11 -16 16 0 13 23 5 28 -10z m-668 -49 c0 -31
-3 -53 -6 -50 -10 10 -9 107 1 107 3 0 5 -25 5 -57z m1244 41 c28 -11 18 -34
-14 -34 -16 0 -33 0 -37 -1 -20 -1 -12 30 9 34 13 2 24 5 25 6 1 0 8 -2 17 -5z
m2546 -4 c0 -5 -5 -10 -11 -10 -5 0 -7 5 -4 10 3 6 8 10 11 10 2 0 4 -4 4 -10z
m717 -34 c-4 -9 -11 -16 -17 -16 -11 0 -14 33 -3 44 11 10 26 -11 20 -28z
m-3807 14 c0 -5 -4 -10 -10 -10 -5 0 -10 5 -10 10 0 6 5 10 10 10 6 0 10 -4
10 -10z m-260 -25 c0 -8 -4 -15 -9 -15 -5 0 -11 7 -15 15 -3 9 0 15 9 15 8 0
15 -7 15 -15z m549 -10 c3 -15 0 -17 -10 -8 -16 12 -59 0 -59 -17 0 -18 -28
-10 -33 10 -4 16 2 22 26 29 46 14 71 9 76 -14z m397 0 c17 -10 37 -30 46 -45
14 -24 13 -28 -3 -48 -21 -27 -29 -28 -29 -3 0 10 -7 25 -16 32 -9 7 -20 24
-25 36 -7 19 -14 22 -33 17 -28 -7 -43 11 -20 24 23 13 44 9 80 -13z m174 -20
c0 -18 8 -27 35 -36 36 -13 41 -23 26 -48 -11 -18 -61 -6 -91 21 -19 18 -21
23 -8 32 8 6 13 17 10 24 -6 19 6 44 18 37 5 -3 10 -17 10 -30z m2395 25 c3
-5 1 -10 -4 -10 -6 0 -11 5 -11 10 0 6 2 10 4 10 3 0 8 -4 11 -10z m-2708 -22
c-3 -8 -6 -5 -6 6 -1 11 2 17 5 13 3 -3 4 -12 1 -19z m3103 -18 c11 -22 25
-40 31 -40 7 0 9 -10 5 -23 -3 -12 1 -36 10 -51 17 -35 14 -39 -20 -30 -28 7
-52 36 -83 101 l-20 41 21 21 c28 29 33 27 56 -19z m-3235 21 c3 -5 1 -12 -5
-16 -5 -3 -10 1 -10 9 0 18 6 21 15 7z m698 -17 c3 -4 1 -16 -5 -27 -9 -17 -8
-19 6 -14 11 5 16 1 16 -14 0 -16 -3 -18 -19 -9 -11 5 -23 15 -26 20 -11 18
-25 10 -25 -14 0 -31 -19 -46 -53 -42 -39 4 -47 16 -40 59 7 43 31 49 62 15
l20 -21 10 26 c10 25 39 36 54 21z m2337 -85 c-7 -16 -10 -35 -6 -44 3 -9 0
-15 -9 -15 -8 0 -18 12 -21 28 -4 15 -13 36 -20 47 -8 11 -14 29 -13 40 0 11
3 14 6 8 7 -18 31 -16 51 4 16 16 17 15 20 -11 2 -16 -2 -41 -8 -57z m-2072
37 c2 -10 -3 -16 -16 -16 -30 0 -52 11 -52 25 0 30 62 22 68 -9z m57 24 c-3
-5 -12 -10 -20 -10 -8 0 -17 5 -20 10 -4 6 5 10 20 10 15 0 24 -4 20 -10z
m1819 -17 c-1 -16 -3 -41 -3 -58 -1 -16 -5 -25 -9 -19 -4 6 -15 13 -24 17 -22
8 -23 26 -3 33 8 4 15 12 15 18 0 9 19 36 25 36 0 0 0 -12 -1 -27z m86 -20 c0
-18 -10 -16 -26 5 -22 28 -18 48 6 27 11 -10 20 -24 20 -32z m-2060 22 c0 -2
-3 -11 -6 -20 -6 -14 -8 -14 -25 1 -14 13 -16 20 -8 25 11 6 39 2 39 -6z m261
-4 c-18 -11 -5 -31 19 -31 11 0 24 -9 29 -19 16 -28 -14 -36 -40 -10 -13 13
-29 19 -41 16 -17 -5 -19 -2 -14 18 4 17 1 25 -11 28 -10 3 2 5 27 6 29 0 40
-2 31 -8z m1640 -24 c-13 -13 -26 -3 -16 12 3 6 11 8 17 5 6 -4 6 -10 -1 -17z
m-1521 -18 c0 -18 -2 -19 -15 -9 -8 7 -15 16 -15 21 0 5 7 9 15 9 9 0 15 -9
15 -21z m540 3 c0 -4 -13 -16 -30 -25 -16 -10 -30 -25 -30 -33 0 -10 -8 -14
-22 -12 -29 4 -35 28 -9 35 12 3 21 9 21 14 0 5 9 9 19 9 11 0 23 5 26 10 7
12 25 13 25 2z m-439 -26 c-28 -29 -16 -39 39 -30 31 5 45 3 60 -11 17 -16 24
-16 44 -6 31 17 70 10 74 -13 3 -15 0 -18 -17 -13 -15 3 -25 -1 -31 -14 -14
-25 -40 -24 -47 1 -8 30 -23 24 -23 -9 0 -16 -6 -34 -14 -40 -11 -9 -18 -6
-34 14 -11 14 -27 25 -35 25 -9 0 -19 5 -22 10 -3 6 -20 10 -36 10 -27 0 -29
2 -19 21 7 11 9 31 6 44 -6 25 4 31 53 34 l24 1 -22 -24z m184 15 c3 -5 1 -12
-5 -16 -5 -3 -10 1 -10 9 0 18 6 21 15 7z m88 -1 c7 -6 21 -17 32 -25 16 -11
18 -16 8 -26 -21 -21 -15 -29 17 -22 24 4 30 2 30 -11 0 -9 -7 -19 -14 -22
-20 -8 -65 27 -66 49 0 22 -29 35 -40 18 -5 -9 -9 -7 -12 6 -10 38 16 57 45
33z m77 0 c0 -5 -12 -10 -26 -10 -14 0 -23 4 -19 10 3 6 15 10 26 10 10 0 19
-4 19 -10z m747 -32 c-3 -7 -5 -2 -5 12 0 14 2 19 5 13 2 -7 2 -19 0 -25z
m-1479 -11 c2 -12 -1 -15 -12 -11 -19 7 -22 38 -3 32 6 -3 13 -12 15 -21z
m1056 17 c12 -5 10 -11 -14 -30 -39 -33 -128 -41 -148 -13 -10 15 -18 16 -38
9 -33 -13 -47 -4 -34 21 10 17 22 19 115 19 57 0 110 -3 119 -6z m1121 -13 c3
-5 1 -12 -5 -16 -5 -3 -10 1 -10 9 0 18 6 21 15 7z m-337 -71 c24 0 24 1 8 25
-20 30 -20 45 -2 45 16 0 26 -21 26 -56 0 -23 -42 -74 -61 -74 -4 0 -4 -13 1
-30 10 -34 -3 -48 -26 -29 -9 7 -14 23 -11 35 3 16 -2 24 -16 28 -29 7 -38 -1
-31 -30 9 -33 -14 -40 -110 -35 -30 2 -46 31 -40 71 6 36 5 38 -30 50 -65 21
-37 35 71 36 80 0 104 4 118 17 15 16 19 15 48 -18 19 -22 40 -35 55 -35z
m180 58 c7 -7 12 -18 12 -25 0 -11 -5 -11 -21 -3 -11 7 -27 9 -35 6 -8 -3 -14
-2 -14 2 0 12 22 32 35 32 6 0 16 -5 23 -12z m-696 -3 c3 -4 1 -17 -6 -30 -13
-29 -51 -33 -82 -10 -18 13 -17 14 14 21 17 3 32 10 32 15 0 10 33 12 42 4z
m-138 -20 c3 -8 1 -15 -4 -15 -6 0 -10 7 -10 15 0 8 2 15 4 15 2 0 6 -7 10
-15z m283 -11 c3 -8 -2 -23 -11 -32 -13 -14 -20 -14 -36 -4 -11 6 -32 12 -47
12 -31 0 -24 10 20 26 46 17 67 16 74 -2z m680 -6 c-3 -8 -6 -5 -6 6 -1 11 2
17 5 13 3 -3 4 -12 1 -19z m-2457 -8 c0 -17 -6 -19 -45 -18 -45 2 -65 18 -22
18 12 0 29 5 37 10 23 15 30 12 30 -10z m2271 10 c10 -6 19 -17 19 -25 0 -23
-34 -17 -60 10 l-23 25 22 0 c12 0 31 -5 42 -10z m123 -16 c9 -3 16 -17 16
-31 0 -22 -2 -24 -16 -13 -38 32 -38 59 0 44z m-1150 -23 c3 -4 -1 -17 -9 -27
-10 -15 -16 -16 -26 -7 -6 6 -9 19 -6 27 7 17 32 22 41 7z m604 -14 c3 -12 -3
-17 -22 -17 -29 0 -44 19 -25 31 20 13 43 6 47 -14z m407 -17 c-3 -5 -13 -10
-21 -10 -8 0 -14 5 -14 10 0 6 9 10 21 10 11 0 17 -4 14 -10z m-462 -48 c-3
-12 -9 -22 -14 -22 -11 0 -12 54 -2 64 11 11 23 -19 16 -42z"/>
<path d="M6697 11084 c-8 -8 1 -24 14 -24 5 0 9 7 9 15 0 15 -12 20 -23 9z"/>
<path d="M6628 10075 c-6 -14 -8 -28 -5 -32 9 -8 47 27 47 44 0 23 -30 14 -42
-12z"/>
<path d="M7316 9921 c-3 -4 -4 -31 -3 -59 2 -46 3 -48 14 -29 23 41 12 126
-11 88z"/>
<path d="M6301 9504 c0 -11 3 -14 6 -6 3 7 2 16 -1 19 -3 4 -6 -2 -5 -13z"/>
<path d="M6100 9426 c0 -26 -5 -36 -20 -41 -11 -3 -20 -11 -20 -16 0 -6 -4 -7
-10 -4 -11 7 -26 -43 -15 -53 3 -4 13 2 21 13 8 11 22 19 30 17 9 -2 18 6 21
17 3 12 9 19 13 16 15 -10 41 27 38 54 -2 20 -9 27 -30 29 -26 3 -28 1 -28
-32z"/>
<path d="M5840 9105 c0 -34 -5 -48 -20 -57 -22 -14 -27 -38 -7 -38 46 1 52 9
53 76 1 48 -2 64 -12 64 -10 0 -14 -13 -14 -45z"/>
<path d="M5573 8954 c-7 -3 -20 -21 -29 -40 -9 -19 -20 -34 -25 -34 -5 0 -9
-5 -9 -12 0 -6 -9 -22 -21 -34 -28 -30 -19 -41 33 -40 38 1 42 4 50 34 5 18
15 32 24 32 24 0 27 -27 5 -49 -25 -25 -20 -43 28 -93 39 -43 60 -48 68 -18 4
17 12 8 34 -39 16 -34 29 -69 29 -80 0 -10 11 -26 25 -35 14 -9 27 -27 31 -40
3 -13 15 -27 27 -30 38 -10 85 -7 89 6 4 10 10 10 32 0 51 -23 53 9 5 62 -11
11 -19 32 -19 46 0 29 -12 42 -114 120 -61 47 -72 52 -106 47 -31 -4 -37 -2
-33 10 3 8 1 24 -5 36 -6 12 -12 33 -14 47 -2 16 -11 26 -28 30 -19 5 -26 14
-30 40 -5 34 -20 45 -47 34z m195 -246 c16 -16 15 -38 -2 -38 -13 0 -26 20
-26 41 0 13 14 11 28 -3z"/>
<path d="M6080 8860 c13 -23 20 -26 20 -6 0 8 -7 16 -15 20 -13 4 -14 2 -5
-14z"/>
<path d="M6050 8803 c0 -13 5 -23 10 -23 13 0 13 11 0 30 -8 12 -10 11 -10 -7z"/>
<path d="M5980 8671 c0 -5 7 -11 15 -15 8 -3 15 -1 15 3 0 5 -7 11 -15 15 -8
3 -15 1 -15 -3z"/>
<path d="M5796 8278 c1 -36 7 -47 32 -64 17 -11 38 -28 47 -37 20 -20 17 -20
49 -3 25 13 26 15 11 30 -9 9 -22 16 -28 16 -12 0 -47 36 -77 79 -23 34 -37
25 -34 -21z"/>
<path d="M5890 8312 c0 -4 9 -13 20 -20 23 -14 26 -7 6 14 -16 15 -26 18 -26
6z"/>
<path d="M5393 8233 c-23 -9 -14 -38 17 -51 16 -7 32 -22 35 -33 4 -10 12 -19
20 -19 7 0 15 -7 19 -15 3 -8 17 -20 31 -27 16 -7 25 -19 25 -34 0 -13 8 -25
18 -28 10 -4 36 -24 59 -45 39 -38 47 -41 144 -55 10 -1 23 -7 30 -13 16 -12
75 -43 83 -43 3 0 3 7 0 15 -4 8 -14 15 -23 15 -9 0 -26 16 -39 35 -16 25 -29
34 -45 33 -13 -1 -38 8 -56 21 -18 13 -40 21 -51 18 -20 -5 -89 27 -103 47 -4
6 -10 22 -13 36 -5 18 -130 155 -138 149 -1 0 -7 -3 -13 -6z"/>
<path d="M5610 8195 c0 -8 2 -15 4 -15 2 0 12 -3 21 -6 15 -6 15 -4 4 15 -16
25 -29 27 -29 6z"/>
<path d="M5683 8119 c2 -41 3 -42 55 -59 48 -16 53 -16 50 -2 -2 9 -19 27 -38
40 -19 13 -39 32 -44 43 -15 31 -25 22 -23 -22z"/>
<path d="M6915 8100 c-8 -9 -15 -19 -15 -22 0 -3 28 -9 63 -13 34 -3 77 -11
95 -17 18 -5 36 -7 40 -3 11 11 -30 35 -59 35 -15 0 -35 8 -45 18 -22 22 -60
23 -79 2z"/>
<path d="M5966 8093 c-3 -4 -6 -17 -6 -31 0 -21 -2 -22 -15 -12 -8 7 -15 8
-15 2 0 -16 26 -33 42 -27 9 4 22 0 29 -7 24 -23 68 -48 83 -48 35 0 29 45 -7
56 -12 4 -34 19 -48 34 -28 29 -54 42 -63 33z"/>
<path d="M5283 8072 c-3 -7 -1 -18 6 -25 6 -6 11 -21 11 -33 0 -17 -4 -21 -20
-17 -26 7 -26 -14 0 -47 11 -14 20 -30 20 -36 0 -5 18 -20 39 -31 41 -22 61
-16 61 19 0 11 5 15 15 12 22 -9 18 12 -7 36 l-22 20 22 16 c30 21 28 39 -9
71 -35 31 -107 41 -116 15z"/>
<path d="M6050 8086 c0 -2 7 -6 15 -10 8 -3 15 -1 15 4 0 6 -7 10 -15 10 -8 0
-15 -2 -15 -4z"/>
<path d="M6890 8030 c-12 -8 -9 -10 13 -10 16 0 26 4 22 10 -8 12 -16 12 -35
0z"/>
<path d="M5470 7966 c0 -9 5 -16 10 -16 6 0 10 4 10 9 0 6 -4 13 -10 16 -5 3
-10 -1 -10 -9z"/>
<path d="M5140 7960 c0 -5 9 -10 20 -10 11 0 20 5 20 10 0 6 -9 10 -20 10 -11
0 -20 -4 -20 -10z"/>
<path d="M6025 7940 c3 -5 8 -10 11 -10 2 0 4 5 4 10 0 6 -5 10 -11 10 -5 0
-7 -4 -4 -10z"/>
<path d="M5895 7860 c3 -5 8 -10 11 -10 2 0 4 5 4 10 0 6 -5 10 -11 10 -5 0
-7 -4 -4 -10z"/>
<path d="M5965 7830 c3 -5 8 -10 11 -10 2 0 4 5 4 10 0 6 -5 10 -11 10 -5 0
-7 -4 -4 -10z"/>
<path d="M5710 7281 c0 -12 46 -41 65 -41 25 0 17 18 -17 34 -35 18 -48 20
-48 7z"/>
<path d="M5820 7210 c0 -5 7 -10 16 -10 8 0 12 5 9 10 -3 6 -10 10 -16 10 -5
0 -9 -4 -9 -10z"/>
<path d="M5490 7191 c0 -3 13 -15 29 -26 16 -11 81 -60 146 -108 122 -92 153
-105 295 -124 40 -6 44 -5 32 10 -13 16 -100 54 -114 50 -3 -1 -23 16 -43 38
-20 22 -42 38 -49 36 -8 -3 -13 1 -12 11 1 13 -6 16 -27 14 -15 -2 -40 6 -55
16 -55 39 -128 75 -164 82 -21 4 -38 5 -38 1z"/>
<path d="M5868 7178 c12 -6 22 -17 22 -25 0 -7 6 -13 14 -13 8 0 21 -6 29 -14
24 -25 107 -20 91 6 -11 18 -113 58 -146 57 -31 0 -32 -1 -10 -11z"/>
<path d="M6173 6898 c2 -7 10 -13 17 -13 7 0 15 6 18 13 2 7 -5 12 -18 12 -13
0 -20 -5 -17 -12z"/>
<path d="M5040 6864 c-12 -14 -12 -18 5 -30 23 -17 32 -18 41 -3 3 6 -2 20
-13 31 -18 18 -21 18 -33 2z"/>
<path d="M5130 6785 c0 -19 5 -35 10 -35 6 0 10 16 10 35 0 19 -4 35 -10 35
-5 0 -10 -16 -10 -35z"/>
<path d="M5880 6760 c0 -5 4 -10 9 -10 6 0 13 5 16 10 3 6 -1 10 -9 10 -9 0
-16 -4 -16 -10z"/>
<path d="M6545 6657 c-19 -45 -19 -53 -1 -38 15 13 30 60 22 69 -3 3 -13 -11
-21 -31z"/>
<path d="M6320 6615 c-7 -9 -10 -18 -7 -21 10 -11 37 5 37 21 0 19 -14 19 -30
0z"/>
<path d="M5432 6499 c2 -16 10 -25 27 -27 29 -4 25 15 -8 36 -22 15 -23 15
-19 -9z"/>
<path d="M5235 6490 c-7 -12 2 -30 16 -30 12 0 12 27 0 35 -5 3 -12 1 -16 -5z"/>
<path d="M5950 6276 c-14 -18 -6 -50 13 -44 15 6 22 37 10 49 -6 6 -15 4 -23
-5z"/>
<path d="M6042 6263 c7 -15 18 -39 25 -53 13 -25 13 -25 13 10 -1 26 -7 40
-25 53 l-25 18 12 -28z"/>
<path d="M5997 6231 c-2 -10 0 -25 5 -32 8 -11 9 -10 4 3 -3 10 1 18 11 20 14
3 15 4 1 16 -13 10 -16 9 -21 -7z"/>
<path d="M6137 5780 c-8 -29 7 -61 16 -36 4 9 3 26 -2 38 l-8 22 -6 -24z"/>
<path d="M2022 5088 c-31 -15 -23 -32 17 -36 32 -3 81 20 81 38 0 13 -69 11
-98 -2z"/>
<path d="M1978 5054 c-11 -10 41 -56 55 -47 8 5 7 8 -3 11 -8 3 -21 14 -30 24
-8 11 -19 16 -22 12z"/>
<path d="M1950 4930 c0 -5 5 -10 10 -10 6 0 10 5 10 10 0 6 -4 10 -10 10 -5 0
-10 -4 -10 -10z"/>
<path d="M4423 4845 c-27 -19 -37 -63 -23 -99 8 -22 15 -27 37 -24 14 2 28 8
30 15 6 18 -34 53 -54 47 -10 -2 -7 1 7 8 30 15 40 27 40 51 0 21 -9 22 -37 2z"/>
<path d="M3045 4840 c-4 -6 -4 -23 0 -38 5 -23 0 -33 -25 -55 -24 -22 -29 -33
-24 -52 10 -39 -1 -58 -26 -45 -29 15 -37 -10 -14 -45 14 -21 22 -25 43 -20
38 10 51 24 51 56 0 31 26 41 36 14 4 -8 10 -15 15 -15 4 0 6 7 3 15 -4 11 3
19 25 26 34 12 40 29 16 49 -10 8 -13 24 -10 50 5 35 2 40 -27 54 -36 19 -54
20 -63 6z m72 -122 c-3 -8 -6 -5 -6 6 -1 11 2 17 5 13 3 -3 4 -12 1 -19z"/>
<path d="M4220 4680 c-13 -24 -8 -36 19 -43 25 -6 39 27 21 48 -17 20 -27 19
-40 -5z"/>
<path d="M2485 4670 c3 -5 8 -10 11 -10 2 0 4 5 4 10 0 6 -5 10 -11 10 -5 0
-7 -4 -4 -10z"/>
<path d="M3156 4655 c-3 -9 0 -15 8 -15 8 0 16 7 20 15 3 9 0 15 -8 15 -8 0
-16 -7 -20 -15z"/>
<path d="M2430 4650 c0 -5 5 -10 10 -10 6 0 10 5 10 10 0 6 -4 10 -10 10 -5 0
-10 -4 -10 -10z"/>
<path d="M2485 4630 c-4 -6 -15 -10 -26 -10 -14 0 -19 -7 -19 -25 0 -14 4 -25
9 -25 19 0 41 12 41 22 0 6 7 16 16 23 15 11 15 12 1 18 -9 3 -19 2 -22 -3z"/>
<path d="M3865 4621 c-8 -26 15 -61 40 -62 19 0 19 -1 -2 -11 -26 -13 -30 -28
-8 -28 22 0 49 62 41 94 -5 21 -12 26 -36 26 -20 0 -31 -6 -35 -19z"/>
<path d="M4295 4630 c3 -5 8 -10 11 -10 2 0 4 5 4 10 0 6 -5 10 -11 10 -5 0
-7 -4 -4 -10z"/>
<path d="M3628 4617 c-16 -6 -28 -16 -28 -23 0 -54 44 -60 66 -9 7 19 14 37
14 40 0 7 -21 4 -52 -8z"/>
<path d="M4040 4614 c-10 -11 -10 -17 0 -28 15 -19 40 -10 40 14 0 24 -25 33
-40 14z"/>
<path d="M4140 4606 c0 -8 5 -18 10 -21 6 -3 10 3 10 14 0 12 -4 21 -10 21 -5
0 -10 -6 -10 -14z"/>
<path d="M4305 4591 c-9 -30 5 -71 25 -71 28 0 43 25 35 60 -5 23 -12 30 -30
30 -15 0 -26 -7 -30 -19z"/>
<path d="M3066 4588 c-24 -14 -21 -68 5 -75 12 -3 18 -11 15 -19 -3 -8 -2 -14
2 -14 20 1 29 20 29 62 -1 50 -17 65 -51 46z"/>
<path d="M3000 4508 c0 -23 3 -38 6 -35 11 11 14 77 4 77 -6 0 -10 -19 -10
-42z"/>
<path d="M4310 4490 c0 -5 -7 -10 -15 -10 -9 0 -15 -9 -15 -24 0 -14 -5 -28
-10 -31 -6 -4 -8 -10 -5 -15 3 -5 0 -12 -6 -16 -9 -5 -10 1 -5 20 5 21 3 27
-6 24 -15 -5 -20 -92 -7 -126 13 -34 50 -26 68 14 7 18 28 38 45 47 l31 15
-33 12 c-30 11 -32 14 -18 29 19 21 20 43 4 59 -15 15 -28 16 -28 2z"/>
<path d="M3970 4426 c0 -2 7 -6 15 -10 8 -3 15 -1 15 4 0 6 -7 10 -15 10 -8 0
-15 -2 -15 -4z"/>
<path d="M4169 4423 c-1 -5 0 -17 1 -27 1 -15 -3 -18 -20 -13 -16 4 -24 -1
-32 -18 -14 -31 -5 -53 27 -65 14 -5 25 -16 25 -24 0 -19 58 -42 72 -28 16 16
1 47 -31 58 -39 15 -50 59 -20 83 13 10 19 23 15 29 -8 13 -35 16 -37 5z"/>
<path d="M3948 4380 c-18 -11 -26 -79 -10 -94 6 -6 12 -66 6 -66 -17 0 -74 34
-72 43 2 7 -6 21 -17 32 -51 51 -117 -14 -72 -72 12 -15 20 -38 18 -51 -3 -25
56 -92 82 -92 8 0 22 -9 32 -20 23 -25 37 -25 52 -1 9 14 8 21 -5 34 -22 21
-42 45 -42 51 0 3 14 13 30 21 33 17 70 12 70 -10 0 -14 21 -25 47 -25 11 0
14 8 11 30 -3 17 -1 30 4 30 4 0 7 15 5 34 -1 19 -6 32 -11 28 -5 -3 -7 2 -3
11 3 10 2 17 -3 17 -6 0 -10 12 -10 28 -1 54 -69 98 -112 72z m-115 -87 c-7
-2 -19 -2 -25 0 -7 3 -2 5 12 5 14 0 19 -2 13 -5z m147 -43 c0 -5 -2 -10 -4
-10 -3 0 -8 5 -11 10 -3 6 -1 10 4 10 6 0 11 -4 11 -10z m40 -52 c0 -5 -7 -8
-15 -8 -15 0 -20 21 -8 33 7 7 23 -11 23 -25z m-150 -6 c0 -13 -12 -22 -22
-16 -10 6 -1 24 13 24 5 0 9 -4 9 -8z"/>
<path d="M3840 4340 c0 -5 5 -10 11 -10 5 0 7 5 4 10 -3 6 -8 10 -11 10 -2 0
-4 -4 -4 -10z"/>
<path d="M5841 4177 c-27 -44 -24 -55 9 -29 14 12 21 26 18 42 -3 24 -4 23
-27 -13z"/>
<path d="M4214 4127 c-3 -9 -3 -25 0 -34 6 -15 8 -15 24 0 15 16 15 18 0 34
-16 15 -18 15 -24 0z"/>
<path d="M3920 3990 c0 -15 7 -20 25 -20 28 0 34 24 9 34 -26 10 -34 7 -34
-14z"/>
<path d="M5574 3739 c-17 -22 -24 -49 -14 -49 6 0 10 6 10 14 0 8 5 16 12 18
6 2 9 10 7 17 -4 11 -7 11 -15 0z"/>
<path d="M2930 3689 c0 -5 5 -7 10 -4 6 3 10 8 10 11 0 2 -4 4 -10 4 -5 0 -10
-5 -10 -11z"/>
<path d="M2966 3493 c-11 -11 -6 -23 9 -23 8 0 15 4 15 9 0 13 -16 22 -24 14z"/>
<path d="M5410 3485 c-6 -8 -10 -19 -8 -24 1 -5 11 2 21 15 19 26 8 34 -13 9z"/>
<path d="M5261 3384 c0 -11 3 -14 6 -6 3 7 2 16 -1 19 -3 4 -6 -2 -5 -13z"/>
<path d="M5103 3323 c-22 -25 -29 -39 -21 -41 7 -1 20 -17 27 -35 8 -18 23
-38 33 -45 10 -7 18 -20 18 -28 0 -24 38 -17 42 8 2 13 19 33 41 47 46 30 47
51 2 75 -43 24 -64 10 -66 -43 l-1 -36 -8 40 c-4 22 -4 50 1 63 12 32 12 32
-12 32 -12 0 -37 -17 -56 -37z"/>
<path d="M5285 3350 c-3 -5 -1 -19 5 -30 9 -17 14 -19 25 -10 8 6 11 18 9 25
-7 17 -32 27 -39 15z"/>
<path d="M3662 3084 c-37 -29 -39 -47 -13 -90 18 -30 21 -31 62 -24 85 16 91
-10 17 -79 l-53 -50 22 -23 c11 -13 23 -32 25 -43 8 -49 90 -20 138 50 31 45
63 62 100 52 11 -3 21 1 24 9 3 8 11 14 18 14 7 0 21 7 32 15 17 13 17 15 -9
49 -15 20 -33 36 -39 36 -6 0 -16 10 -21 23 -9 19 -17 22 -65 21 -53 0 -55 -1
-58 -29 -3 -26 -26 -54 -44 -55 -5 0 -8 16 -8 36 0 19 -7 42 -15 50 -8 9 -15
20 -15 25 0 13 54 11 67 -2 16 -16 43 -4 43 18 0 16 -11 18 -88 20 -80 2 -91
-1 -120 -23z"/>
<path d="M4386 2965 c-27 -28 -20 -52 17 -58 40 -6 56 7 53 41 -2 20 -9 28
-28 30 -14 2 -33 -4 -42 -13z"/>
<path d="M2975 2922 c-5 -4 -18 -16 -28 -28 -15 -18 -16 -23 -3 -33 11 -10 18
-8 35 10 31 33 27 74 -4 51z"/>
<path d="M4620 2850 c0 -5 5 -10 10 -10 6 0 10 5 10 10 0 6 -4 10 -10 10 -5 0
-10 -4 -10 -10z"/>
<path d="M4411 2440 c-13 -11 -28 -20 -35 -20 -18 -1 -61 -38 -53 -46 11 -11
69 22 103 57 31 33 21 39 -15 9z"/>
<path d="M4274 2355 c-11 -27 0 -36 24 -19 12 8 20 20 17 25 -9 14 -35 11 -41
-6z"/>
<path d="M4215 2298 c-23 -13 -35 -28 -35 -45 0 -7 12 -1 26 12 15 14 31 25
35 25 5 0 9 5 9 10 0 13 -10 12 -35 -2z"/>
<path d="M4080 2250 c-11 -7 -7 -10 18 -10 20 0 31 4 27 10 -8 13 -26 13 -45
0z"/>
<path d="M3176 2079 c-38 -54 -11 -85 60 -69 20 5 42 6 49 4 19 -8 14 52 -5
64 -10 6 -33 14 -53 17 -29 6 -37 3 -51 -16z"/>
<path d="M3223 1933 c-7 -3 -13 -12 -13 -21 0 -15 2 -15 17 1 18 18 16 27 -4
20z"/>
<path d="M4710 11009 c0 -5 5 -7 10 -4 6 3 10 8 10 11 0 2 -4 4 -10 4 -5 0
-10 -5 -10 -11z"/>
<path d="M6785 5191 c-3 -5 -1 -12 5 -16 5 -3 10 1 10 9 0 18 -6 21 -15 7z"/>
<path d="M6866 5133 c6 -4 14 -15 17 -23 5 -11 6 -9 4 4 -1 11 -9 21 -17 23
-10 3 -11 2 -4 -4z"/>
<path d="M6823 5100 c-11 -16 -10 -18 2 -14 8 4 15 12 15 20 0 19 -3 18 -17
-6z"/>
<path d="M6770 4975 c0 -8 5 -15 10 -15 6 0 10 7 10 15 0 8 -4 15 -10 15 -5 0
-10 -7 -10 -15z"/>
<path d="M6081 3379 c-5 -15 -5 -29 1 -36 14 -18 35 -16 42 3 8 21 8 49 -1 41
-3 -4 -12 -2 -19 4 -11 9 -16 6 -23 -12z"/>
<path d="M6016 3281 c-4 -7 -5 -15 -2 -18 9 -9 19 4 14 18 -4 11 -6 11 -12 0z"/>
<path d="M7007 3173 c-4 -3 -7 -11 -7 -17 0 -6 5 -5 12 2 6 6 9 14 7 17 -3 3
-9 2 -12 -2z"/>
<path d="M7048 3134 c-8 -7 2 -44 12 -44 11 0 21 30 14 41 -6 10 -18 12 -26 3z"/>
<path d="M6987 3066 c-10 -25 -9 -46 2 -46 13 0 19 22 11 44 -6 18 -7 18 -13
2z"/>
<path d="M6930 2980 c0 -5 5 -10 11 -10 5 0 7 5 4 10 -3 6 -8 10 -11 10 -2 0
-4 -4 -4 -10z"/>
<path d="M6890 2791 c0 -6 5 -13 10 -16 6 -3 10 1 10 9 0 9 -4 16 -10 16 -5 0
-10 -4 -10 -9z"/>
<path d="M7020 2785 c7 -9 15 -13 17 -11 7 7 -7 26 -19 26 -6 0 -6 -6 2 -15z"/>
<path d="M6897 2744 c-4 -4 -7 -14 -7 -23 0 -11 3 -12 11 -4 6 6 10 16 7 23
-2 6 -7 8 -11 4z"/>
<path d="M6810 2589 c0 -5 5 -7 10 -4 6 3 10 8 10 11 0 2 -4 4 -10 4 -5 0 -10
-5 -10 -11z"/>
<path d="M6760 2529 c0 -16 -5 -20 -20 -16 -17 4 -18 2 -9 -14 13 -26 22 -24
37 8 15 33 15 43 2 43 -5 0 -10 -10 -10 -21z"/>
<path d="M6752 2254 c-7 -8 -8 -14 -3 -14 10 0 25 19 20 25 -2 1 -10 -3 -17
-11z"/>
<path d="M6650 2171 c0 -5 6 -14 14 -20 11 -9 16 -9 21 0 4 6 1 15 -6 20 -18
11 -29 11 -29 0z"/>
<path d="M6476 2125 c-9 -23 -8 -25 9 -25 17 0 19 9 6 28 -7 11 -10 10 -15 -3z"/>
<path d="M6442 2078 c-7 -7 -12 -18 -12 -25 0 -7 -7 -10 -15 -7 -9 4 -15 0
-15 -9 0 -9 -7 -20 -17 -25 -10 -6 -17 -24 -17 -48 -1 -20 -7 -39 -13 -41 -13
-5 -6 -33 7 -33 5 0 14 17 21 38 12 36 43 86 65 107 14 12 25 55 15 55 -4 0
-12 -5 -19 -12z"/>
<path d="M6315 1920 c-3 -5 -1 -10 4 -10 6 0 11 5 11 10 0 6 -2 10 -4 10 -3 0
-8 -4 -11 -10z"/>
<path d="M6286 1794 c-3 -9 -6 -24 -6 -35 0 -10 -4 -19 -10 -19 -5 0 -10 -4
-10 -10 0 -5 4 -10 9 -10 11 0 41 56 41 77 0 18 -17 16 -24 -3z"/>
<path d="M6171 1754 c0 -11 3 -14 6 -6 3 7 2 16 -1 19 -3 4 -6 -2 -5 -13z"/>
<path d="M6106 1577 c-7 -28 11 -48 24 -27 14 21 12 37 -4 43 -9 4 -16 -3 -20
-16z"/>
<path d="M6314 1532 c-15 -10 -13 -42 2 -42 13 0 26 37 15 44 -4 3 -12 2 -17
-2z"/>
<path d="M6080 1519 c0 -5 5 -7 10 -4 6 3 10 8 10 11 0 2 -4 4 -10 4 -5 0 -10
-5 -10 -11z"/>
<path d="M5987 1479 c24 -40 61 -74 70 -65 5 4 1 13 -7 19 -9 7 -26 27 -39 45
-28 41 -48 42 -24 1z"/>
<path d="M5957 1447 c-11 -29 -9 -43 4 -30 6 6 9 19 7 29 -3 18 -4 18 -11 1z"/>
<path d="M5945 1320 c-3 -5 3 -10 14 -10 15 0 21 -6 21 -21 0 -18 2 -19 15 -9
8 7 15 19 15 26 0 8 -6 11 -15 8 -8 -4 -15 -1 -15 5 0 14 -27 15 -35 1z"/>
<path d="M5950 1245 c-7 -9 -11 -18 -8 -20 3 -3 11 1 18 10 7 9 11 18 8 20 -3
3 -11 -1 -18 -10z"/>
<path d="M5903 1209 c-9 -11 -8 -18 2 -32 16 -22 24 -11 16 22 -5 19 -8 21
-18 10z"/>
<path d="M5960 1091 c0 -6 5 -13 10 -16 6 -3 10 1 10 9 0 9 -4 16 -10 16 -5 0
-10 -4 -10 -9z"/>
<path d="M5856 1014 c-19 -18 -21 -37 -4 -32 16 6 43 48 30 48 -6 0 -18 -7
-26 -16z"/>
<path d="M2780 1911 c0 -6 5 -13 10 -16 6 -3 10 1 10 9 0 9 -4 16 -10 16 -5 0
-10 -4 -10 -9z"/>
<path d="M5137 253 c-4 -3 -7 -12 -7 -20 0 -15 26 -18 34 -4 7 11 -18 33 -27
24z"/>
<path d="M5040 227 c0 -20 9 -25 30 -20 11 3 16 11 13 19 -7 18 -43 18 -43 1z"/>
<path d="M1 7007 c-1 -110 2 -166 9 -162 6 3 10 17 10 31 0 17 6 24 18 24 11
0 24 12 31 27 10 22 10 28 -4 36 -9 5 -14 16 -10 25 2 10 -4 34 -15 55 -11 20
-20 49 -21 64 0 16 -4 37 -9 48 -5 12 -9 -45 -9 -148z"/>
</g>
</svg>
