<?xml version="1.0" standalone="no"?>
<!DOCTYPE svg PUBLIC "-//W3C//DTD SVG 20010904//EN"
 "http://www.w3.org/TR/2001/REC-SVG-20010904/DTD/svg10.dtd">
<svg version="1.0" xmlns="http://www.w3.org/2000/svg"
 width="1200.000000pt" height="1202.000000pt" viewBox="0 0 1200.000000 1202.000000"
 preserveAspectRatio="xMidYMid meet">

<g transform="translate(0.000000,1202.000000) scale(0.100000,-0.100000)"
fill="#000000" stroke="none">
<path d="M11270 11162 c0 -70 0 -70 30 -74 16 -3 35 -1 42 4 8 5 1 8 -19 8
l-33 0 0 59 c0 33 -4 63 -10 66 -6 4 -10 -20 -10 -63z"/>
<path d="M11680 11205 c0 -21 -4 -25 -22 -20 -34 8 -52 -9 -52 -50 0 -21 6
-40 15 -46 24 -15 33 -10 16 9 -21 23 -22 71 -2 78 33 13 61 -46 35 -72 -7 -7
-6 -11 5 -11 12 0 15 14 15 69 0 37 -2 68 -5 68 -3 0 -5 -11 -5 -25z"/>
<path d="M5876 11188 c-12 -16 -16 -47 -16 -114 0 -77 3 -95 21 -118 l20 -26
164 0 c200 0 195 -4 195 136 0 77 -3 95 -21 118 l-20 26 -164 0 c-158 0 -164
-1 -179 -22z m361 -13 c11 -15 14 -42 11 -113 -4 -127 0 -124 -196 -120 -190
4 -185 0 -180 136 4 127 0 124 196 120 140 -3 155 -5 169 -23z"/>
<path d="M5981 11079 c-13 -33 -20 -63 -17 -66 3 -3 8 2 12 11 8 21 74 23 74
1 0 -8 5 -15 11 -15 12 0 6 21 -22 88 -10 23 -22 42 -27 42 -5 0 -19 -27 -31
-61z m37 -17 c-27 -5 -32 2 -18 29 l13 22 13 -24 c11 -22 11 -24 -8 -27z"/>
<path d="M6110 11096 c-16 -25 -30 -47 -30 -50 0 -3 14 -6 30 -6 20 0 30 -5
30 -15 0 -8 5 -15 10 -15 6 0 10 6 10 14 0 8 6 17 13 19 10 4 10 6 0 6 -9 1
-13 17 -13 46 0 25 -4 45 -10 45 -5 0 -23 -20 -40 -44z m30 -16 c0 -23 -4 -30
-20 -30 -20 0 -20 1 -5 30 9 17 18 30 20 30 3 0 5 -13 5 -30z"/>
<path d="M11386 11175 c-24 -24 -20 -62 8 -80 45 -30 87 16 62 67 -14 28 -48
35 -70 13z m52 -7 c30 -30 -1 -94 -33 -68 -15 13 -21 61 -8 73 10 11 28 8 41
-5z"/>
<path d="M11490 11140 c0 -62 17 -66 22 -5 2 29 -1 46 -9 50 -9 3 -13 -10 -13
-45z"/>
<path d="M11542 11178 c9 -7 19 -31 21 -53 3 -32 4 -30 3 10 -1 42 -4 50 -21
53 -18 4 -19 3 -3 -10z"/>
<path d="M11730 11171 c-21 -40 -1 -91 35 -91 42 0 62 80 26 100 -29 15 -49
12 -61 -9z m60 -11 c22 -41 -14 -84 -45 -54 -18 18 -19 28 -5 55 14 25 36 24
50 -1z"/>
<path d="M11841 11140 l2 -55 7 45 c4 25 4 49 -1 55 -5 5 -8 -13 -8 -45z"/>
<path d="M11889 11181 c8 -5 18 -31 22 -58 l7 -48 -2 55 c-1 47 -4 55 -21 58
-16 2 -17 1 -6 -7z"/>
<path d="M4850 10405 c0 -36 -4 -65 -9 -65 -4 0 -22 5 -39 11 -42 14 -95 -11
-116 -56 -30 -63 -15 -169 29 -205 13 -11 43 -15 107 -16 l88 0 0 198 0 198
-30 0 -30 0 0 -65z m-22 -111 c19 -13 22 -24 22 -84 0 -58 -3 -71 -19 -80 -59
-31 -101 4 -101 83 0 38 5 53 25 72 28 29 42 31 73 9z"/>
<path d="M3845 10438 c-3 -8 -4 -92 -3 -188 l3 -175 110 0 c106 0 110 1 113
22 3 21 -1 22 -80 25 l-83 3 -5 160 c-5 157 -5 160 -28 163 -12 2 -24 -3 -27
-10z"/>
<path d="M4170 10347 c-48 -17 -80 -67 -80 -129 0 -95 44 -148 125 -148 78 0
128 54 129 140 1 103 -82 169 -174 137z m86 -60 c22 -19 26 -31 26 -75 0 -64
-20 -92 -68 -92 -43 0 -64 30 -64 93 0 38 5 53 25 72 30 31 47 31 81 2z"/>
<path d="M4483 10344 c-20 -8 -34 -10 -38 -4 -3 6 -17 10 -31 10 l-25 0 3
-137 3 -138 25 0 c25 0 25 1 28 102 3 104 7 114 49 127 15 5 28 1 42 -13 18
-18 21 -33 21 -122 l0 -100 28 3 27 3 3 102 c3 115 -10 157 -54 173 -32 12
-41 12 -81 -6z"/>
<path d="M5040 10347 c-49 -17 -80 -68 -80 -129 0 -98 46 -148 135 -148 38 0
52 5 75 28 40 40 55 103 39 159 -11 42 -57 93 -82 93 -7 0 -21 2 -32 5 -11 2
-36 -1 -55 -8z m86 -61 c24 -20 28 -31 28 -74 0 -63 -22 -92 -70 -92 -43 0
-64 30 -64 93 0 38 5 53 25 72 30 31 47 31 81 1z"/>
<path d="M5358 10345 c-23 -8 -40 -10 -43 -4 -4 5 -17 9 -31 9 l-25 0 3 -137
3 -138 25 0 c25 0 25 1 28 102 3 104 7 114 49 127 15 5 28 1 42 -13 18 -18 21
-33 21 -122 l0 -100 28 3 27 3 0 117 c0 104 -2 120 -20 137 -28 27 -63 33
-107 16z"/>
<path d="M5370 9693 c0 -55 3 -74 10 -63 12 18 11 128 -2 136 -4 3 -8 -30 -8
-73z"/>
<path d="M5249 9744 c-7 -9 -14 -33 -14 -54 0 -21 7 -45 14 -54 16 -19 62 -21
79 -4 20 20 13 32 -7 14 -26 -24 -54 -17 -65 17 -21 60 35 116 69 70 8 -10 15
-13 15 -7 1 33 -67 47 -91 18z"/>
<path d="M6006 9738 c-34 -48 -8 -118 43 -118 29 0 60 25 47 38 -4 4 -12 -1
-17 -11 -12 -20 -40 -22 -57 -5 -7 7 -12 28 -12 48 0 20 5 41 12 48 17 17 45
15 57 -5 5 -10 13 -15 17 -11 13 13 -18 38 -47 38 -17 0 -34 -8 -43 -22z"/>
<path d="M5415 9711 c14 -6 22 -21 26 -52 l6 -44 1 53 c2 51 1 52 -25 51 -24
0 -25 -1 -8 -8z"/>
<path d="M5495 9710 c-3 -6 1 -7 9 -4 18 7 21 14 7 14 -6 0 -13 -4 -16 -10z"/>
<path d="M5538 9711 c8 -5 12 -22 10 -42 -2 -26 -8 -35 -25 -37 -18 -3 -23 1
-23 19 0 16 -3 20 -10 13 -21 -21 0 -44 41 -42 41 1 40 -2 30 86 0 6 -9 12
-18 12 -14 0 -15 -2 -5 -9z"/>
<path d="M5590 9669 c0 -27 5 -49 10 -49 6 0 10 18 10 40 0 26 6 42 17 48 13
8 11 10 -10 10 -26 0 -27 -3 -27 -49z"/>
<path d="M5673 9670 c0 -30 2 -43 4 -27 2 15 2 39 0 55 -2 15 -4 2 -4 -28z"/>
<path d="M5720 9670 c0 -29 2 -51 4 -49 8 8 10 88 3 95 -4 4 -7 -17 -7 -46z"/>
<path d="M5762 9714 c17 -5 22 -16 32 -74 2 -14 3 -2 2 25 -1 46 -3 50 -26 52
-14 1 -18 0 -8 -3z"/>
<path d="M5836 9704 c-16 -40 0 -84 31 -84 8 0 5 8 -8 21 -11 11 -18 27 -15
36 3 8 6 18 6 23 0 5 10 11 23 13 20 4 19 4 -4 6 -16 0 -29 -5 -33 -15z"/>
<path d="M5898 9658 c-3 -61 -4 -63 -33 -69 l-30 -7 31 -1 c43 -1 54 15 54 81
0 78 -18 74 -22 -4z"/>
<path d="M6130 9668 c0 -62 5 -60 13 5 4 28 3 47 -3 47 -6 0 -10 -23 -10 -52z"/>
<path d="M6199 9694 c-22 -59 57 -105 83 -49 17 39 -3 75 -42 75 -24 0 -33 -6
-41 -26z m66 -24 c0 -29 -4 -36 -22 -38 -17 -3 -24 3 -29 22 -9 37 2 58 28 54
19 -2 23 -9 23 -38z"/>
<path d="M6317 9706 c-7 -17 8 -30 41 -41 30 -9 22 -30 -11 -30 -15 1 -23 -3
-18 -8 16 -16 56 -3 59 20 2 17 -3 23 -27 28 -31 7 -42 29 -18 38 7 4 6 6 -4
6 -9 1 -19 -5 -22 -13z"/>
<path d="M6365 9710 c3 -5 11 -10 16 -10 6 0 7 5 4 10 -3 6 -11 10 -16 10 -6
0 -7 -4 -4 -10z"/>
<path d="M6425 9710 c-8 -13 13 -40 30 -40 22 0 36 -25 22 -39 -10 -11 -9 -13
3 -9 29 9 23 38 -10 51 -22 8 -30 17 -26 29 5 19 -9 25 -19 8z"/>
<path d="M6470 9710 c20 -13 33 -13 25 0 -3 6 -14 10 -23 10 -15 0 -15 -2 -2
-10z"/>
<path d="M6425 9630 c3 -5 11 -10 16 -10 6 0 7 5 4 10 -3 6 -11 10 -16 10 -6
0 -7 -4 -4 -10z"/>
<path d="M2410 8392 c0 -6 62 -103 76 -121 2 -2 7 -2 10 2 3 3 -13 33 -35 66
-40 58 -51 70 -51 53z"/>
<path d="M2386 8343 c58 -90 69 -104 72 -95 4 13 -67 122 -81 122 -5 0 -1 -12
9 -27z"/>
<path d="M2325 8280 c-10 -11 -15 -23 -11 -27 4 -5 12 0 17 10 10 17 39 24 39
8 0 -5 -7 -14 -15 -21 -8 -7 -15 -23 -15 -36 0 -29 28 -32 65 -8 l25 16 -31
39 c-35 44 -48 48 -74 19z m71 -41 c10 -17 -23 -46 -38 -31 -8 8 -8 15 2 27
15 18 26 19 36 4z"/>
<path d="M2246 8271 c-4 -5 -1 -33 5 -61 6 -28 9 -54 6 -56 -3 -3 -24 8 -48
25 -38 28 -69 39 -69 26 0 -12 74 -115 82 -115 10 0 5 9 -24 52 -28 40 -22 42
28 8 25 -18 48 -29 51 -26 3 3 1 29 -5 58 -5 29 -9 54 -8 56 2 1 15 -16 30
-38 14 -22 31 -40 37 -40 5 0 -9 27 -31 60 -43 63 -45 65 -54 51z"/>
<path d="M10520 8085 c0 -43 4 -75 10 -75 6 0 10 32 10 75 0 43 -4 75 -10 75
-6 0 -10 -32 -10 -75z"/>
<path d="M9983 8133 c3 -10 11 -42 17 -70 7 -29 16 -53 20 -53 5 0 16 26 26
58 13 46 18 53 25 37 6 -16 8 -17 8 -3 1 23 -9 48 -20 48 -5 0 -9 -7 -9 -16 0
-28 -23 -94 -31 -89 -4 3 -10 28 -14 55 -4 28 -11 50 -17 50 -5 0 -7 -8 -5
-17z"/>
<path d="M10120 8096 c-6 -31 -16 -54 -21 -51 -5 4 -9 13 -9 22 0 9 -2 14 -5
11 -9 -9 7 -68 19 -68 13 0 43 126 33 136 -3 3 -10 -20 -17 -50z"/>
<path d="M10850 8080 l0 -70 48 2 c43 1 44 2 10 5 -32 4 -38 8 -38 28 0 13 8
29 18 35 16 11 16 11 0 6 -14 -4 -18 1 -18 24 0 26 4 29 38 33 34 3 33 4 -10
5 l-48 2 0 -70z"/>
<path d="M10291 8128 c-1 -9 -7 -19 -13 -21 -10 -4 -10 -6 0 -6 8 -1 12 -17
12 -46 0 -36 3 -45 18 -44 10 0 12 3 5 6 -8 2 -13 22 -13 44 0 24 5 39 13 39
8 0 9 3 1 8 -6 4 -14 14 -17 22 -4 12 -6 12 -6 -2z"/>
<path d="M11191 8128 c-1 -9 -7 -19 -13 -21 -10 -4 -10 -6 0 -6 8 -1 12 -17
12 -46 0 -36 3 -45 18 -44 10 0 12 3 5 6 -8 2 -13 22 -13 44 0 24 5 39 13 39
8 0 9 3 1 8 -6 4 -14 14 -17 22 -4 12 -6 12 -6 -2z"/>
<path d="M2062 8108 c-18 -18 -14 -56 8 -78 11 -11 23 -20 28 -20 14 0 52 31
52 43 0 7 -7 4 -14 -5 -14 -19 -41 -24 -50 -9 -4 5 6 18 21 29 23 17 25 22 14
36 -16 19 -42 21 -59 4z m43 -9 c4 -6 -1 -16 -11 -24 -24 -17 -42 -2 -24 20
15 18 26 19 35 4z"/>
<path d="M10187 8103 c-3 -5 7 -9 21 -8 24 0 27 -4 27 -35 0 -29 -4 -36 -22
-38 -18 -3 -23 1 -23 19 0 17 -3 20 -11 12 -21 -21 -2 -43 36 -43 l36 0 -3 48
c-3 43 -5 47 -30 50 -14 2 -28 -1 -31 -5z"/>
<path d="M10352 8098 c-7 -7 -12 -24 -12 -38 0 -14 5 -31 12 -38 13 -13 68
-17 68 -4 0 4 -12 8 -27 7 -25 0 -28 3 -28 35 0 28 4 35 20 35 13 0 20 -6 19
-17 -1 -10 4 -18 12 -18 17 0 17 5 4 31 -12 21 -50 25 -68 7z"/>
<path d="M10451 8056 c0 -38 3 -46 9 -31 5 11 9 30 9 42 1 12 8 26 18 31 13 8
11 10 -10 10 -26 0 -27 -3 -26 -52z"/>
<path d="M10582 8098 c-17 -17 -15 -63 2 -77 8 -7 27 -11 43 -9 24 2 28 8 31
36 2 18 -2 40 -9 48 -14 17 -51 18 -67 2z m64 -23 c9 -36 -2 -57 -28 -53 -39
5 -38 78 1 78 14 0 23 -9 27 -25z"/>
<path d="M10701 8096 c-7 -8 -11 -30 -9 -48 3 -28 7 -34 31 -36 16 -2 35 2 43
9 17 14 19 60 2 77 -16 16 -53 15 -67 -2z m59 -16 c14 -26 -3 -60 -30 -60 -10
0 -22 9 -25 20 -9 29 4 60 25 60 11 0 24 -9 30 -20z"/>
<path d="M10975 8100 c-4 -6 6 -7 25 -3 31 6 31 6 28 -33 -2 -32 -7 -40 -27
-42 -20 -3 -23 0 -18 17 6 23 -8 29 -16 8 -9 -24 8 -37 46 -35 34 1 37 4 37
30 0 16 -5 38 -10 49 -11 20 -54 26 -65 9z"/>
<path d="M11078 8098 c-8 -20 2 -38 20 -37 11 0 12 2 5 6 -7 2 -13 12 -13 20
0 12 7 14 30 9 19 -3 29 -2 25 4 -9 14 -62 12 -67 -2z"/>
<path d="M1920 8066 c0 -13 73 -126 83 -126 12 0 8 14 -13 40 -23 30 -25 44
-6 59 11 10 20 5 41 -24 37 -48 52 -45 19 5 -28 42 -53 50 -74 25 -10 -13 -15
-12 -31 8 -10 12 -18 18 -19 13z"/>
<path d="M11127 8049 c10 -10 10 -16 0 -27 -10 -12 -9 -14 3 -10 8 2 15 13 15
23 0 10 -7 20 -15 23 -12 4 -13 2 -3 -9z"/>
<path d="M1857 8018 c-46 -30 -59 -51 -19 -29 18 9 24 5 52 -39 18 -28 36 -50
42 -50 10 0 7 7 -34 67 l-28 42 22 15 c42 30 12 25 -35 -6z"/>
<path d="M11075 8020 c3 -5 11 -10 16 -10 6 0 7 5 4 10 -3 6 -11 10 -16 10 -6
0 -7 -4 -4 -10z"/>
<path d="M8442 7408 l-2 -78 43 1 42 2 -35 6 -35 6 -6 70 -5 70 -2 -77z"/>
<path d="M8838 7453 c-5 -44 3 -113 13 -113 5 0 9 32 9 70 0 68 -15 98 -22 43z"/>
<path d="M9700 7410 c0 -40 4 -70 10 -70 6 0 10 30 10 70 0 40 -4 70 -10 70
-6 0 -10 -30 -10 -70z"/>
<path d="M9160 7465 c0 -22 34 -135 40 -135 5 0 14 25 21 55 7 30 15 55 19 55
3 0 12 -22 19 -50 16 -64 27 -70 40 -22 20 74 25 105 13 99 -5 -4 -13 -30 -17
-57 -8 -55 -20 -58 -30 -7 -17 86 -29 89 -46 12 -7 -30 -15 -52 -19 -50 -4 3
-11 25 -14 50 -4 24 -11 47 -17 50 -5 4 -9 3 -9 0z"/>
<path d="M9469 7454 c-1 -5 -3 -20 -5 -34 -6 -44 6 -90 23 -90 12 0 13 3 4 14
-7 8 -11 35 -10 60 2 25 0 49 -4 52 -4 4 -8 3 -8 -2z"/>
<path d="M8558 7429 c-25 -14 -24 -75 1 -89 27 -14 37 -13 55 6 29 29 10 95
-27 94 -7 0 -20 -5 -29 -11z m55 -28 c6 -23 -10 -61 -26 -61 -35 0 -51 61 -20
78 21 12 40 6 46 -17z"/>
<path d="M8708 7428 c7 -7 12 -29 12 -49 0 -21 5 -41 10 -44 6 -4 10 11 10 37
0 42 -13 68 -34 68 -6 0 -5 -5 2 -12z"/>
<path d="M8788 7429 c-34 -19 -18 -99 19 -99 8 0 6 7 -7 20 -11 11 -20 27 -20
35 0 8 9 24 20 35 22 22 16 26 -12 9z"/>
<path d="M8893 7414 c-15 -24 -15 -29 -2 -53 18 -32 45 -38 70 -15 24 22 24
49 -1 74 -27 27 -46 25 -67 -6z m55 4 c32 -32 0 -95 -34 -67 -24 20 -12 79 16
79 3 0 11 -5 18 -12z"/>
<path d="M9053 7426 c11 -9 17 -27 17 -55 0 -26 4 -40 10 -36 14 9 13 78 -2
93 -7 7 -19 12 -27 12 -14 -1 -13 -3 2 -14z"/>
<path d="M9536 7427 c-12 -9 -17 -23 -14 -47 2 -27 9 -37 31 -44 19 -7 31 -6
40 3 10 10 7 11 -15 6 -21 -5 -29 -2 -38 14 -10 20 -8 21 30 21 45 0 50 10 20
40 -23 23 -30 24 -54 7z m38 -3 c28 -11 18 -34 -14 -34 -32 0 -37 9 -18 28 14
14 12 14 32 6z"/>
<path d="M9648 7433 c-15 -4 -18 -14 -16 -56 1 -47 2 -48 5 -12 3 26 12 46 26
57 22 17 18 20 -15 11z"/>
<path d="M9766 7424 c-42 -41 -2 -109 50 -85 41 18 24 101 -21 101 -7 0 -21
-7 -29 -16z m59 -25 c8 -23 -11 -59 -30 -59 -14 0 -35 29 -35 49 0 17 30 40
45 35 8 -3 17 -14 20 -25z"/>
<path d="M9880 7420 c-11 -11 -20 -26 -20 -33 0 -22 30 -57 50 -57 47 0 67 67
28 94 -29 20 -34 20 -58 -4z m48 -2 c17 -17 15 -67 -3 -74 -21 -8 -45 14 -45
40 0 21 17 46 30 46 3 0 11 -5 18 -12z"/>
<path d="M8661 7378 c1 -55 5 -50 11 15 2 20 0 37 -4 37 -4 0 -7 -24 -7 -52z"/>
<path d="M9000 7386 c0 -25 5 -48 10 -51 6 -4 10 13 10 44 0 28 -4 51 -10 51
-5 0 -10 -20 -10 -44z"/>
<path d="M9360 7419 c0 -5 5 -7 10 -4 6 3 10 8 10 11 0 2 -4 4 -10 4 -5 0 -10
-5 -10 -11z"/>
<path d="M9412 7385 c1 -59 18 -70 18 -11 0 25 -4 48 -10 51 -5 3 -9 -13 -8
-40z"/>
<path d="M9354 7375 c-9 -22 3 -45 23 -45 17 1 17 1 1 11 -24 14 -22 28 5 39
l22 9 -23 0 c-12 1 -25 -6 -28 -14z"/>
<path d="M2253 5915 c-12 -8 -24 -29 -28 -46 -4 -17 -13 -33 -21 -36 -19 -7
-18 -33 1 -33 11 0 15 -19 17 -87 3 -83 4 -88 26 -91 21 -3 22 -1 22 87 0 83
2 91 19 91 31 0 35 19 6 32 -31 14 -29 39 3 53 30 13 29 45 -1 45 -12 0 -32
-7 -44 -15z"/>
<path d="M1484 5905 c-4 -9 -2 -21 4 -27 15 -15 44 -1 40 19 -4 23 -36 29 -44
8z"/>
<path d="M1266 5889 c-35 -28 -47 -60 -47 -130 -1 -73 21 -116 68 -136 65 -26
153 12 153 67 0 29 -38 26 -50 -4 -11 -31 -43 -41 -81 -26 -50 21 -64 126 -24
186 24 36 77 33 105 -6 36 -51 65 -34 39 23 -22 50 -115 64 -163 26z"/>
<path d="M1597 5860 c-4 -18 -13 -30 -22 -30 -22 0 -18 -27 5 -33 18 -5 20
-14 20 -80 0 -82 14 -111 54 -105 24 3 36 38 13 38 -20 0 -27 22 -27 86 0 43
4 56 18 61 9 4 20 10 23 15 3 5 22 -37 42 -92 38 -109 37 -142 -4 -153 -11 -3
-19 -12 -19 -21 0 -25 46 -20 68 9 15 19 102 249 102 270 0 3 -11 5 -24 5 -20
0 -26 -8 -36 -47 -25 -93 -31 -95 -55 -23 l-22 65 -44 5 c-39 4 -44 8 -47 33
-5 39 -38 37 -45 -3z"/>
<path d="M2034 5830 c-12 -5 -29 -19 -38 -31 -63 -90 12 -211 110 -179 84 28
86 180 3 209 -37 13 -46 13 -75 1z m72 -44 c26 -20 25 -103 -1 -123 -42 -30
-85 2 -85 62 0 61 43 92 86 61z"/>
<path d="M1487 5823 c-4 -3 -7 -51 -7 -105 0 -98 0 -98 25 -98 l25 0 0 105 c0
95 -2 105 -18 105 -10 0 -22 -3 -25 -7z"/>
<path d="M1917 5413 c-15 -14 -7 -43 12 -43 26 0 36 17 21 35 -14 16 -23 19
-33 8z"/>
<path d="M650 5391 c0 -17 42 -208 56 -253 3 -11 15 -18 28 -18 20 0 26 10 46
88 35 136 32 138 80 -45 9 -36 15 -43 35 -43 17 0 26 7 30 23 3 12 16 70 30
129 30 130 30 138 5 138 -20 0 -27 -17 -50 -135 -10 -50 -14 -57 -24 -43 -7
10 -21 53 -31 98 -16 71 -21 80 -41 80 -20 0 -25 -10 -45 -95 -13 -52 -26 -95
-30 -95 -9 0 -14 16 -29 95 -6 33 -14 68 -16 78 -7 24 -44 22 -44 -2z"/>
<path d="M1450 5366 c0 -15 -7 -26 -20 -29 -26 -7 -26 -27 0 -34 17 -4 20 -15
22 -86 3 -75 5 -82 27 -93 41 -21 70 5 35 30 -31 23 -31 146 1 146 22 0 18 28
-5 40 -11 6 -20 20 -20 30 0 13 -7 20 -20 20 -14 0 -20 -7 -20 -24z"/>
<path d="M2450 5365 c0 -16 -6 -25 -15 -25 -8 0 -15 -9 -15 -20 0 -11 7 -20
15 -20 12 0 15 -14 15 -64 0 -78 11 -111 40 -119 44 -11 72 25 30 38 -17 6
-20 15 -20 75 0 59 2 68 20 73 11 3 20 10 20 17 0 7 -9 14 -20 17 -13 3 -20
14 -20 29 0 19 -5 24 -25 24 -20 0 -25 -5 -25 -25z"/>
<path d="M1062 5324 c-48 -34 -65 -101 -37 -154 19 -37 43 -50 92 -50 47 0 79
20 70 44 -6 16 -9 16 -29 2 -12 -9 -30 -16 -40 -16 -19 0 -58 33 -58 50 0 5
30 10 68 12 l67 3 3 33 c3 25 -3 39 -27 62 -33 34 -74 39 -109 14z m76 -36
c23 -23 13 -38 -26 -38 -48 0 -57 8 -35 32 19 21 44 23 61 6z"/>
<path d="M1265 5328 c-26 -15 -35 -28 -35 -54 0 -27 21 -44 74 -64 29 -11 41
-21 41 -35 0 -25 -46 -33 -67 -11 -19 19 -50 24 -55 9 -6 -16 34 -50 65 -55
42 -6 73 5 95 34 19 25 19 28 4 52 -10 14 -34 30 -57 37 -44 13 -65 32 -55 49
9 15 54 12 71 -5 19 -18 44 -20 44 -2 -1 44 -77 72 -125 45z"/>
<path d="M1567 5333 c-4 -3 -7 -53 -7 -110 0 -96 1 -103 20 -103 18 0 20 7 20
71 0 82 11 109 45 109 34 0 45 -27 45 -109 0 -64 2 -71 20 -71 18 0 20 7 20
74 0 78 13 106 49 106 32 0 41 -22 41 -102 0 -71 2 -78 20 -78 26 0 34 34 27
118 -4 52 -10 70 -27 84 -27 22 -58 23 -87 3 -19 -13 -24 -13 -52 2 -25 15
-35 16 -63 5 -21 -8 -36 -8 -42 -2 -12 12 -20 13 -29 3z"/>
<path d="M1917 5334 c-4 -4 -7 -54 -7 -111 0 -97 1 -103 20 -103 20 0 21 5 18
107 -3 98 -11 127 -31 107z"/>
<path d="M2017 5333 c-4 -3 -7 -53 -7 -110 0 -96 1 -103 20 -103 18 0 20 7 20
74 0 78 13 106 49 106 32 0 41 -22 41 -103 0 -76 1 -78 23 -75 20 3 22 9 25
65 4 82 -8 124 -41 143 -22 12 -32 13 -59 2 -21 -8 -36 -8 -42 -2 -12 12 -20
13 -29 3z"/>
<path d="M2255 5315 c-14 -13 -25 -30 -25 -37 0 -28 31 -56 75 -67 39 -10 46
-15 43 -34 -4 -30 -41 -34 -74 -8 -27 21 -44 20 -44 -3 0 -24 37 -47 77 -48
50 0 81 16 89 46 9 38 -12 64 -64 78 -36 10 -48 19 -50 36 -3 18 1 22 24 22
15 0 35 -7 45 -16 26 -23 54 -11 39 16 -24 44 -98 53 -135 15z"/>
<path d="M2597 5320 c-55 -43 -57 -148 -4 -185 46 -32 149 -10 134 29 -6 16
-9 16 -29 2 -30 -21 -54 -20 -78 4 -30 30 -17 40 56 40 l64 0 0 30 c0 84 -80
129 -143 80z m77 -26 c9 -3 16 -15 16 -25 0 -15 -7 -19 -40 -19 -41 0 -52 14
-28 38 13 13 28 15 52 6z"/>
<path d="M2777 5333 c-4 -3 -7 -53 -7 -110 0 -103 0 -104 23 -101 20 3 22 9
27 83 5 74 6 80 30 85 16 4 26 14 28 28 4 24 -9 28 -40 11 -14 -8 -23 -8 -31
0 -13 13 -21 14 -30 4z"/>
<path d="M171 4547 c-46 -23 -49 -115 -5 -144 29 -19 69 -11 84 17 14 26 -1
26 -18 0 -39 -63 -108 33 -72 101 14 25 65 26 79 2 5 -10 12 -15 15 -12 9 8
-17 36 -39 43 -11 3 -31 0 -44 -7z"/>
<path d="M560 4553 c-27 -10 -40 -36 -40 -84 0 -52 23 -79 66 -79 57 0 84 112
35 151 -24 19 -34 22 -61 12z m60 -32 c16 -30 12 -76 -9 -102 -16 -20 -22 -22
-44 -12 -34 16 -46 72 -23 108 20 30 61 33 76 6z"/>
<path d="M35 4470 c0 -44 3 -80 8 -80 4 0 7 36 7 80 0 44 -3 80 -7 80 -5 0 -8
-36 -8 -80z"/>
<path d="M352 4543 c26 -4 27 -6 31 -81 l3 -77 2 77 2 77 33 4 c17 2 3 4 -33
4 -36 0 -53 -2 -38 -4z"/>
<path d="M731 4468 c1 -56 4 -72 8 -48 4 26 12 36 28 38 18 3 27 -5 40 -32 9
-20 21 -36 26 -36 5 0 7 3 5 8 -2 4 -10 19 -17 34 -13 25 -12 30 4 48 15 17
16 24 7 45 -10 21 -18 25 -57 25 l-45 0 1 -82z m86 56 c10 -26 -11 -49 -43
-49 -30 0 -42 20 -30 51 8 20 65 18 73 -2z"/>
<path d="M918 4479 c-2 -39 0 -76 4 -83 4 -6 8 26 8 72 0 45 -2 82 -4 82 -2 0
-6 -32 -8 -71z"/>
<path d="M1037 4474 c-16 -42 -26 -78 -23 -81 3 -3 10 6 15 21 9 21 17 26 46
26 29 0 37 -5 46 -26 5 -15 12 -24 16 -21 9 9 -50 157 -62 157 -5 0 -23 -34
-38 -76z m47 -22 c-35 -5 -38 1 -23 45 l12 38 18 -40 18 -40 -25 -3z"/>
<path d="M10 3450 c-8 -5 -12 -11 -9 -14 3 -3 14 1 25 9 21 16 8 20 -16 5z"/>
<path d="M60 3410 c0 -27 5 -50 10 -50 6 0 10 23 10 50 0 28 -4 50 -10 50 -5
0 -10 -22 -10 -50z"/>
<path d="M126 3451 c-4 -6 5 -9 21 -8 24 2 28 -2 29 -28 0 -16 -3 -36 -9 -42
-7 -9 -5 -13 7 -13 14 0 17 9 14 48 -3 43 -5 47 -30 50 -14 2 -29 -1 -32 -7z"/>
<path d="M114 3395 c-7 -16 12 -45 28 -45 6 0 5 7 -2 15 -7 8 -10 22 -6 30 3
8 1 15 -5 15 -5 0 -12 -7 -15 -15z"/>
<path d="M3542 2818 l1 -83 7 65 6 65 29 -62 c15 -35 31 -63 34 -63 3 0 18 30
33 68 l27 67 0 -67 c1 -38 5 -68 11 -68 6 0 10 33 10 80 0 100 -18 107 -50 20
-12 -33 -26 -62 -30 -65 -4 -2 -18 23 -31 57 -36 91 -49 87 -47 -14z"/>
<path d="M3780 2820 c0 -47 4 -80 10 -80 6 0 10 33 10 80 0 47 -4 80 -10 80
-6 0 -10 -33 -10 -80z"/>
<path d="M3890 2820 l0 -80 48 2 c43 1 44 2 10 5 l-38 4 0 75 c0 43 -4 74 -10
74 -6 0 -10 -33 -10 -80z"/>
<path d="M4062 2823 l-2 -83 48 2 47 1 -42 4 -42 4 -4 77 -3 77 -2 -82z"/>
<path d="M4220 2820 l0 -80 36 0 c19 0 44 5 55 10 21 12 25 50 7 68 -8 8 -8
15 1 26 9 11 10 20 1 35 -8 16 -20 21 -55 21 l-45 0 0 -80z m86 55 c9 -21 -14
-45 -42 -45 -20 0 -24 5 -24 30 0 27 3 30 30 30 18 0 33 -6 36 -15z m2 -84 c4
-26 -12 -41 -45 -41 -20 0 -23 5 -23 36 0 34 1 35 33 32 25 -2 33 -8 35 -27z"/>
<path d="M4425 2825 c-15 -41 -25 -78 -21 -82 3 -3 6 -1 6 5 0 22 30 41 57 36
35 -7 43 -12 43 -30 0 -8 5 -14 11 -14 12 0 8 15 -26 97 -12 31 -27 59 -33 61
-5 1 -22 -31 -37 -73z m54 14 c14 -41 15 -39 -18 -39 -29 0 -29 1 -18 35 13
43 22 44 36 4z"/>
<path d="M4600 2820 c0 -47 4 -80 10 -80 6 0 10 29 10 67 l0 68 45 -68 c25
-37 50 -67 55 -67 6 0 10 34 10 80 0 94 -18 108 -22 18 l-3 -63 -40 63 c-54
84 -65 81 -65 -18z"/>
<path d="M4820 2819 c0 -51 4 -78 10 -74 6 3 10 19 10 36 0 40 21 37 55 -7 38
-50 44 -34 6 17 l-31 43 25 26 c41 43 28 47 -15 5 l-40 -39 0 37 c0 20 -4 37
-10 37 -6 0 -10 -34 -10 -81z"/>
<path d="M4442 1390 c-20 -19 -22 -31 -22 -118 0 -154 -31 -142 353 -142 276
0 326 2 345 16 20 14 22 23 22 117 0 160 31 147 -354 147 -310 0 -323 -1 -344
-20z m664 -4 c16 -12 20 -29 22 -108 5 -144 33 -132 -340 -136 -261 -2 -316 0
-333 12 -16 12 -20 29 -23 95 -5 99 2 129 31 141 12 5 157 9 323 9 244 1 304
-2 320 -13z"/>
<path d="M4548 1333 c-3 -10 -15 -42 -27 -70 -11 -29 -17 -53 -12 -53 6 0 13
9 16 20 10 30 70 28 80 -2 3 -13 8 -18 11 -13 6 14 -41 128 -54 133 -5 1 -12
-5 -14 -15z m20 -71 c-28 -5 -33 4 -18 35 l13 28 12 -30 c12 -27 12 -30 -7
-33z"/>
<path d="M4647 1343 c-14 -13 -7 -25 8 -13 8 7 22 10 30 6 22 -8 18 -35 -7
-45 l-22 -8 23 -6 c16 -4 22 -12 19 -28 -4 -29 -21 -34 -42 -14 -14 15 -16 15
-16 1 0 -21 46 -32 65 -16 17 14 20 46 5 55 -8 5 -7 11 0 20 19 23 2 55 -29
55 -15 0 -31 -3 -34 -7z"/>
<path d="M4750 1335 c-7 -9 -10 -18 -6 -22 3 -4 12 2 20 12 16 22 46 14 46
-13 0 -10 -13 -31 -30 -47 -43 -41 -39 -55 13 -53 36 1 38 2 10 5 -18 2 -33 6
-33 9 0 3 14 23 31 44 38 47 34 80 -10 80 -16 0 -34 -7 -41 -15z"/>
<path d="M4878 1343 c-10 -2 -18 -8 -18 -13 0 -5 7 -7 15 -4 12 5 15 -5 15
-55 0 -34 4 -61 10 -61 6 0 10 30 10 70 0 39 -3 69 -7 69 -5 -1 -16 -3 -25 -6z"/>
<path d="M4966 1335 c-10 -27 -6 -31 9 -12 16 22 48 19 53 -5 2 -9 -13 -34
-32 -56 -20 -22 -36 -42 -36 -46 0 -3 21 -5 48 -5 26 1 38 3 27 6 -46 10 -47
12 -20 47 35 47 31 80 -11 84 -22 2 -33 -2 -38 -13z"/>
<path d="M351 1068 c1 -68 17 -130 18 -70 1 28 4 32 29 32 35 0 72 26 72 50 0
31 -28 50 -75 50 l-45 0 1 -62z m87 43 c8 -4 12 -19 10 -32 -2 -20 -10 -25
-40 -27 -37 -3 -38 -3 -38 32 0 33 3 36 28 36 15 0 33 -4 40 -9z"/>
<path d="M550 1050 c0 -47 4 -80 10 -80 6 0 10 33 10 80 0 47 -4 80 -10 80 -6
0 -10 -33 -10 -80z"/>
<path d="M662 1048 l1 -83 7 65 6 65 18 -40 c10 -22 22 -50 27 -62 13 -36 23
-28 52 40 l26 62 0 -62 c1 -35 5 -63 11 -63 6 0 10 33 10 80 0 101 -16 106
-50 15 -13 -36 -27 -65 -31 -65 -3 0 -17 28 -30 62 -36 91 -49 87 -47 -14z"/>
<path d="M900 1050 l0 -80 53 2 c50 1 50 2 10 5 l-43 4 0 75 c0 43 -4 74 -10
74 -6 0 -10 -33 -10 -80z"/>
<path d="M1070 1050 c0 -47 4 -80 10 -80 6 0 10 33 10 80 0 47 -4 80 -10 80
-6 0 -10 -33 -10 -80z"/>
<path d="M1190 1110 c-24 -24 -27 -86 -4 -118 10 -15 25 -22 48 -22 33 0 66
24 52 38 -4 4 -12 -1 -17 -11 -12 -21 -52 -22 -68 -3 -7 8 -11 36 -9 63 3 42
6 49 31 58 25 8 31 6 48 -15 15 -20 19 -21 19 -8 0 38 -68 50 -100 18z"/>
<path d="M1387 1112 c-11 -12 -17 -36 -17 -64 0 -54 21 -78 69 -78 27 0 34 5
47 35 25 60 -4 125 -56 125 -15 0 -34 -8 -43 -18z m75 -9 c23 -20 24 -85 2
-107 -38 -39 -92 5 -80 66 11 57 42 74 78 41z"/>
<path d="M9350 780 c0 -47 4 -80 10 -80 6 0 10 13 10 29 0 46 20 49 54 8 43
-52 54 -46 15 8 l-32 44 27 36 c38 49 19 44 -26 -7 l-37 -43 -1 43 c0 23 -4
42 -10 42 -6 0 -10 -33 -10 -80z"/>
<path d="M9550 780 l0 -80 53 2 52 1 -45 6 c-42 6 -45 8 -45 36 0 27 4 31 35
36 l35 6 -35 4 c-30 3 -35 8 -35 29 0 22 5 26 45 31 l45 6 -52 1 -53 2 0 -80z"/>
<path d="M9720 780 c0 -47 4 -80 10 -80 6 0 10 29 10 67 l0 68 45 -68 c25 -37
50 -67 55 -67 6 0 10 34 10 80 0 47 -4 80 -10 80 -6 0 -10 -29 -10 -67 l0 -67
-42 67 c-24 37 -49 67 -55 67 -9 0 -13 -23 -13 -80z"/>
<path d="M9940 780 c0 -94 18 -108 22 -17 l3 62 39 -62 c21 -35 43 -63 47 -63
5 0 8 37 7 83 -2 76 -2 77 -5 20 -2 -35 -7 -63 -11 -63 -4 0 -24 27 -44 60
-20 33 -42 60 -48 60 -6 0 -10 -31 -10 -80z"/>
<path d="M10163 780 c0 -47 2 -66 4 -42 2 23 2 61 0 85 -2 23 -4 4 -4 -43z"/>
<path d="M10260 780 c0 -47 4 -80 10 -80 6 0 10 29 10 68 l0 67 43 -67 c23
-38 47 -68 54 -68 9 0 13 22 13 80 0 94 -18 108 -22 18 l-3 -63 -43 63 c-23
34 -47 62 -52 62 -6 0 -10 -35 -10 -80z"/>
<path d="M10494 846 c-14 -11 -19 -26 -19 -66 0 -40 5 -55 19 -66 26 -18 80
-18 96 0 18 23 8 61 -17 64 -13 2 -23 -1 -23 -7 0 -6 7 -11 16 -11 28 0 13
-45 -17 -48 -35 -4 -59 22 -59 64 0 68 40 96 82 57 20 -18 25 -4 6 15 -16 16
-60 15 -84 -2z"/>
<path d="M10693 853 c27 -4 27 -5 27 -79 0 -43 4 -74 10 -74 6 0 10 31 10 74
0 74 0 75 28 79 15 2 -2 4 -38 4 -36 0 -53 -2 -37 -4z"/>
<path d="M10893 852 c-19 -12 -35 -64 -28 -92 15 -57 74 -80 108 -42 24 26 23
104 -1 125 -19 18 -59 22 -79 9z m71 -24 c30 -43 9 -118 -34 -118 -43 0 -67
85 -33 122 22 24 49 23 67 -4z"/>
<path d="M11079 850 c-3 -55 0 -142 5 -147 3 -4 6 22 6 56 0 72 6 72 55 -5 19
-30 39 -54 45 -54 6 0 10 33 10 80 0 94 -18 108 -22 18 l-3 -63 -40 63 c-38
59 -54 74 -56 52z"/>
<path d="M5370 378 c1 -23 55 -153 64 -153 10 0 69 156 62 163 -6 5 -15 -14
-44 -92 l-19 -50 -22 57 c-11 32 -21 62 -21 67 0 5 -4 12 -10 15 -5 3 -10 0
-10 -7z"/>
<path d="M5623 378 c-18 -23 -63 -158 -53 -158 5 0 12 11 16 25 5 21 12 25 45
25 33 0 40 -4 45 -25 5 -21 24 -37 24 -20 0 6 -61 159 -64 163 -2 1 -8 -3 -13
-10z m26 -59 c6 -18 11 -34 11 -35 0 -2 -13 -4 -30 -4 -16 0 -30 2 -30 4 0 14
24 66 30 66 4 0 13 -14 19 -31z"/>
<path d="M5770 324 c0 -80 6 -92 45 -99 48 -10 64 11 68 82 2 34 0 68 -4 75
-5 8 -9 -14 -9 -54 0 -47 -5 -71 -16 -82 -19 -19 -25 -20 -48 -3 -14 10 -20
31 -23 78 -6 86 -13 88 -13 3z"/>
<path d="M5984 349 l25 -46 -25 -36 c-33 -50 -30 -59 7 -17 29 34 30 35 45 15
9 -11 19 -27 24 -35 5 -8 11 -12 15 -8 4 3 -5 23 -19 44 l-26 38 26 43 c18 31
20 41 9 37 -8 -3 -15 -9 -15 -13 0 -4 -6 -16 -14 -27 -14 -18 -16 -18 -46 16
l-32 35 26 -46z"/>
<path d="M6160 305 c0 -50 4 -85 10 -85 6 0 10 18 10 40 l0 40 45 0 45 0 0
-40 c0 -22 5 -40 10 -40 6 0 10 35 10 85 0 50 -4 85 -10 85 -5 0 -10 -18 -10
-40 l0 -40 -45 0 -45 0 0 40 c0 22 -4 40 -10 40 -6 0 -10 -35 -10 -85z"/>
<path d="M6426 381 c-12 -18 -56 -141 -56 -154 1 -6 8 0 16 16 12 21 22 27 50
27 28 0 36 -5 45 -26 5 -15 12 -24 15 -21 6 6 -43 145 -56 160 -4 5 -11 4 -14
-2z m34 -88 c0 -8 -12 -13 -30 -13 -19 0 -28 4 -25 13 2 6 10 26 16 42 l11 30
14 -30 c7 -16 13 -36 14 -42z"/>
<path d="M6578 385 c-3 -6 -6 -44 -5 -85 l2 -75 48 -3 c28 -2 47 1 47 7 0 6
-18 11 -40 11 l-39 0 -3 78 c-2 42 -6 72 -10 67z"/>
<path d="M6740 305 l0 -85 51 0 c31 0 48 4 44 10 -3 6 -22 10 -41 10 l-34 0 0
75 c0 43 -4 75 -10 75 -6 0 -10 -35 -10 -85z"/>
</g>
</svg>
