<?xml version="1.0" standalone="no"?>
<!DOCTYPE svg PUBLIC "-//W3C//DTD SVG 20010904//EN"
 "http://www.w3.org/TR/2001/REC-SVG-20010904/DTD/svg10.dtd">
<svg version="1.0" xmlns="http://www.w3.org/2000/svg"
 width="337.000000pt" height="316.000000pt" viewBox="0 0 337.000000 316.000000"
 preserveAspectRatio="xMidYMid meet">

<g transform="translate(0.000000,316.000000) scale(0.100000,-0.100000)"
fill="#000000" stroke="none">
<path d="M0 1580 l0 -1580 1421 0 c781 0 1419 3 1417 8 -45 103 -46 140 -2
169 22 14 31 15 58 4 17 -7 37 -13 44 -14 6 0 12 -6 12 -14 0 -7 9 -22 21 -34
18 -18 28 -20 69 -14 27 4 58 4 69 0 28 -9 47 -43 32 -58 -6 -6 -11 -19 -11
-29 0 -16 11 -18 120 -18 l120 0 0 40 c0 29 -4 40 -15 40 -27 0 -48 46 -41 92
4 24 7 59 7 78 0 31 1 32 9 13 5 -13 16 -23 25 -23 13 0 15 24 15 170 0 157
-1 170 -18 170 -10 0 -23 -5 -30 -12 -14 -14 -15 -86 -3 -141 8 -32 -1 -101
-14 -115 -1 -2 -17 12 -35 30 l-33 32 -21 -27 c-12 -15 -27 -27 -33 -27 -15 0
-25 33 -17 54 7 18 -13 128 -28 159 -5 9 -18 17 -29 17 -11 0 -30 5 -41 11
-27 14 -65 -13 -93 -67 -30 -57 -60 -57 -131 0 -36 30 -66 46 -83 46 -17 0
-37 10 -52 26 -13 15 -44 36 -69 48 -62 30 -110 67 -110 86 0 26 -25 52 -60
64 -49 16 -59 60 -23 98 15 16 30 28 35 28 4 0 24 -28 44 -63 42 -74 59 -86
128 -97 28 -4 59 -11 69 -15 15 -6 17 -1 17 37 0 45 -21 78 -49 78 -8 0 -11 6
-7 16 3 9 6 22 6 30 0 8 8 14 18 14 23 0 44 24 62 68 17 43 43 42 64 -3 17
-34 33 -51 42 -42 3 2 7 21 11 40 5 33 0 43 -47 102 -54 66 -59 68 -118 65
-21 -1 -34 4 -38 14 -10 27 4 62 29 73 17 8 28 25 36 57 6 24 15 48 21 51 22
14 10 31 -20 27 -19 -3 -42 4 -65 18 -43 26 -61 21 -70 -19 -4 -17 -15 -37
-24 -43 -26 -19 -30 -39 -16 -74 13 -31 12 -33 -28 -71 -51 -47 -116 -83 -150
-83 -14 0 -38 7 -54 15 -15 8 -53 19 -84 25 -54 10 -56 12 -80 63 -20 43 -29
53 -54 55 -19 3 -33 -2 -41 -13 -10 -14 -11 -10 -7 22 4 27 1 43 -10 51 -21
18 -64 -1 -85 -38 -21 -36 -41 -38 -72 -5 -12 13 -38 29 -56 35 -27 9 -34 17
-34 36 0 14 -4 33 -10 43 -12 23 13 61 40 61 11 0 30 14 42 31 16 21 28 29 43
25 12 -3 28 3 42 16 34 32 30 79 -14 150 l-37 59 17 47 c22 60 21 65 -3 52
-10 -6 -25 -9 -32 -8 -6 2 -14 -6 -16 -17 -2 -11 -20 -36 -40 -57 l-37 -36
-10 41 c-9 35 -14 42 -33 40 -33 -4 -41 26 -13 49 30 24 49 23 71 -4 l19 -23
26 26 c26 26 26 27 14 87 -10 49 -10 63 0 76 20 24 39 19 57 -16 9 -18 23 -38
30 -46 8 -7 14 -24 14 -37 0 -29 5 -32 56 -40 52 -8 74 9 76 59 1 30 -3 42
-18 50 -39 22 -144 135 -144 156 0 12 -7 34 -15 50 -14 27 -20 30 -64 30 -44
0 -51 -4 -75 -34 -18 -25 -26 -47 -26 -77 0 -36 -2 -40 -15 -29 -20 16 -65
-12 -65 -40 0 -21 -34 -28 -45 -10 -4 6 -24 19 -45 30 -21 11 -41 28 -44 37
-14 43 -107 66 -112 28 -2 -11 -6 -33 -10 -50 -4 -20 2 -47 17 -82 19 -42 32
-56 69 -74 58 -29 54 -22 60 -82 5 -50 6 -52 34 -50 35 3 23 -14 -14 -19 -18
-2 -26 -11 -31 -35 -3 -17 -16 -48 -28 -68 -35 -59 -31 -99 12 -139 24 -22 37
-43 37 -59 0 -34 46 -114 81 -139 16 -12 43 -50 61 -85 29 -54 31 -65 20 -83
-10 -16 -10 -34 -2 -83 22 -125 23 -137 10 -152 -23 -27 -38 -16 -55 40 -17
61 -47 117 -81 155 -34 38 -92 137 -115 199 -11 31 -31 67 -44 81 -42 45 -94
141 -101 189 -3 25 -17 61 -31 79 -24 32 -25 32 -51 16 -28 -16 -72 -105 -72
-143 0 -10 -7 -35 -16 -56 -13 -31 -13 -46 -4 -89 16 -69 21 -77 63 -105 38
-25 48 -55 22 -65 -8 -3 -15 -12 -15 -21 0 -13 -4 -14 -20 -5 -11 6 -18 15
-15 20 4 6 -16 34 -44 63 -46 49 -50 57 -56 117 -6 50 -14 74 -36 102 -30 38
-37 76 -18 95 16 16 14 166 -3 213 -3 8 -11 39 -17 67 -9 45 -8 62 10 115 22
69 53 363 44 415 -7 37 4 47 53 45 29 -1 32 1 22 13 -7 9 -29 15 -51 15 -22 0
-39 5 -39 10 0 6 5 10 10 10 15 0 12 48 -2 53 -10 3 -10 7 0 20 11 13 10 19
-6 35 -11 11 -23 37 -26 58 -4 22 -16 53 -27 70 -10 17 -19 43 -19 57 l0 26
43 -19 c23 -10 70 -20 105 -22 52 -2 63 -6 68 -22 4 -12 2 -22 -5 -24 -13 -4
-41 -54 -41 -72 0 -7 5 -10 11 -8 6 2 11 8 11 13 0 16 19 35 29 29 17 -10 10
-44 -10 -44 -16 0 -31 -18 -31 -36 0 -14 49 1 69 21 18 20 22 32 17 56 -3 17
-1 39 4 49 7 13 5 29 -7 57 -9 21 -15 52 -14 69 2 21 -3 33 -13 37 -9 4 -16
12 -16 19 0 7 -12 23 -27 35 -18 16 -21 23 -11 23 9 0 18 7 22 15 4 12 0 14
-18 9 -21 -5 -22 -3 -19 28 l4 33 -23 -27 c-17 -20 -27 -25 -38 -18 -13 8 -12
11 4 23 18 13 18 14 -3 20 -22 5 -29 41 -11 52 8 5 7 12 -1 22 -11 12 -14 9
-23 -19 -12 -36 -38 -47 -63 -26 -20 16 -54 89 -47 100 3 4 -41 8 -98 7 l-103
0 70 -19 c38 -10 71 -22 73 -27 1 -4 19 -37 40 -72 27 -48 50 -72 82 -91 32
-18 52 -40 70 -75 14 -28 29 -53 34 -56 13 -10 -2 -29 -22 -29 -10 0 -50 16
-91 35 l-73 35 21 26 c23 29 27 44 11 44 -5 0 -10 -6 -10 -14 0 -18 -67 -26
-80 -11 -6 7 -7 14 -4 18 10 10 -37 48 -64 51 -31 4 -43 26 -13 26 12 0 21 5
21 10 0 6 -7 10 -16 10 -9 0 -28 12 -41 26 -19 20 -27 23 -38 14 -11 -9 -14
-7 -17 11 -2 18 -11 24 -38 27 -19 2 -36 4 -36 5 -1 1 -5 13 -9 26 -7 22 -5
23 19 19 14 -3 26 -1 26 3 0 5 -160 9 -355 9 l-355 0 0 -1580z m967 1528 c-3
-8 -6 -5 -6 6 -1 11 2 17 5 13 3 -3 4 -12 1 -19z m-167 -89 c0 -6 -4 -7 -10
-4 -5 3 -10 11 -10 16 0 6 5 7 10 4 6 -3 10 -11 10 -16z m520 -1881 c0 -19 -2
-20 -10 -8 -13 19 -13 30 0 30 6 0 10 -10 10 -22z m32 -72 c35 -8 59 -33 51
-52 -3 -9 -16 -26 -28 -38 l-23 -23 2 31 c1 25 -3 32 -21 34 -13 2 -28 16 -37
37 -23 48 -20 62 7 38 12 -11 34 -23 49 -27z m1118 -55 c14 -26 13 -88 -2 -97
-14 -9 -48 31 -48 58 0 24 18 58 30 58 5 0 14 -9 20 -19z m194 -22 c15 -22 25
-43 23 -46 -8 -7 -68 27 -74 43 -6 17 3 44 15 44 5 0 22 -18 36 -41z m-1226
-150 c37 -21 68 -71 75 -122 5 -37 4 -48 -6 -45 -6 3 -13 22 -15 43 -3 38 -26
83 -49 98 -16 10 -93 113 -93 124 0 4 15 -13 33 -39 17 -26 42 -52 55 -59z
m1642 -298 c0 -6 -4 -13 -10 -16 -5 -3 -10 1 -10 9 0 9 5 16 10 16 6 0 10 -4
10 -9z m198 -278 c-4 -22 -22 -20 -26 1 -2 10 3 16 13 16 10 0 15 -7 13 -17z"/>
<path d="M1768 3021 c-7 -24 9 -71 24 -71 11 0 10 14 -1 26 -5 5 -11 23 -13
39 -3 28 -4 29 -10 6z"/>
<path d="M1240 2922 c0 -10 1725 -13 1960 -3 105 5 -253 8 -892 9 -588 1
-1068 -2 -1068 -6z"/>
<path d="M1576 2755 c-9 -13 -16 -31 -16 -39 0 -20 -21 -66 -30 -66 -22 0 -76
-117 -82 -180 -2 -17 -13 -30 -35 -40 -21 -10 -33 -23 -35 -39 -5 -38 -33 -49
-60 -24 -17 15 -29 18 -43 13 -11 -5 -33 -9 -50 -9 -44 -2 -56 -13 -66 -62
-11 -57 -2 -107 21 -114 10 -3 30 -25 46 -48 l28 -42 12 30 c7 17 13 44 14 62
0 46 16 80 45 99 24 16 28 16 42 1 8 -8 15 -28 15 -44 0 -37 15 -63 36 -63 10
0 26 -6 37 -14 11 -7 34 -17 51 -20 27 -6 35 -3 52 18 11 15 29 26 39 26 24 0
53 30 53 54 0 9 15 25 33 36 18 11 46 38 62 61 17 23 42 55 57 73 l26 31 30
-22 c45 -33 75 -38 96 -15 16 18 16 23 3 55 -8 19 -20 38 -26 41 -11 7 -45
114 -55 179 -7 40 -9 40 -75 28 -36 -7 -52 -5 -80 10 -20 10 -41 19 -47 19 -6
0 -17 7 -24 15 -19 23 -56 18 -74 -10z"/>
<path d="M1953 2768 c2 -7 0 -23 -4 -35 -5 -13 -5 -23 -1 -23 15 0 43 42 38
56 -7 17 -39 19 -33 2z"/>
<path d="M2220 2745 c-1 -5 -3 -19 -5 -30 -6 -28 11 -53 25 -39 8 8 7 20 -4
45 -8 19 -15 30 -16 24z"/>
<path d="M3084 2716 c-7 -19 -55 -38 -98 -39 -20 -1 -36 -5 -36 -9 0 -4 -11
-8 -25 -8 l-25 0 21 -21 21 -21 19 21 c13 13 32 21 54 21 18 0 46 5 62 11 23
8 30 7 40 -7 12 -17 13 -17 13 2 -1 53 -32 87 -46 50z"/>
<path d="M2882 2181 c2 -7 7 -12 11 -12 12 1 9 15 -3 20 -7 2 -11 -2 -8 -8z"/>
<path d="M2643 2153 c-18 -7 -16 -23 2 -23 8 0 15 -5 15 -11 0 -5 4 -8 9 -5
10 6 3 47 -8 45 -3 0 -12 -3 -18 -6z"/>
<path d="M2920 2100 c0 -25 4 -39 10 -35 6 3 10 19 10 35 0 16 -4 32 -10 35
-6 4 -10 -10 -10 -35z"/>
<path d="M1270 2095 c0 -8 5 -15 10 -15 6 0 10 7 10 15 0 8 -4 15 -10 15 -5 0
-10 -7 -10 -15z"/>
<path d="M1325 1840 c-4 -7 2 -22 14 -33 15 -16 21 -18 21 -7 -1 24 -27 53
-35 40z"/>
<path d="M2145 1840 c3 -5 8 -10 11 -10 2 0 4 5 4 10 0 6 -5 10 -11 10 -5 0
-7 -4 -4 -10z"/>
<path d="M1500 1750 c0 -16 4 -30 9 -30 12 0 24 37 16 50 -12 20 -25 10 -25
-20z"/>
<path d="M2530 1768 c0 -7 5 -20 10 -28 8 -13 10 -12 10 3 0 9 0 20 1 24 0 4
-4 9 -10 11 -6 2 -11 -2 -11 -10z"/>
<path d="M2294 1720 c-36 -15 -43 -24 -53 -63 -16 -66 -14 -113 9 -157 11 -22
20 -55 20 -74 0 -19 6 -39 13 -43 7 -4 17 -21 22 -37 24 -71 65 -56 96 36 17
51 17 54 0 73 -12 13 -19 38 -20 73 -2 46 0 53 16 50 10 -2 20 -9 24 -17 4
-10 12 -8 33 11 28 24 29 25 11 51 -10 16 -13 27 -6 27 6 0 11 5 11 10 0 6 -7
10 -15 10 -9 0 -32 16 -52 35 -41 40 -51 41 -109 15z"/>
<path d="M2478 1496 c-6 -32 5 -42 23 -20 10 12 10 18 -3 30 -14 14 -16 13
-20 -10z"/>
<path d="M1544 1335 c-8 -20 3 -48 16 -40 13 8 13 55 0 55 -6 0 -13 -7 -16
-15z"/>
</g>
</svg>
