<?xml version="1.0" standalone="no"?>
<!DOCTYPE svg PUBLIC "-//W3C//DTD SVG 20010904//EN"
 "http://www.w3.org/TR/2001/REC-SVG-20010904/DTD/svg10.dtd">
<svg version="1.0" xmlns="http://www.w3.org/2000/svg"
 width="298.000000pt" height="282.000000pt" viewBox="0 0 298.000000 282.000000"
 preserveAspectRatio="xMidYMid meet">

<g transform="translate(0.000000,282.000000) scale(0.100000,-0.100000)"
fill="#000000" stroke="none">
<path d="M0 1410 l0 -1410 1490 0 1490 0 0 1410 0 1410 -1490 0 -1490 0 0
-1410z m440 1254 c0 -2 -9 0 -20 6 -11 6 -20 13 -20 16 0 2 9 0 20 -6 11 -6
20 -13 20 -16z m206 -45 c3 -6 -5 -3 -20 6 -14 10 -26 19 -26 22 0 7 39 -17
46 -28z m-1 -97 c-3 -3 -11 0 -18 7 -9 10 -8 11 6 5 10 -3 15 -9 12 -12z m70
-30 c-3 -3 -11 0 -18 7 -9 10 -8 11 6 5 10 -3 15 -9 12 -12z m50 -52 c3 -6 -1
-7 -9 -4 -18 7 -21 14 -7 14 6 0 13 -4 16 -10z m-41 -89 c-2 -3 -12 3 -22 13
-16 17 -16 18 5 5 12 -7 20 -15 17 -18z m46 -21 c8 -5 11 -10 5 -10 -5 0 -17
5 -25 10 -8 5 -10 10 -5 10 6 0 17 -5 25 -10z m-238 -35 c3 3 10 -1 16 -8 22
-26 -17 -15 -40 12 -20 22 -20 23 -2 8 11 -9 23 -15 26 -12z m-98 -31 c5 -14
4 -15 -9 -4 -17 14 -19 20 -6 20 5 0 12 -7 15 -16z m189 -41 c-7 -2 -19 -2
-25 0 -7 3 -2 5 12 5 14 0 19 -2 13 -5z m-372 -130 c13 -16 12 -17 -3 -4 -10
7 -18 15 -18 17 0 8 8 3 21 -13z m776 -339 c-3 -3 -12 -4 -19 -1 -8 3 -5 6 6
6 11 1 17 -2 13 -5z m814 -325 c5 -35 5 -35 -33 -34 -21 0 -38 1 -38 2 0 1 10
18 21 38 26 43 42 41 50 -6z m97 34 c-10 -2 -20 -18 -24 -39 -3 -19 -10 -34
-14 -34 -4 0 -4 16 0 34 6 28 4 36 -9 39 -9 3 2 5 24 5 22 0 32 -2 23 -5z m46
-23 c-5 -25 -3 -31 17 -39 23 -9 22 -10 -8 -10 -35 -1 -39 9 -27 57 9 33 24
27 18 -8z m116 21 c0 -5 3 -21 6 -37 5 -28 4 -29 -35 -29 -26 -1 -37 3 -32 10
4 5 15 22 24 38 17 26 37 36 37 18z m82 -16 c12 -27 28 -24 28 6 0 10 4 19 10
19 5 0 8 -6 6 -12 -3 -7 -7 -25 -10 -40 -4 -16 -10 -28 -15 -28 -4 0 -13 12
-20 28 l-13 27 -13 -30 c-15 -33 -18 -24 -9 24 8 37 20 40 36 6z m128 18 c-20
-8 -30 -24 -30 -50 0 -13 -4 -23 -10 -23 -5 0 -7 13 -3 31 4 21 1 34 -8 40 -9
6 -1 8 26 8 22 0 33 -3 25 -6z m38 -33 c-6 -23 -13 -39 -16 -36 -7 8 8 76 17
76 5 0 4 -18 -1 -40z m98 28 c5 -8 2 -9 -9 -5 -27 10 -47 -3 -47 -30 0 -22 4
-25 26 -20 16 3 22 1 16 -5 -14 -14 -43 -6 -56 14 -8 13 -6 22 8 37 21 23 51
27 62 9z m-498 -140 c19 -19 14 -45 -10 -62 -28 -20 -33 -20 -52 0 -21 20 -20
30 4 54 23 23 41 25 58 8z m99 5 c15 -6 13 -8 -12 -13 -21 -4 -31 -12 -33 -28
-3 -18 1 -22 25 -23 27 0 27 -1 6 -11 -46 -22 -73 37 -31 66 26 19 22 18 45 9z
m93 -3 c0 -5 -11 -10 -25 -10 -31 0 -33 -19 -2 -21 l22 -2 -22 -4 c-28 -5 -30
-23 -3 -23 11 0 20 -4 20 -10 0 -5 -14 -10 -31 -10 -31 0 -31 1 -24 37 4 21 9
41 11 45 7 12 54 10 54 -2z m85 -31 c4 -22 4 -43 1 -46 -3 -4 -6 -1 -6 5 0 16
-47 15 -53 0 -2 -7 -7 -11 -10 -8 -7 6 42 90 53 90 5 0 11 -18 15 -41z m99 1
c2 8 7 22 9 30 3 8 5 2 6 -15 0 -16 -4 -39 -8 -50 -7 -18 -10 -17 -30 15 -16
27 -21 30 -21 15 0 -11 -5 -27 -11 -35 -8 -11 -9 -5 -4 25 10 56 15 61 36 29
13 -20 19 -24 23 -14z"/>
<path d="M1805 1430 c-3 -5 -1 -10 4 -10 6 0 11 5 11 10 0 6 -2 10 -4 10 -3 0
-8 -4 -11 -10z"/>
<path d="M2076 1441 c-4 -7 -5 -15 -2 -18 9 -9 19 4 14 18 -4 11 -6 11 -12 0z"/>
<path d="M1897 1303 c-15 -14 -7 -43 13 -43 20 0 44 32 33 44 -8 8 -38 8 -46
-1z"/>
<path d="M2196 1291 c-4 -7 -5 -15 -2 -18 9 -9 19 4 14 18 -4 11 -6 11 -12 0z"/>
</g>
</svg>
