<?xml version="1.0" standalone="no"?>
<!DOCTYPE svg PUBLIC "-//W3C//DTD SVG 20010904//EN"
 "http://www.w3.org/TR/2001/REC-SVG-20010904/DTD/svg10.dtd">
<svg version="1.0" xmlns="http://www.w3.org/2000/svg"
 width="1200.000000pt" height="1202.000000pt" viewBox="0 0 1200.000000 1202.000000"
 preserveAspectRatio="xMidYMid meet">

<g transform="translate(0.000000,1202.000000) scale(0.100000,-0.100000)"
fill="#000000" stroke="none">
<path d="M1393 10465 c0 -61 1 -69 6 -35 4 32 11 46 24 48 14 3 17 -4 17 -42
0 -25 5 -48 10 -51 6 -4 10 13 10 43 0 52 -16 77 -43 66 -11 -4 -17 2 -20 23
-2 15 -4 -8 -4 -52z"/>
<path d="M1006 10463 c15 -70 20 -81 30 -70 4 4 2 19 -4 34 -6 15 -14 45 -18
66 -3 20 -10 37 -14 37 -4 0 -1 -30 6 -67z"/>
<path d="M1057 10523 c-3 -5 -7 -28 -11 -53 l-6 -45 13 40 14 40 13 -57 c7
-32 17 -58 21 -58 4 0 13 26 19 58 6 31 13 63 15 70 3 6 0 12 -5 12 -5 0 -12
-25 -15 -55 -8 -64 -21 -64 -31 0 -6 44 -18 64 -27 48z"/>
<path d="M1223 10493 c-22 -8 -14 -36 15 -59 21 -18 24 -25 15 -35 -10 -10
-15 -9 -28 1 -8 7 -18 10 -21 7 -9 -9 33 -27 50 -21 28 11 25 33 -6 57 -33 27
-32 55 3 37 11 -6 19 -7 19 -1 0 7 -26 23 -33 20 -1 0 -8 -3 -14 -6z"/>
<path d="M1313 10493 c-22 -8 -14 -36 15 -59 21 -18 24 -25 15 -35 -10 -10
-15 -9 -28 1 -8 7 -15 8 -15 2 0 -13 26 -23 44 -16 28 11 25 33 -6 57 -33 27
-32 55 3 37 11 -6 19 -7 19 -1 0 7 -26 23 -33 20 -1 0 -8 -3 -14 -6z"/>
<path d="M1500 10480 c-25 -25 -26 -62 -1 -84 24 -22 56 -8 65 29 13 52 -30
89 -64 55z m48 -33 c4 -33 -13 -58 -34 -50 -9 3 -14 20 -14 45 0 35 2 39 23
36 16 -2 23 -11 25 -31z"/>
<path d="M1613 10493 c-20 -4 -23 -11 -23 -54 0 -27 5 -49 10 -49 6 0 10 17
10 37 0 20 7 45 17 55 9 10 14 17 12 17 -2 -1 -14 -4 -26 -6z"/>
<path d="M1678 10493 c-15 -4 -18 -15 -16 -56 l1 -52 6 45 c4 31 11 46 23 48
17 3 22 -7 31 -68 3 -14 5 -5 6 21 1 40 -12 71 -28 68 -4 -1 -14 -3 -23 -6z"/>
<path d="M1160 10440 c0 -27 5 -50 10 -50 6 0 10 23 10 50 0 28 -4 50 -10 50
-5 0 -10 -22 -10 -50z"/>
<path d="M1085 10264 c-9 -9 -13 -19 -10 -22 3 -3 11 3 19 13 7 10 18 15 24
11 21 -13 13 -51 -19 -94 l-31 -42 44 2 c37 1 38 2 10 5 l-33 4 26 30 c35 43
43 79 20 96 -24 17 -30 16 -50 -3z"/>
<path d="M1186 10264 c-32 -31 -9 -95 29 -80 10 4 15 -1 15 -15 0 -11 -10 -24
-22 -29 -17 -6 -18 -9 -6 -9 23 -1 48 37 48 74 0 31 -24 75 -40 75 -5 0 -16
-7 -24 -16z m39 -39 c0 -43 -29 -40 -33 3 -3 28 0 33 15 30 13 -2 18 -12 18
-33z"/>
<path d="M1284 10266 c-10 -8 -15 -18 -11 -23 5 -4 13 0 18 9 5 10 16 15 24
12 20 -8 19 -41 -1 -52 -15 -8 -15 -10 0 -15 18 -7 22 -52 5 -62 -5 -4 -19 1
-30 11 -10 9 -19 12 -19 6 0 -16 36 -33 54 -26 21 8 29 39 17 62 -5 10 -6 24
-1 32 9 15 2 41 -14 52 -15 11 -20 10 -42 -6z"/>
<path d="M1390 10255 c-6 -8 -14 -31 -17 -52 -9 -71 57 -112 74 -45 8 32 -8
57 -36 56 -27 -1 -27 21 1 40 17 12 18 16 6 16 -8 0 -21 -7 -28 -15z m40 -64
c13 -25 2 -53 -19 -49 -17 3 -26 31 -17 54 8 20 23 18 36 -5z"/>
<path d="M1546 10231 c-3 -5 3 -11 13 -14 15 -4 21 -16 24 -48 l4 -44 1 48 c2
40 5 47 22 47 17 0 20 -7 20 -45 0 -25 5 -45 10 -45 6 0 10 20 10 44 0 52 -18
73 -49 57 -13 -7 -22 -8 -26 -1 -8 12 -22 13 -29 1z"/>
<path d="M1523 10180 c0 -30 2 -43 4 -27 2 15 2 39 0 55 -2 15 -4 2 -4 -28z"/>
<path d="M5681 9924 c0 -11 3 -14 6 -6 3 7 2 16 -1 19 -3 4 -6 -2 -5 -13z"/>
<path d="M5691 9884 c0 -11 3 -14 6 -6 3 7 2 16 -1 19 -3 4 -6 -2 -5 -13z"/>
<path d="M5605 9792 c-18 -13 -34 -49 -25 -58 5 -5 10 -27 13 -49 4 -40 4 -40
5 8 2 43 4 47 27 47 23 0 25 -4 25 -44 0 -29 5 -46 15 -49 8 -4 17 -2 20 3 4
6 1 10 -4 10 -13 0 -15 77 -2 82 4 2 0 12 -10 22 -17 17 -19 18 -19 3 0 -11
-8 -17 -25 -17 -27 0 -34 17 -10 26 8 4 15 10 15 15 0 11 -11 11 -25 1z"/>
<path d="M5340 9780 c0 -5 11 -10 25 -10 23 0 24 -4 28 -62 l3 -63 2 63 c2 59
3 62 27 62 14 0 25 5 25 10 0 6 -25 10 -55 10 -30 0 -55 -4 -55 -10z"/>
<path d="M5472 9709 c-2 -54 11 -70 51 -62 25 5 27 9 27 54 0 27 -4 49 -10 49
-5 0 -10 -21 -10 -46 0 -41 -2 -45 -22 -42 -19 2 -24 11 -29 48 l-6 45 -1 -46z"/>
<path d="M5712 9738 c-17 -17 -15 -64 4 -82 17 -18 24 -19 48 -10 27 10 18 21
-14 16 -23 -3 -30 0 -30 12 0 11 9 16 29 16 36 0 41 8 30 38 -9 24 -47 30 -67
10z m56 -15 c2 -8 -6 -13 -22 -13 -25 0 -33 10 -19 24 10 10 36 3 41 -11z"/>
<path d="M5805 9741 c-10 -9 -5 -91 5 -91 6 0 10 16 10 36 0 23 6 42 18 50 16
12 15 13 -6 11 -13 -1 -25 -3 -27 -6z"/>
<path d="M5882 9738 c-6 -6 -12 -27 -12 -45 0 -26 5 -35 25 -43 25 -9 55 -4
55 9 0 4 -13 6 -29 3 -19 -3 -30 1 -34 12 -5 13 1 16 29 16 33 0 35 2 32 28
-2 20 -9 28 -28 30 -14 2 -31 -3 -38 -10z m52 -13 c4 -11 -1 -15 -19 -15 -24
0 -32 10 -18 23 11 12 31 8 37 -8z"/>
<path d="M5970 9699 c0 -60 18 -65 22 -6 2 34 7 42 23 42 16 0 21 -9 26 -45
l7 -45 -2 50 -1 50 -37 2 -38 1 0 -49z"/>
<path d="M5761 9584 c0 -11 3 -14 6 -6 3 7 2 16 -1 19 -3 4 -6 -2 -5 -13z"/>
<path d="M8310 9235 c0 -5 5 -17 10 -25 5 -8 10 -10 10 -5 0 6 -5 17 -10 25
-5 8 -10 11 -10 5z"/>
<path d="M8336 9170 c3 -14 11 -32 16 -40 6 -10 7 -7 2 10 -3 14 -11 32 -16
40 -6 10 -7 7 -2 -10z"/>
<path d="M8360 9105 c0 -5 5 -17 10 -25 5 -8 10 -10 10 -5 0 6 -5 17 -10 25
-5 8 -10 11 -10 5z"/>
<path d="M8386 9040 c3 -14 11 -32 16 -40 6 -10 7 -7 2 10 -3 14 -11 32 -16
40 -6 10 -7 7 -2 -10z"/>
<path d="M8410 8975 c0 -5 5 -17 10 -25 5 -8 10 -10 10 -5 0 6 -5 17 -10 25
-5 8 -10 11 -10 5z"/>
<path d="M8430 8925 c0 -5 5 -17 10 -25 5 -8 10 -10 10 -5 0 6 -5 17 -10 25
-5 8 -10 11 -10 5z"/>
<path d="M5140 8893 c1 -7 155 -83 184 -91 6 -2 -32 20 -84 47 -105 56 -100
54 -100 44z"/>
<path d="M8460 8845 c0 -5 5 -17 10 -25 5 -8 10 -10 10 -5 0 6 -5 17 -10 25
-5 8 -10 11 -10 5z"/>
<path d="M8480 8795 c0 -5 5 -17 10 -25 5 -8 10 -10 10 -5 0 6 -5 17 -10 25
-5 8 -10 11 -10 5z"/>
<path d="M5445 8743 c17 -9 36 -23 43 -32 11 -14 11 -14 6 2 -4 10 -19 24 -35
32 -38 20 -51 18 -14 -2z"/>
<path d="M8510 8715 c0 -5 5 -17 10 -25 5 -8 10 -10 10 -5 0 6 -5 17 -10 25
-5 8 -10 11 -10 5z"/>
<path d="M5520 8650 c6 -11 13 -20 16 -20 2 0 0 9 -6 20 -6 11 -13 20 -16 20
-2 0 0 -9 6 -20z"/>
<path d="M8536 8650 c3 -14 11 -32 16 -40 6 -10 7 -7 2 10 -3 14 -11 32 -16
40 -6 10 -7 7 -2 -10z"/>
<path d="M5555 8590 c9 -16 18 -30 21 -30 2 0 -2 14 -11 30 -9 17 -18 30 -21
30 -2 0 2 -13 11 -30z"/>
<path d="M8560 8585 c0 -5 5 -17 10 -25 5 -8 10 -10 10 -5 0 6 -5 17 -10 25
-5 8 -10 11 -10 5z"/>
<path d="M5595 8520 c9 -16 18 -30 21 -30 2 0 -2 14 -11 30 -9 17 -18 30 -21
30 -2 0 2 -13 11 -30z"/>
<path d="M5630 8460 c6 -11 13 -20 16 -20 2 0 0 9 -6 20 -6 11 -13 20 -16 20
-2 0 0 -9 6 -20z"/>
<path d="M2430 8460 c0 -6 27 -10 60 -10 33 0 60 -4 60 -10 0 -6 -27 -49 -60
-97 -33 -47 -60 -92 -60 -100 0 -11 18 -13 83 -11 97 4 111 22 20 26 -35 2
-63 5 -63 8 0 3 27 43 60 90 33 46 60 91 60 99 0 12 -16 15 -80 15 -47 0 -80
-4 -80 -10z"/>
<path d="M8611 8455 c1 -19 18 -51 18 -35 0 8 -4 22 -9 30 -5 8 -9 11 -9 5z"/>
<path d="M3400 8431 c0 -12 -6 -21 -15 -21 -8 0 -15 -4 -15 -9 0 -5 7 -11 15
-15 11 -4 15 -22 15 -69 0 -65 10 -87 42 -87 23 0 23 5 -3 31 -16 16 -19 30
-17 72 l3 52 35 0 35 0 1 -62 c1 -63 14 -93 40 -93 18 0 18 14 -1 30 -10 8
-15 31 -15 67 0 46 3 55 23 63 l22 9 -22 7 c-14 4 -23 14 -23 25 0 25 -16 24
-23 -2 -4 -16 -12 -20 -39 -17 -20 2 -33 8 -33 17 0 8 -6 16 -12 19 -8 2 -13
-5 -13 -17z"/>
<path d="M5680 8375 c18 -33 38 -64 43 -70 6 -5 -4 17 -22 50 -18 33 -38 65
-44 70 -5 6 5 -17 23 -50z"/>
<path d="M2656 8389 c-21 -17 -26 -29 -26 -65 0 -74 63 -118 116 -80 24 18 12
31 -16 16 -27 -15 -59 -4 -69 23 -8 21 -5 22 48 27 l56 5 -2 35 c-3 59 -57 79
-107 39z m72 -11 c20 -20 14 -35 -16 -40 -16 -2 -34 -2 -40 0 -27 9 -3 52 28
52 9 0 21 -5 28 -12z"/>
<path d="M2805 8401 c-3 -2 -5 -40 -5 -83 0 -63 3 -78 15 -78 12 0 15 14 15
65 0 61 2 66 25 75 14 5 25 14 25 19 0 9 -66 11 -75 2z"/>
<path d="M2913 8394 c-8 -22 2 -159 12 -157 6 2 12 33 15 69 4 49 10 70 23 78
33 21 51 -4 57 -78 3 -36 10 -66 15 -66 6 0 12 30 15 66 4 49 10 70 23 78 33
21 51 -4 57 -78 6 -85 24 -90 28 -8 4 77 -14 112 -56 112 -16 0 -33 -5 -40
-12 -9 -9 -17 -9 -34 0 -28 14 -109 11 -115 -4z"/>
<path d="M3228 8399 c-18 -10 -25 -39 -9 -39 5 0 14 7 21 15 15 18 42 19 58 3
22 -22 12 -35 -35 -44 -40 -7 -49 -14 -58 -38 -14 -41 19 -67 83 -62 l47 4 3
66 c2 55 0 68 -18 86 -21 21 -64 26 -92 9z m82 -97 c0 -25 -19 -42 -47 -42
-28 0 -40 24 -23 45 18 22 70 20 70 -3z"/>
<path d="M8585 8350 c-9 -16 -13 -30 -11 -30 3 0 12 14 21 30 9 17 13 30 11
30 -3 0 -12 -13 -21 -30z"/>
<path d="M8545 8280 c-9 -16 -13 -30 -11 -30 3 0 12 14 21 30 9 17 13 30 11
30 -3 0 -12 -13 -21 -30z"/>
<path d="M5740 8270 c6 -11 13 -20 16 -20 2 0 0 9 -6 20 -6 11 -13 20 -16 20
-2 0 0 -9 6 -20z"/>
<path d="M5775 8210 c9 -16 18 -30 21 -30 2 0 -2 14 -11 30 -9 17 -18 30 -21
30 -2 0 2 -13 11 -30z"/>
<path d="M8500 8200 c-6 -11 -7 -20 -2 -20 6 0 12 9 15 20 3 11 3 20 1 20 -2
0 -8 -9 -14 -20z"/>
<path d="M5815 8141 c14 -29 47 -57 108 -96 51 -32 27 -8 -28 28 -30 20 -61
50 -70 67 -9 16 -18 30 -21 30 -2 0 2 -13 11 -29z"/>
<path d="M2954 8096 c-12 -31 0 -51 31 -51 27 0 30 3 30 30 0 25 -4 30 -28 33
-17 2 -29 -2 -33 -12z"/>
<path d="M8470 8016 c0 -44 4 -76 10 -76 6 0 10 20 10 45 0 38 3 45 19 45 17
0 21 -8 24 -52 4 -51 4 -51 3 7 -1 56 -2 60 -23 58 -17 -2 -23 2 -23 17 0 10
-4 22 -10 25 -6 4 -10 -22 -10 -69z"/>
<path d="M7801 8075 c-2 -5 -3 -35 -2 -65 2 -67 19 -89 54 -73 28 13 35 46 26
108 -5 36 -6 33 -8 -21 -1 -41 -6 -66 -16 -74 -26 -22 -44 5 -48 73 -2 34 -5
58 -6 52z"/>
<path d="M8021 8058 c-1 -10 -7 -18 -13 -18 -10 0 -10 -2 -1 -8 6 -4 13 -27
15 -51 2 -29 8 -46 18 -49 12 -4 13 -2 3 9 -7 7 -13 30 -13 51 0 24 5 38 13
38 8 0 9 3 1 8 -6 4 -14 14 -17 22 -4 12 -6 11 -6 -2z"/>
<path d="M8415 8053 c-5 -10 -7 -22 -6 -27 1 -5 3 -24 5 -43 5 -65 21 -54 19
14 -3 72 -6 83 -18 56z"/>
<path d="M7933 8042 c-20 -3 -23 -9 -23 -53 0 -27 5 -49 10 -49 6 0 10 20 10
45 0 38 3 45 19 45 17 0 21 -8 24 -52 l3 -53 2 56 c2 60 -4 68 -45 61z"/>
<path d="M8093 8042 c-16 -10 -26 -56 -18 -81 8 -25 39 -36 62 -22 15 8 13 10
-12 8 -24 -2 -31 2 -33 21 -3 19 1 22 27 22 35 0 41 19 15 44 -17 18 -24 19
-41 8z m41 -27 c4 -11 -1 -15 -19 -15 -16 0 -25 6 -25 15 0 8 9 15 19 15 10 0
21 -7 25 -15z"/>
<path d="M8188 8043 c-14 -4 -18 -15 -18 -54 0 -27 5 -49 10 -49 6 0 10 18 10
40 0 26 6 42 16 48 19 11 7 20 -18 15z"/>
<path d="M8258 8042 c-15 -3 -18 -13 -16 -60 1 -53 2 -54 5 -12 2 26 11 50 20
57 19 15 15 21 -9 15z"/>
<path d="M8318 8039 c-21 -12 -25 -78 -6 -97 27 -27 68 1 68 48 0 26 -22 60
-38 60 -4 0 -15 -5 -24 -11z m46 -25 c9 -24 7 -38 -8 -59 -12 -16 -16 -17 -30
-6 -16 13 -22 62 -9 74 12 13 41 7 47 -9z"/>
<path d="M8588 8039 c-26 -15 -25 -85 1 -99 25 -13 27 -13 45 6 9 8 16 28 16
44 0 26 -22 60 -38 60 -4 0 -15 -5 -24 -11z m46 -25 c17 -44 -10 -88 -39 -64
-15 13 -21 61 -8 73 12 13 41 7 47 -9z"/>
<path d="M8705 8041 c-3 -6 -11 -9 -16 -6 -5 4 -8 -16 -8 -47 l2 -53 7 43 c3
24 13 48 20 52 8 5 12 12 8 15 -3 4 -9 1 -13 -4z"/>
<path d="M8763 8042 c-20 -3 -23 -9 -23 -53 0 -27 5 -49 10 -49 6 0 10 20 10
45 0 38 3 45 20 45 17 0 20 -7 20 -51 0 -31 4 -48 10 -44 6 4 10 21 9 38 -3
65 -12 76 -56 69z"/>
<path d="M6005 7995 c11 -9 29 -21 40 -26 l20 -10 -20 16 c-11 9 -29 21 -40
26 l-20 10 20 -16z"/>
<path d="M6154 7901 c7 -11 46 -35 46 -28 0 3 -12 12 -26 22 -15 9 -23 12 -20
6z"/>
<path d="M6210 7867 c0 -4 20 -18 103 -71 15 -10 27 -16 27 -13 0 4 -20 18
-102 71 -16 10 -28 16 -28 13z"/>
<path d="M8028 7810 c-13 -11 -17 -19 -10 -20 6 0 12 5 12 10 0 6 9 10 20 10
15 0 20 -7 20 -25 0 -17 -6 -25 -17 -25 -14 0 -13 -3 5 -20 26 -25 27 -33 6
-51 -14 -11 -18 -11 -29 4 -15 21 -26 22 -19 3 8 -20 32 -28 54 -16 15 8 17
20 15 67 -4 74 -3 70 -20 76 -7 3 -24 -3 -37 -13z"/>
<path d="M8325 7814 c-9 -9 -13 -19 -10 -23 4 -3 11 2 16 11 13 23 39 11 39
-18 0 -16 -6 -24 -17 -24 -17 -1 -17 -1 0 -14 19 -15 23 -51 5 -62 -6 -4 -16
0 -23 9 -14 19 -25 22 -25 7 0 -14 36 -31 54 -24 21 8 30 42 15 60 -9 11 -9
18 -1 26 16 16 15 34 -4 52 -20 20 -29 20 -49 0z"/>
<path d="M8130 7810 c-13 -8 -12 -10 3 -10 14 0 17 -10 17 -60 0 -33 4 -60 8
-60 11 0 8 133 -3 137 -6 1 -17 -2 -25 -7z"/>
<path d="M8219 7793 c-17 -45 3 -123 32 -123 31 0 52 84 33 134 -10 27 -53 20
-65 -11z m55 1 c10 -27 7 -79 -7 -99 -23 -30 -37 -8 -37 56 0 51 2 59 19 59
10 0 22 -7 25 -16z"/>
<path d="M8485 7780 c-4 -6 -11 -8 -16 -5 -5 4 -8 -18 -7 -52 l1 -58 6 50 c5
41 9 50 26 50 16 0 21 -9 26 -45 l6 -45 1 43 c1 28 7 45 17 49 23 8 29 -2 30
-47 0 -22 3 -40 8 -40 4 0 7 20 7 44 0 52 -18 73 -49 57 -13 -7 -22 -8 -26 -1
-8 13 -22 13 -30 0z"/>
<path d="M6395 7745 c11 -9 29 -21 40 -26 l20 -10 -20 16 c-11 9 -29 21 -40
26 l-20 10 20 -16z"/>
<path d="M6508 7671 c12 -12 27 -21 33 -19 5 2 -5 12 -23 22 l-33 19 23 -22z"/>
<path d="M5160 7120 l0 -70 48 2 c44 1 45 2 9 5 -35 4 -38 7 -35 31 2 20 9 27
25 27 12 0 25 3 29 8 4 4 -7 7 -24 7 -27 0 -32 4 -32 24 0 21 5 25 38 29 34 3
33 4 -10 5 l-48 2 0 -70z"/>
<path d="M5613 7152 c-21 -3 -23 -9 -21 -55 l1 -52 6 45 c5 37 10 46 29 48 20
3 22 -1 22 -42 0 -25 5 -46 10 -46 6 0 10 20 10 45 0 48 -16 64 -57 57z"/>
<path d="M5269 7127 c-16 -35 4 -77 37 -77 16 0 24 -5 21 -12 -2 -7 -16 -12
-31 -11 -14 1 -24 -2 -21 -8 9 -13 49 -11 63 3 7 7 12 38 12 70 l0 58 -35 0
c-27 0 -38 -5 -46 -23z m67 -13 c8 -30 -16 -60 -40 -51 -16 6 -23 57 -9 70 16
16 43 6 49 -19z"/>
<path d="M5378 7125 c-16 -36 3 -75 38 -75 16 0 24 -5 21 -12 -2 -7 -16 -13
-30 -13 -14 1 -23 -3 -21 -7 8 -12 49 -9 62 4 7 7 12 38 12 70 l0 58 -35 0
c-28 0 -38 -5 -47 -25z m60 -22 c-2 -30 -7 -38 -23 -38 -13 0 -21 8 -23 23 -5
34 5 52 28 52 18 0 21 -5 18 -37z"/>
<path d="M5488 7125 c-16 -35 3 -75 36 -75 14 0 27 4 30 8 2 4 -7 8 -22 7 -17
0 -28 6 -30 18 -3 14 4 17 32 17 37 0 47 15 24 38 -21 21 -57 14 -70 -13z m60
-2 c2 -8 -6 -13 -22 -13 -25 0 -33 10 -19 24 10 10 36 3 41 -11z"/>
<path d="M4337 6838 c-6 -4 6 -8 26 -10 l37 -3 -35 -52 c-19 -29 -35 -57 -35
-63 0 -13 87 -13 95 -1 3 6 -13 11 -35 13 l-40 3 35 49 c19 27 35 54 35 60 0
12 -65 15 -83 4z"/>
<path d="M4610 6830 c-39 -39 -14 -130 36 -130 29 0 54 21 54 45 0 21 -5 25
-27 24 -17 -1 -21 -3 -10 -6 9 -2 17 -13 17 -24 0 -31 -58 -27 -66 5 -11 45
-1 81 25 84 13 2 28 -1 34 -7 6 -6 16 -11 22 -11 15 1 -35 40 -51 40 -8 0 -23
-9 -34 -20z"/>
<path d="M4462 6798 c-22 -28 -18 -74 8 -88 22 -12 60 -5 60 11 0 7 -6 7 -17
0 -11 -6 -24 -6 -35 0 -29 16 -21 29 17 29 27 0 35 4 35 18 0 36 -46 56 -68
30z m47 -11 c14 -17 4 -27 -26 -27 -25 0 -29 10 -11 28 15 15 23 15 37 -1z"/>
<path d="M4743 6803 c-7 -2 -13 -9 -13 -15 0 -6 6 -6 15 2 16 13 45 7 45 -9 0
-5 -13 -12 -29 -16 -32 -7 -48 -32 -31 -49 6 -6 27 -11 46 -11 32 0 34 2 34
33 0 59 -24 83 -67 65z m45 -60 c-4 -23 -48 -31 -48 -9 0 13 14 21 43 25 5 0
7 -7 5 -16z"/>
<path d="M4847 6804 c-17 -17 -5 -43 23 -53 17 -5 30 -14 30 -20 0 -15 -23
-19 -43 -9 -10 5 -21 7 -24 5 -9 -10 38 -28 57 -22 31 10 25 44 -10 56 -16 6
-30 15 -30 19 0 16 20 21 41 9 17 -9 20 -8 17 3 -5 14 -49 23 -61 12z"/>
<path d="M4947 6804 c-17 -17 -5 -43 23 -53 17 -5 30 -14 30 -20 0 -14 -23
-19 -42 -9 -11 5 -18 5 -18 -1 0 -5 8 -12 19 -16 52 -16 73 39 21 56 -16 6
-30 15 -30 20 0 17 30 22 47 8 14 -12 16 -12 11 1 -5 16 -49 26 -61 14z"/>
<path d="M5044 6785 c-30 -45 18 -104 62 -75 18 11 18 11 -2 7 -23 -5 -54 9
-54 23 0 6 16 10 35 10 27 0 35 4 35 18 0 44 -50 56 -76 17z m54 -8 c3 -12 -4
-17 -22 -17 -28 0 -33 9 -14 28 15 15 32 10 36 -11z"/>
<path d="M5140 6752 c0 -59 16 -64 18 -6 2 46 15 62 37 44 10 -8 14 -23 11
-40 -2 -15 0 -34 5 -41 6 -9 8 5 7 41 l-3 55 -37 0 -38 1 0 -54z"/>
<path d="M5190 6382 c0 -8 32 -23 108 -53 43 -17 37 -9 -16 21 -64 35 -92 45
-92 32z"/>
<path d="M5380 6295 c14 -8 30 -14 35 -14 6 0 -1 6 -15 14 -14 8 -29 14 -35
14 -5 0 1 -6 15 -14z"/>
<path d="M5480 6250 c19 -11 40 -19 45 -19 6 0 -6 8 -25 19 -19 11 -39 19 -45
19 -5 0 6 -8 25 -19z"/>
<path d="M5590 6200 c8 -5 20 -10 25 -10 6 0 3 5 -5 10 -8 5 -19 10 -25 10 -5
0 -3 -5 5 -10z"/>
<path d="M5690 6155 c14 -8 30 -14 35 -14 6 0 -1 6 -15 14 -14 8 -29 14 -35
14 -5 0 1 -6 15 -14z"/>
<path d="M5740 6136 c0 -2 7 -7 16 -10 8 -3 12 -2 9 4 -6 10 -25 14 -25 6z"/>
<path d="M720 6121 c0 -6 16 -11 35 -13 l35 -3 -35 -52 c-19 -29 -35 -55 -35
-58 0 -3 24 -4 53 -3 50 1 50 2 10 5 l-43 4 40 59 c22 32 40 61 40 64 0 4 -22
6 -50 6 -27 0 -50 -4 -50 -9z"/>
<path d="M1188 6119 c-30 -17 -21 -47 20 -66 20 -10 37 -25 37 -33 0 -22 -46
-25 -62 -4 -12 16 -13 17 -13 1 0 -27 48 -41 76 -22 13 8 24 20 24 25 0 15
-30 40 -56 46 -14 4 -24 13 -24 24 0 25 24 31 49 14 22 -16 29 -6 9 14 -15 15
-37 15 -60 1z"/>
<path d="M5780 6117 c0 -3 17 -17 37 -33 20 -15 33 -23 29 -16 -8 13 -66 56
-66 49z"/>
<path d="M840 6045 c0 -49 16 -65 56 -57 22 4 24 9 22 56 l-1 51 -6 -45 c-5
-37 -10 -46 -28 -48 -21 -3 -23 1 -23 42 0 25 -4 46 -10 46 -5 0 -10 -20 -10
-45z"/>
<path d="M950 6038 c0 -26 5 -48 10 -48 6 0 10 18 10 39 0 22 5 43 10 46 19
12 40 -16 41 -54 l2 -36 6 42 c8 49 14 58 36 50 10 -4 15 -20 15 -47 0 -22 5
-40 10 -40 11 0 13 69 2 86 -4 7 -34 12 -74 11 l-68 0 0 -49z"/>
<path d="M1303 6082 c-24 -15 -26 -59 -4 -81 25 -25 31 -26 57 -7 18 13 17 14
-15 13 -19 -1 -36 3 -38 11 -3 8 6 12 26 12 35 0 50 22 31 45 -13 16 -38 19
-57 7z m45 -19 c2 -8 -6 -13 -22 -13 -25 0 -33 10 -19 24 10 10 36 3 41 -11z"/>
<path d="M1395 6066 c-29 -44 12 -99 56 -76 25 14 24 15 -13 15 -17 0 -33 6
-35 13 -3 8 7 12 31 12 28 0 36 4 36 18 0 44 -50 56 -75 18z m55 -1 c11 -13 8
-15 -18 -15 -24 0 -30 4 -26 15 4 8 12 15 19 15 7 0 18 -7 25 -15z"/>
<path d="M5890 6031 c64 -58 350 -281 349 -274 0 7 -94 82 -324 259 -33 25
-44 32 -25 15z"/>
<path d="M740 5330 c0 -40 4 -70 10 -70 6 0 10 15 10 34 0 32 3 35 33 39 l32
4 -32 1 c-28 2 -33 6 -33 26 0 21 5 25 38 29 34 3 33 4 -10 5 l-48 2 0 -70z"/>
<path d="M695 5370 c-3 -5 -1 -10 4 -10 6 0 11 5 11 10 0 6 -2 10 -4 10 -3 0
-8 -4 -11 -10z"/>
<path d="M851 5323 c-1 -55 -1 -55 52 -57 26 -2 27 0 27 52 0 34 -4 51 -10 47
-6 -4 -10 -14 -9 -23 4 -45 -2 -62 -21 -62 -19 0 -24 10 -33 70 -3 14 -5 1 -6
-27z"/>
<path d="M962 5310 c1 -46 2 -49 5 -15 3 26 12 46 26 57 l21 16 -27 -1 c-26
-2 -27 -4 -25 -57z"/>
<path d="M1033 5315 c0 -33 2 -45 4 -27 2 18 2 45 0 60 -2 15 -4 0 -4 -33z"/>
<path d="M2973 5363 c-7 -2 -13 -13 -13 -24 0 -10 -6 -19 -12 -19 -10 0 -10
-2 -1 -8 6 -4 13 -28 16 -52 l4 -45 1 48 c1 30 7 47 15 47 8 0 7 4 -3 10 -13
9 -13 12 3 24 27 21 21 32 -10 19z"/>
<path d="M3044 5362 c-21 -14 -29 -41 -26 -91 5 -63 22 -68 22 -7 0 26 5 46
13 49 10 4 10 6 0 6 -19 1 -16 22 5 37 18 14 5 19 -14 6z"/>
<path d="M3189 5358 c-4 -56 -3 -110 3 -125 3 -10 7 17 7 60 1 42 -1 77 -4 77
-3 0 -5 -6 -6 -12z"/>
<path d="M3343 5295 c0 -44 2 -61 4 -37 2 23 2 59 0 80 -2 20 -4 1 -4 -43z"/>
<path d="M650 5345 c-14 -8 -20 -14 -14 -15 5 0 19 7 30 15 24 18 16 19 -16 0z"/>
<path d="M2790 5290 c0 -40 4 -70 10 -70 6 0 10 11 10 25 0 18 5 25 18 25 11
0 24 -11 30 -25 6 -14 16 -25 22 -25 7 0 5 10 -4 27 -12 24 -12 30 1 50 14 21
14 25 -2 43 -11 12 -31 20 -52 20 l-33 0 0 -70z m75 25 c0 -14 -8 -21 -27 -23
-24 -3 -28 0 -28 23 0 23 4 26 28 23 19 -2 27 -9 27 -23z"/>
<path d="M2913 5270 c0 -30 2 -43 4 -27 2 15 2 39 0 55 -2 15 -4 2 -4 -28z"/>
<path d="M3092 5308 c-13 -13 -16 -57 -4 -75 7 -12 25 -16 55 -14 28 2 20 17
-10 16 -14 0 -28 6 -30 13 -3 8 6 12 26 12 36 0 42 7 30 38 -9 24 -47 30 -67
10z m56 -15 c2 -8 -6 -13 -22 -13 -25 0 -33 10 -19 24 10 10 36 3 41 -11z"/>
<path d="M3237 5314 c-14 -14 -7 -26 8 -14 15 13 45 7 45 -8 0 -5 -14 -12 -30
-16 -60 -12 -44 -67 17 -59 28 5 29 6 23 51 -4 41 -8 47 -30 50 -14 2 -29 0
-33 -4z m51 -61 c-4 -22 -48 -31 -48 -10 0 19 10 27 32 27 13 0 18 -6 16 -17z"/>
<path d="M3381 5248 c1 -40 4 -62 6 -50 3 18 10 23 23 19 29 -8 53 16 52 51
-1 44 -8 52 -48 52 l-34 0 1 -72z m59 47 c7 -9 10 -25 6 -41 -9 -33 -49 -31
-54 4 -7 48 21 69 48 37z"/>
<path d="M5580 5195 c0 -8 2 -15 4 -15 2 0 6 7 10 15 3 8 1 15 -4 15 -6 0 -10
-7 -10 -15z"/>
<path d="M860 5170 c12 -16 24 -30 26 -30 3 0 -4 14 -16 30 -12 17 -24 30 -26
30 -3 0 4 -13 16 -30z"/>
<path d="M890 5126 c0 -2 8 -10 18 -17 15 -13 16 -12 3 4 -13 16 -21 21 -21
13z"/>
<path d="M770 5091 c0 -5 -3 -18 -6 -28 -5 -17 -5 -17 6 0 6 9 19 17 28 17 15
0 15 2 2 10 -19 12 -30 13 -30 1z"/>
<path d="M929 5073 c10 -19 9 -23 -3 -23 -8 0 -18 5 -21 10 -3 6 -18 10 -33 9
-23 0 -20 -3 16 -16 32 -11 47 -12 55 -4 8 8 6 16 -7 29 -18 16 -18 16 -7 -5z"/>
<path d="M685 5060 c-13 -5 -14 -9 -5 -9 8 0 24 4 35 9 13 5 14 9 5 9 -8 0
-24 -4 -35 -9z"/>
<path d="M638 5043 c7 -3 16 -2 19 1 4 3 -2 6 -13 5 -11 0 -14 -3 -6 -6z"/>
<path d="M588 5033 c6 -2 18 -2 25 0 6 3 1 5 -13 5 -14 0 -19 -2 -12 -5z"/>
<path d="M548 5023 c7 -3 16 -2 19 1 4 3 -2 6 -13 5 -11 0 -14 -3 -6 -6z"/>
<path d="M508 5013 c7 -3 16 -2 19 1 4 3 -2 6 -13 5 -11 0 -14 -3 -6 -6z"/>
<path d="M727 4985 c-24 -50 -20 -58 4 -12 11 22 19 41 17 43 -3 2 -12 -12
-21 -31z"/>
<path d="M468 5003 c7 -3 16 -2 19 1 4 3 -2 6 -13 5 -11 0 -14 -3 -6 -6z"/>
<path d="M428 4993 c7 -3 16 -2 19 1 4 3 -2 6 -13 5 -11 0 -14 -3 -6 -6z"/>
<path d="M378 4983 c7 -3 16 -2 19 1 4 3 -2 6 -13 5 -11 0 -14 -3 -6 -6z"/>
<path d="M338 4973 c7 -3 16 -2 19 1 4 3 -2 6 -13 5 -11 0 -14 -3 -6 -6z"/>
<path d="M298 4963 c7 -3 16 -2 19 1 4 3 -2 6 -13 5 -11 0 -14 -3 -6 -6z"/>
<path d="M258 4953 c7 -3 16 -2 19 1 4 3 -2 6 -13 5 -11 0 -14 -3 -6 -6z"/>
<path d="M218 4943 c7 -3 16 -2 19 1 4 3 -2 6 -13 5 -11 0 -14 -3 -6 -6z"/>
<path d="M178 4933 c7 -3 16 -2 19 1 4 3 -2 6 -13 5 -11 0 -14 -3 -6 -6z"/>
<path d="M84 4888 c-22 -24 -48 -54 -59 -68 -11 -14 7 2 40 37 33 34 69 64 80
66 20 5 20 5 0 6 -13 1 -37 -16 -61 -41z"/>
<path d="M677 4875 c-24 -50 -20 -58 4 -12 11 22 19 41 17 43 -3 2 -12 -12
-21 -31z"/>
<path d="M622 4755 c-30 -62 -27 -71 4 -12 14 27 24 51 22 53 -3 2 -14 -17
-26 -41z"/>
<path d="M572 4645 c-30 -62 -27 -71 4 -12 14 27 24 51 22 53 -3 2 -14 -17
-26 -41z"/>
<path d="M526 4545 c-9 -26 -7 -32 5 -12 6 10 9 21 6 23 -2 3 -7 -2 -11 -11z"/>
<path d="M476 4434 c-14 -31 -26 -59 -26 -63 1 -8 29 44 46 86 23 55 7 37 -20
-23z"/>
<path d="M422 4315 c-30 -62 -27 -71 4 -12 14 27 24 51 22 53 -3 2 -14 -17
-26 -41z"/>
<path d="M6187 4343 c-4 -3 -7 -11 -7 -17 0 -6 5 -5 12 2 6 6 9 14 7 17 -3 3
-9 2 -12 -2z"/>
<path d="M6166 4295 c-9 -26 -7 -32 5 -12 6 10 9 21 6 23 -2 3 -7 -2 -11 -11z"/>
<path d="M341 4139 c-22 -51 -40 -94 -38 -96 2 -2 23 38 46 88 22 51 40 94 38
96 -2 2 -23 -38 -46 -88z"/>
<path d="M6131 4199 c-6 -18 -9 -34 -7 -36 2 -2 9 10 15 28 6 18 9 34 7 36 -2
2 -9 -10 -15 -28z"/>
<path d="M6106 4135 c-9 -26 -7 -32 5 -12 6 10 9 21 6 23 -2 3 -7 -2 -11 -11z"/>
<path d="M6071 4039 c-6 -18 -9 -34 -7 -36 2 -2 9 10 15 28 6 18 9 34 7 36 -2
2 -9 -10 -15 -28z"/>
<path d="M262 3965 c-30 -62 -27 -71 4 -12 14 27 24 51 22 53 -3 2 -14 -17
-26 -41z"/>
<path d="M6036 3945 c-9 -26 -7 -32 5 -12 6 10 9 21 6 23 -2 3 -7 -2 -11 -11z"/>
<path d="M226 3885 c-9 -26 -7 -32 5 -12 6 10 9 21 6 23 -2 3 -7 -2 -11 -11z"/>
<path d="M6001 3849 c-6 -18 -9 -34 -7 -36 2 -2 9 10 15 28 6 18 9 34 7 36 -2
2 -9 -10 -15 -28z"/>
<path d="M221 3840 c0 -8 4 -22 9 -30 12 -18 12 -2 0 25 -6 13 -9 15 -9 5z"/>
<path d="M5966 3755 c-9 -26 -7 -32 5 -12 6 10 9 21 6 23 -2 3 -7 -2 -11 -11z"/>
<path d="M272 3690 c3 -8 15 -46 28 -83 12 -38 24 -66 26 -64 5 5 -43 148 -53
156 -3 3 -4 -1 -1 -9z"/>
<path d="M5932 3663 c-5 -15 -13 -36 -17 -45 -5 -13 -2 -18 10 -18 9 0 14 4
11 9 -3 5 -1 23 5 40 6 18 9 34 6 37 -2 3 -9 -8 -15 -23z"/>
<path d="M93 3503 c9 -2 25 -2 35 0 9 3 1 5 -18 5 -19 0 -27 -2 -17 -5z"/>
<path d="M173 3493 c9 -2 25 -2 35 0 9 3 1 5 -18 5 -19 0 -27 -2 -17 -5z"/>
<path d="M332 3485 c-11 -12 -10 -15 3 -15 8 0 15 7 15 15 0 18 -2 18 -18 0z"/>
<path d="M61 3480 c0 -8 4 -24 9 -35 5 -13 9 -14 9 -5 0 8 -4 24 -9 35 -5 13
-9 14 -9 5z"/>
<path d="M253 3483 c9 -2 25 -2 35 0 9 3 1 5 -18 5 -19 0 -27 -2 -17 -5z"/>
<path d="M101 3350 c0 -8 4 -24 9 -35 5 -13 9 -14 9 -5 0 8 -4 24 -9 35 -5 13
-9 14 -9 5z"/>
<path d="M18 3293 c6 -2 18 -2 25 0 6 3 1 5 -13 5 -14 0 -19 -2 -12 -5z"/>
<path d="M68 3283 c7 -3 16 -2 19 1 4 3 -2 6 -13 5 -11 0 -14 -3 -6 -6z"/>
<path d="M112 3281 c-11 -6 -10 -10 4 -15 20 -8 32 0 18 14 -5 5 -15 5 -22 1z"/>
<path d="M6110 2840 c0 -5 5 -10 11 -10 5 0 7 5 4 10 -3 6 -8 10 -11 10 -2 0
-4 -4 -4 -10z"/>
<path d="M10756 2554 c-25 -24 -19 -43 19 -65 37 -22 46 -53 19 -63 -10 -4
-25 1 -35 10 -11 10 -19 12 -19 6 0 -17 38 -34 59 -27 41 13 35 57 -10 81 -34
17 -40 54 -9 54 10 0 24 -8 29 -17 10 -17 10 -17 11 -1 0 10 -9 22 -19 28 -25
13 -27 13 -45 -6z"/>
<path d="M11120 2495 c0 -49 4 -74 10 -70 6 4 8 10 6 14 -3 4 -1 13 4 20 6 10
12 6 25 -18 9 -18 19 -31 22 -28 3 3 -3 19 -13 36 -15 25 -15 32 -4 46 7 8 10
18 7 21 -3 3 -12 -3 -19 -15 -19 -32 -27 -26 -24 19 2 22 -1 43 -5 46 -5 3 -9
-29 -9 -71z"/>
<path d="M11211 2495 c1 -83 3 -87 14 -22 4 27 11 37 25 37 16 0 20 -9 23 -52
l3 -53 2 57 c2 60 -8 73 -42 55 -15 -7 -18 -6 -14 4 3 8 2 23 -3 34 -5 12 -8
-11 -8 -60z"/>
<path d="M10852 2530 c-7 -11 -8 -20 -3 -20 6 0 11 -21 13 -47 2 -31 8 -48 18
-51 12 -4 13 -2 3 9 -7 7 -13 30 -13 51 0 24 5 38 13 38 8 0 9 3 1 8 -6 4 -13
13 -15 20 -3 8 -8 5 -17 -8z"/>
<path d="M10938 2523 c-34 -8 -36 -94 -2 -107 30 -12 54 12 54 54 0 42 -19 60
-52 53z m40 -46 c3 -27 -12 -57 -29 -57 -15 0 -31 42 -24 67 9 36 49 28 53
-10z"/>
<path d="M11038 2519 c-22 -13 -24 -81 -3 -99 16 -13 55 -5 55 12 0 6 -6 6
-15 -2 -23 -19 -47 6 -43 44 2 23 9 32 26 34 12 2 22 -2 22 -9 0 -7 3 -9 6 -6
7 7 -14 37 -25 37 -3 0 -14 -5 -23 -11z"/>
<path d="M11328 2519 c-21 -12 -25 -78 -6 -97 27 -27 68 1 68 48 0 26 -22 60
-38 60 -4 0 -15 -5 -24 -11z m46 -25 c9 -24 7 -38 -8 -59 -12 -16 -16 -17 -30
-6 -16 13 -22 62 -9 74 12 13 41 7 47 -9z"/>
<path d="M11445 2521 c-3 -6 -11 -9 -16 -6 -5 4 -8 -18 -7 -52 1 -53 2 -54 5
-13 2 26 11 50 20 57 9 7 14 15 11 19 -3 3 -9 0 -13 -5z"/>
<path d="M11503 2522 c-20 -3 -23 -9 -23 -53 0 -27 5 -49 10 -49 6 0 10 20 10
45 0 38 3 45 19 45 17 0 21 -8 24 -52 l3 -53 2 56 c2 60 -4 68 -45 61z"/>
<path d="M10877 2299 c-9 -6 -17 -15 -17 -21 0 -7 5 -6 15 2 18 15 45 6 45
-14 0 -8 -8 -20 -17 -26 -17 -10 -17 -10 0 -20 21 -14 22 -33 1 -51 -14 -11
-18 -10 -30 6 -8 10 -14 14 -14 8 0 -21 31 -38 48 -26 24 15 27 130 3 142 -10
6 -23 5 -34 0z"/>
<path d="M11076 2297 c-23 -17 -19 -125 6 -140 30 -19 48 8 48 74 0 47 -4 60
-19 68 -13 7 -23 7 -35 -2z m42 -60 c4 -55 -12 -84 -34 -66 -15 12 -20 100 -7
113 4 4 14 5 23 4 10 -2 16 -17 18 -51z"/>
<path d="M10978 2250 c-16 -28 -28 -52 -28 -55 0 -3 13 -5 29 -5 20 0 31 -6
34 -17 4 -17 5 -17 6 0 0 9 6 17 13 17 9 0 9 3 0 12 -7 7 -12 31 -12 55 0 24
-3 43 -7 43 -5 0 -20 -23 -35 -50z m32 -15 c0 -28 -4 -35 -20 -35 -24 0 -24 3
-5 40 20 39 25 38 25 -5z"/>
<path d="M11170 2281 c0 -11 -3 -27 -6 -36 -5 -13 -1 -16 22 -13 25 3 29 -1
32 -26 4 -36 -16 -51 -40 -29 -10 9 -18 11 -18 6 0 -18 28 -35 48 -28 40 12
33 95 -8 95 -32 0 -26 38 8 43 25 4 25 4 -5 6 -26 1 -33 -3 -33 -18z"/>
<path d="M11323 2262 c-20 -3 -23 -9 -23 -53 0 -27 3 -49 8 -49 4 0 7 18 7 39
0 45 7 56 30 48 10 -5 15 -21 17 -54 l1 -48 6 50 c5 41 9 50 26 50 17 0 21 -9
26 -50 l6 -50 1 51 c2 56 -18 88 -40 66 -6 -6 -18 -8 -27 -4 -9 5 -26 6 -38 4z"/>
<path d="M3625 1451 c-33 -13 73 -21 128 -9 26 5 47 12 47 14 0 7 -154 3 -175
-5z"/>
<path d="M3650 1420 c-12 -8 -11 -10 8 -10 12 0 22 5 22 10 0 13 -11 13 -30 0z"/>
</g>
</svg>
